{"glyphs":{"0":{"ha":719,"x_min":0,"x_max":0,"o":"m 190 309 b 182 406 187 325 182 372 b 333 783 182 550 198 783 b 454 646 408 783 433 714 z m 479 555 b 483 460 481 527 483 494 b 334 93 483 312 475 93 b 213 215 259 93 231 151 z m 332 887 b 77 418 127 887 77 624 b 334 -11 77 212 131 -11 b 588 448 550 -11 588 243 b 332 887 588 650 538 887 z "},"1":{"ha":719,"x_min":0,"x_max":0,"o":"m 336 883 b 73 632 330 873 280 754 l 142 530 b 358 715 225 591 312 658 l 359 -6 l 471 -6 l 471 875 z "},"2":{"ha":719,"x_min":0,"x_max":0,"o":"m 204 581 b 195 624 201 589 195 610 b 340 780 195 732 252 780 b 476 628 438 780 476 707 b 394 475 476 587 446 525 b 201 313 341 424 273 379 b 85 121 128 244 97 186 b 81 66 81 102 81 83 b 82 1 81 43 82 22 l 597 1 l 597 106 l 200 105 b 269 225 201 130 220 178 b 476 409 338 293 418 351 b 584 629 530 467 584 543 b 334 886 584 806 496 886 b 88 650 200 886 88 800 b 89 633 88 644 89 639 b 102 557 90 608 96 576 z "},"3":{"ha":719,"x_min":0,"x_max":0,"o":"m 53 227 b 316 -15 53 89 153 -15 b 532 68 424 -15 487 16 b 597 255 577 122 597 197 b 447 513 597 370 556 460 b 543 701 509 541 543 614 b 311 884 543 830 432 884 l 303 884 b 76 739 138 884 79 749 l 172 685 b 310 780 184 709 224 780 b 436 697 378 780 436 750 b 350 576 436 629 407 597 b 241 559 301 560 267 559 l 231 559 l 231 452 b 400 417 285 452 338 452 b 488 254 466 380 488 328 b 316 90 488 153 423 90 b 160 228 216 90 161 149 z "},"4":{"ha":719,"x_min":0,"x_max":0,"o":"m 410 387 l 195 387 b 410 671 257 452 361 584 z m 53 368 l 94 280 l 410 280 l 410 -1 l 516 -1 l 516 282 l 603 282 l 603 387 l 516 387 l 516 886 l 406 886 b 53 368 391 775 76 399 z "},"5":{"ha":719,"x_min":0,"x_max":0,"o":"m 329 496 b 410 478 353 496 382 492 b 498 304 463 454 498 404 b 321 104 498 176 434 104 b 162 216 245 104 197 158 l 72 157 b 319 -1 119 77 200 -1 l 320 -1 b 605 305 483 0 605 102 b 458 574 605 441 533 534 b 327 603 412 596 366 603 b 199 566 274 603 231 585 l 215 768 l 526 768 l 526 872 l 119 873 l 88 459 l 174 422 b 329 496 185 434 240 496 z "},"6":{"ha":719,"x_min":0,"x_max":0,"o":"m 524 785 l 508 889 b 116 629 317 868 174 777 b 64 345 76 529 64 426 b 330 -2 64 144 153 -2 b 608 258 490 -2 608 80 b 355 525 608 415 505 525 b 184 463 253 525 221 494 b 215 587 191 503 198 545 b 524 785 260 697 377 772 z m 178 298 b 349 420 189 356 258 420 b 500 258 443 420 500 351 b 330 102 500 154 428 102 b 178 298 241 102 178 184 z "},"7":{"ha":719,"x_min":0,"x_max":0,"o":"m 102 876 b 48 735 85 825 61 775 l 140 694 b 168 772 149 723 155 747 b 312 767 211 770 269 767 l 399 767 b 534 768 448 767 498 767 b 212 0 349 484 212 276 l 324 0 b 677 817 324 308 481 452 l 646 872 l 618 872 l 285 872 b 102 876 233 872 159 876 z "},"8":{"ha":719,"x_min":0,"x_max":0,"o":"m 330 100 b 152 250 218 100 152 159 b 330 446 152 353 241 405 b 509 250 420 405 509 353 b 330 100 509 159 443 100 z m 330 557 b 203 671 257 575 203 626 b 329 770 203 724 248 770 b 454 671 410 770 454 724 b 330 557 454 626 404 575 z m 329 877 b 97 668 180 877 97 785 b 215 500 97 598 155 527 b 44 256 139 464 44 380 b 330 -6 44 106 155 -6 b 616 256 506 -6 616 106 b 446 500 616 380 522 464 b 561 668 505 527 561 598 b 329 877 561 785 477 877 z "},"9":{"ha":719,"x_min":0,"x_max":0,"o":"m 342 781 b 494 629 421 781 486 704 b 337 521 481 583 424 521 b 173 646 256 521 173 557 b 342 781 173 742 254 781 z m 65 648 b 328 418 65 495 182 418 b 507 481 415 418 464 438 b 509 409 507 458 509 433 b 330 104 509 254 480 104 b 148 243 206 104 178 145 l 44 213 b 330 -1 88 77 164 -1 b 614 437 566 -1 614 217 b 325 883 614 653 583 883 b 65 648 174 883 65 793 z "}," ":{"ha":719,"x_min":0,"x_max":0,"o":""},"!":{"ha":719,"x_min":0,"x_max":0,"o":"m 416 895 l 281 895 l 292 292 l 405 292 z m 263 183 l 263 0 l 433 0 l 433 183 z "},"\"":{"ha":719,"x_min":0,"x_max":0,"o":"m 410 993 l 410 853 b 430 699 424 806 430 758 b 420 557 430 653 427 594 l 507 545 b 536 993 530 682 536 801 z m 159 993 l 159 853 b 178 699 172 806 178 758 b 168 557 178 653 175 594 l 255 545 b 284 993 278 682 284 801 z "},"#":{"ha":719,"x_min":0,"x_max":0,"o":"m 283 539 b 406 541 329 540 358 541 b 387 368 400 488 395 425 l 337 368 b 265 367 314 368 293 368 b 283 539 271 422 279 485 z m 231 -13 b 252 258 231 -13 242 156 b 357 261 286 260 320 261 l 373 261 b 345 -14 359 142 353 62 l 456 -15 b 481 262 463 67 467 128 b 611 260 559 262 593 260 l 611 369 l 490 369 b 510 542 496 427 505 488 b 614 539 572 542 595 540 l 614 648 l 522 648 b 562 898 535 755 545 816 l 451 899 b 418 648 438 819 431 758 l 295 648 b 314 903 305 745 309 821 b 280 903 304 903 293 903 b 204 903 254 903 224 903 b 189 644 199 808 203 768 b 26 621 132 640 70 637 l 62 521 b 163 536 85 530 119 533 l 173 536 b 155 362 167 482 165 416 b 23 341 110 359 61 355 l 57 241 b 141 254 76 248 105 254 b 117 -12 128 141 121 64 z "},"$":{"ha":719,"x_min":0,"x_max":0,"o":"m 168 481 b 293 441 208 463 251 452 l 271 147 b 148 298 196 165 148 205 l 41 298 b 263 44 41 157 116 72 l 243 -110 l 365 -119 l 373 37 b 643 275 509 41 643 100 b 501 496 643 393 574 461 b 410 526 472 510 441 519 l 427 751 b 555 657 476 741 534 717 l 650 709 b 435 857 613 789 522 844 l 450 1015 l 331 1024 l 325 865 l 319 865 b 49 671 176 865 49 806 b 168 481 49 572 106 510 z m 317 760 l 301 549 b 226 574 275 555 249 564 b 157 674 188 592 157 618 b 317 760 157 739 229 760 z m 380 140 l 401 414 b 441 399 415 410 429 405 b 534 270 495 376 534 342 b 380 140 534 182 477 146 z "},"%":{"ha":719,"x_min":0,"x_max":0,"o":"m 24 26 l 126 -29 b 692 833 266 236 522 603 l 604 898 b 24 26 432 663 164 273 z m 323 172 b 498 -3 323 76 401 -3 b 673 172 594 -3 673 76 b 498 347 673 269 594 347 b 323 172 401 347 323 269 z m 425 172 b 498 245 425 213 457 245 b 571 172 538 245 571 213 b 498 99 571 132 538 99 b 425 172 457 99 425 132 z m 22 699 b 197 524 22 603 101 524 b 372 699 294 524 372 603 b 197 874 372 795 294 874 b 22 699 101 874 22 795 z m 124 699 b 197 772 124 740 157 772 b 271 699 238 772 271 740 b 197 626 271 659 238 626 b 124 699 157 626 124 659 z "},"&":{"ha":719,"x_min":0,"x_max":0,"o":"m 444 166 b 288 90 409 125 355 90 b 140 255 210 90 140 154 b 238 439 140 333 185 393 b 444 166 306 353 372 262 z m 375 725 b 350 665 375 706 368 689 b 260 583 334 644 310 618 b 197 708 229 618 197 659 b 288 810 197 760 242 810 b 375 725 339 810 375 785 z m 668 43 b 568 173 652 64 595 138 b 616 439 602 228 616 326 l 515 439 b 498 270 515 366 513 317 b 321 503 439 351 380 426 b 481 736 401 561 481 626 b 289 913 481 852 387 913 b 90 703 180 913 90 818 b 172 523 90 625 139 562 b 32 249 94 462 32 370 b 284 -15 32 87 143 -15 b 509 79 372 -15 447 12 b 585 -22 544 32 575 -8 z "},"'":{"ha":719,"x_min":0,"x_max":0,"o":"m 254 993 l 254 853 b 273 699 267 806 273 758 b 263 557 273 653 270 594 l 368 545 b 397 993 391 682 397 801 z "},"(":{"ha":719,"x_min":0,"x_max":0,"o":"m 606 899 l 606 1006 b 168 415 313 998 168 776 b 605 -178 168 37 361 -176 l 605 -65 b 277 415 404 -64 277 157 b 600 899 277 673 370 899 z "},")":{"ha":719,"x_min":0,"x_max":0,"o":"m 99 899 l 105 899 b 428 415 335 899 428 673 b 100 -65 428 157 300 -64 l 100 -178 b 536 415 344 -176 536 37 b 99 1006 536 776 391 998 z "},"*":{"ha":719,"x_min":0,"x_max":0,"o":"m 294 467 l 77 562 l 33 464 l 272 368 l 98 146 l 188 75 l 354 323 l 529 75 l 614 150 l 430 368 l 676 471 l 626 565 l 405 466 l 406 755 l 292 755 z "},"+":{"ha":719,"x_min":0,"x_max":0,"o":"m 293 651 l 293 407 l 42 407 l 42 301 l 293 301 l 293 35 l 398 35 l 398 301 l 659 301 l 659 407 l 398 407 l 398 651 z "},",":{"ha":719,"x_min":0,"x_max":0,"o":"m 272 186 l 272 3 l 332 3 b 235 -172 332 -90 298 -138 l 277 -267 b 447 5 390 -215 447 -128 l 447 7 l 442 186 z "},"-":{"ha":719,"x_min":0,"x_max":0,"o":"m 103 407 l 103 301 l 637 301 l 637 407 z "},".":{"ha":719,"x_min":0,"x_max":0,"o":"m 269 182 l 269 0 l 439 0 l 439 182 z "},"/":{"ha":719,"x_min":0,"x_max":0,"o":"m 68 -54 l 168 -96 b 602 936 250 96 508 697 l 501 975 b 103 22 428 781 168 174 b 68 -54 91 -7 72 -45 z "},":":{"ha":719,"x_min":0,"x_max":0,"o":"m 267 692 l 267 509 l 437 509 l 437 692 z m 267 184 l 267 1 l 437 1 l 437 184 z "},";":{"ha":719,"x_min":0,"x_max":0,"o":"m 264 692 l 264 510 l 435 510 l 435 692 z m 267 186 l 267 3 l 326 3 b 230 -172 326 -90 292 -138 l 271 -267 b 441 5 385 -215 441 -128 l 441 7 l 437 186 z "},"<":{"ha":719,"x_min":0,"x_max":0,"o":"m 593 51 b 214 351 530 140 311 282 b 591 624 322 434 481 566 l 559 730 b 500 702 535 723 521 713 b 89 389 410 649 195 476 l 89 307 b 429 54 106 295 365 108 b 508 -20 462 28 492 4 z "},"=":{"ha":719,"x_min":0,"x_max":0,"o":"m 34 237 l 34 128 b 164 132 81 131 123 132 b 267 131 199 132 233 131 b 607 127 391 131 489 127 l 608 237 b 282 242 494 237 404 242 b 34 237 205 242 129 242 z m 33 559 b 31 452 31 525 31 488 b 267 445 129 446 202 445 b 607 450 401 445 476 450 l 607 558 b 269 555 473 558 399 555 l 206 555 b 33 559 157 555 100 555 z "},">":{"ha":719,"x_min":0,"x_max":0,"o":"m 628 401 b 208 730 569 446 280 644 l 128 661 b 174 610 141 640 156 627 b 503 357 252 538 417 418 b 111 74 407 280 230 138 l 157 -20 b 628 321 278 24 563 275 z "},"?":{"ha":719,"x_min":0,"x_max":0,"o":"m 342 907 b 78 667 202 907 78 832 b 131 525 78 610 103 566 l 222 586 b 184 671 204 608 184 639 b 337 802 186 760 253 802 b 467 671 427 802 467 747 b 341 507 467 599 409 567 b 249 322 284 456 249 404 l 249 292 l 368 292 l 368 323 b 441 454 368 379 406 425 b 575 673 494 499 575 566 b 342 907 575 817 499 907 z m 226 183 l 226 0 l 395 0 l 395 183 z "},"@":{"ha":719,"x_min":0,"x_max":0,"o":"m 309 340 b 403 470 309 421 338 470 b 532 427 446 470 499 455 l 532 363 b 385 228 515 323 452 228 b 309 340 340 228 309 269 z m 549 210 b 576 118 553 174 562 142 l 678 161 b 639 325 641 217 639 273 l 639 345 l 639 568 b 373 875 639 709 576 875 b 28 336 168 875 28 679 b 385 -152 28 98 165 -152 b 537 -109 432 -152 483 -137 l 496 -17 b 393 -53 458 -41 425 -53 b 125 340 231 -53 125 131 b 374 772 125 626 224 772 b 532 534 526 772 532 640 b 397 578 495 567 444 578 b 203 333 288 578 203 479 b 385 125 203 220 294 125 b 549 210 471 125 509 167 z "},"A":{"ha":719,"x_min":0,"x_max":0,"o":"m 486 342 l 363 340 b 228 329 307 338 269 338 l 354 741 z m 294 882 l 50 108 b 28 0 41 79 29 19 l 138 0 b 155 82 138 19 148 62 l 195 203 b 515 225 270 222 420 223 l 563 83 b 576 0 568 64 576 16 l 688 0 b 667 117 686 37 674 92 l 410 882 z "},"B":{"ha":719,"x_min":0,"x_max":0,"o":"m 66 558 b 60 2 66 276 60 134 l 152 2 b 344 -3 225 2 286 -3 b 425 2 370 -3 398 -1 b 639 267 538 16 639 114 b 449 520 639 395 554 485 b 507 680 490 558 507 614 b 235 881 507 826 374 881 l 222 881 b 58 871 146 881 113 876 b 66 558 64 785 66 675 z m 401 673 l 401 667 b 368 579 401 627 387 590 b 174 545 307 542 273 547 b 176 690 174 595 176 644 b 173 777 176 722 175 751 b 231 780 193 779 204 780 l 242 780 b 401 673 335 780 401 749 z m 480 392 b 531 277 515 363 531 331 b 396 104 531 180 468 113 b 321 99 372 100 349 99 b 170 104 271 99 243 104 b 173 439 171 155 172 278 l 203 439 b 325 440 252 439 292 440 b 480 392 389 440 431 433 z "},"C":{"ha":719,"x_min":0,"x_max":0,"o":"m 386 781 b 537 666 444 781 496 747 l 629 721 b 388 886 570 829 483 886 b 128 752 269 886 177 824 b 38 422 93 701 38 595 b 159 77 38 271 78 160 b 388 -2 223 15 313 -2 l 390 -2 b 660 180 519 -2 610 75 l 566 232 b 373 102 531 156 473 106 l 363 102 b 233 152 308 102 275 113 b 146 424 167 214 146 313 b 215 692 146 569 184 648 b 386 781 248 737 308 781 z "},"D":{"ha":719,"x_min":0,"x_max":0,"o":"m 210 781 b 481 647 359 781 420 734 b 549 361 525 583 549 469 b 531 235 549 325 542 265 b 287 96 487 113 401 96 b 156 98 246 96 216 96 b 159 587 157 163 159 384 b 159 722 159 633 159 680 b 159 780 159 742 159 763 b 189 781 170 782 178 781 z m 47 85 b 45 -2 45 20 45 20 b 270 -7 123 -2 213 -7 b 379 -2 307 -7 342 -5 b 643 250 501 9 610 90 b 657 385 652 294 657 339 b 568 709 657 505 625 625 b 195 884 485 830 379 884 b 43 876 128 884 98 881 b 52 649 49 817 52 734 l 52 599 b 47 85 52 385 47 121 z "},"E":{"ha":719,"x_min":0,"x_max":0,"o":"m 69 877 l 69 -2 l 532 -2 b 640 18 583 -2 607 9 l 610 119 b 530 101 610 119 568 101 l 174 100 b 176 431 174 152 176 294 l 176 452 l 473 452 l 473 553 l 176 553 l 176 776 l 603 776 l 603 878 l 592 878 b 349 880 542 878 450 880 l 274 880 l 208 880 b 69 877 155 880 107 880 z "},"F":{"ha":719,"x_min":0,"x_max":0,"o":"m 188 -1 b 184 451 188 62 184 369 b 392 453 258 453 320 453 b 482 444 422 453 457 450 l 507 542 l 494 545 b 394 555 494 545 454 555 b 184 553 311 555 266 553 l 184 775 b 467 777 309 776 396 777 l 514 777 b 613 758 581 776 595 767 l 651 857 b 543 880 628 868 595 878 l 79 880 l 79 2 z "},"G":{"ha":719,"x_min":0,"x_max":0,"o":"m 584 497 b 471 498 547 497 509 498 b 267 470 403 498 332 494 l 294 372 b 450 397 355 394 402 397 b 511 397 470 397 490 397 b 560 398 526 397 543 397 b 429 106 560 179 513 125 b 373 100 412 101 393 100 b 123 418 176 100 123 243 b 216 730 123 535 141 666 b 368 780 269 776 311 780 b 565 649 473 780 530 726 l 662 696 b 375 883 611 806 520 880 l 361 883 b 138 804 283 883 206 864 b 14 426 50 718 14 587 b 366 -5 14 190 119 -5 b 469 2 395 -5 438 -5 b 673 410 589 33 673 115 l 673 502 b 584 497 644 499 615 497 z "},"H":{"ha":719,"x_min":0,"x_max":0,"o":"m 149 879 l 41 878 l 41 0 l 150 0 b 149 405 150 123 149 172 b 424 424 229 422 325 424 l 511 424 l 511 0 l 618 0 l 618 876 l 511 876 b 511 527 511 766 511 713 l 357 527 b 149 508 275 527 211 522 z "},"I":{"ha":719,"x_min":0,"x_max":0,"o":"m 103 880 l 107 776 b 286 781 179 780 241 780 l 286 102 l 235 102 b 105 99 197 102 163 102 l 105 -2 b 328 3 210 -2 278 3 b 433 3 368 3 401 3 b 576 -1 476 3 518 3 l 576 101 b 478 104 541 103 509 104 b 395 103 444 104 426 103 l 395 781 b 576 778 460 781 492 778 l 576 881 b 329 883 465 882 400 883 b 103 880 264 883 209 883 z "},"J":{"ha":719,"x_min":0,"x_max":0,"o":"m 281 -5 b 536 435 505 -5 536 195 b 522 777 536 519 532 656 b 647 776 555 777 614 776 l 648 880 b 297 880 543 880 395 880 b 176 865 217 878 196 870 l 201 765 b 298 777 220 769 228 775 b 410 776 323 777 377 776 b 429 447 418 683 429 511 b 279 96 429 222 406 96 b 136 288 176 96 140 186 l 27 289 b 281 -5 28 142 94 -5 z "},"K":{"ha":719,"x_min":0,"x_max":0,"o":"m 328 492 b 660 817 369 541 536 727 l 585 888 b 355 675 570 874 485 808 b 186 477 288 606 240 552 l 186 887 l 79 887 l 79 -3 l 186 -3 l 186 292 b 263 407 206 340 263 407 b 589 -12 351 321 557 62 l 680 40 b 328 492 645 132 410 412 z "},"L":{"ha":719,"x_min":0,"x_max":0,"o":"m 96 -2 l 559 -2 b 668 18 610 -2 636 7 l 640 117 b 558 102 610 107 598 104 l 205 102 l 205 880 l 96 880 z "},"M":{"ha":719,"x_min":0,"x_max":0,"o":"m 40 876 l 42 -3 l 149 -3 l 149 610 b 170 568 159 591 156 597 b 275 368 230 453 269 378 l 357 366 b 494 624 365 390 444 528 l 496 -3 l 602 -3 l 602 876 l 495 876 b 315 515 460 777 372 620 b 251 636 302 541 285 575 b 145 876 204 719 178 774 z "},"N":{"ha":719,"x_min":0,"x_max":0,"o":"m 510 -4 l 618 -3 b 618 110 618 33 618 71 b 616 591 618 266 616 438 b 621 880 616 702 617 803 l 517 880 b 509 513 511 764 509 640 b 511 242 509 422 509 330 b 159 878 431 410 244 753 l 51 880 l 51 -2 l 159 -2 b 158 541 159 101 158 342 l 158 679 b 510 -4 295 439 399 238 z "},"O":{"ha":719,"x_min":0,"x_max":0,"o":"m 342 899 b 115 787 236 897 160 848 b 16 388 68 723 16 622 b 110 88 16 266 49 163 b 334 -9 165 20 251 -9 b 585 145 446 -9 534 47 b 647 423 617 208 647 312 l 647 431 b 342 899 644 849 426 899 z m 180 166 b 123 391 142 216 123 320 b 203 725 123 568 157 665 b 346 795 243 777 281 795 b 492 690 406 795 453 767 b 540 438 528 620 540 516 l 540 425 b 492 197 539 353 519 240 b 334 95 462 140 412 95 b 180 166 260 95 214 122 z "},"P":{"ha":719,"x_min":0,"x_max":0,"o":"m 532 610 b 248 415 532 456 442 415 b 178 416 226 415 203 415 b 179 692 178 416 179 568 l 179 777 b 281 781 210 778 240 781 b 532 610 448 777 532 751 z m 178 -7 b 178 314 178 99 178 136 b 282 312 215 313 250 312 b 595 426 444 312 529 331 b 642 614 636 485 642 553 b 591 781 642 675 628 736 b 267 883 513 874 419 883 b 71 878 176 883 151 878 l 71 -6 z "},"Q":{"ha":719,"x_min":0,"x_max":0,"o":"m 603 -99 b 660 -93 633 -99 645 -96 l 660 7 b 603 1 644 3 628 1 l 595 1 b 513 63 541 3 520 14 b 576 157 535 88 549 112 b 639 460 625 239 639 358 b 577 745 639 536 635 642 b 332 885 524 841 445 885 b 118 780 248 885 181 861 b 34 427 54 697 34 567 b 134 82 34 277 66 153 b 340 -2 188 27 261 -2 b 422 10 367 -2 395 3 b 603 -99 440 -76 525 -99 z m 340 292 b 193 179 292 292 218 269 b 142 469 144 250 142 399 b 330 781 142 667 208 781 b 484 694 399 781 453 746 b 531 469 529 618 531 540 l 531 450 b 484 194 531 339 522 242 b 340 292 467 267 412 292 z m 412 113 b 332 98 384 101 356 98 b 249 126 303 98 269 104 l 249 129 b 331 206 249 173 286 206 b 412 113 387 206 410 180 z "},"R":{"ha":719,"x_min":0,"x_max":0,"o":"m 442 366 b 629 616 562 386 629 467 b 572 772 629 673 605 732 b 205 884 490 874 375 884 b 58 873 164 884 86 876 b 61 755 60 832 61 800 l 61 0 l 168 0 l 168 385 b 321 362 219 376 265 368 b 532 45 359 298 466 118 b 631 -15 555 17 591 -9 l 671 76 b 609 117 642 83 621 106 b 442 366 571 161 495 283 z m 524 607 b 377 462 524 497 472 474 b 344 460 366 460 355 460 b 168 488 288 460 235 475 l 166 779 b 209 780 186 780 191 780 b 485 711 361 780 439 764 b 524 607 513 678 524 644 z "},"S":{"ha":719,"x_min":0,"x_max":0,"o":"m 168 481 b 441 399 258 440 363 433 b 535 258 495 376 535 330 b 345 96 535 161 484 96 b 136 280 193 96 136 172 l 29 280 b 340 -6 29 129 101 0 l 353 -6 b 644 263 516 -6 644 81 b 501 496 644 381 574 461 b 226 574 412 537 286 546 b 157 674 188 593 157 618 b 180 734 157 697 164 717 b 322 779 212 764 253 779 b 509 669 427 779 484 755 l 617 689 b 325 883 591 829 476 881 l 319 883 b 49 671 176 883 49 817 b 168 481 49 572 106 510 z "},"T":{"ha":719,"x_min":0,"x_max":0,"o":"m 273 -6 l 382 -6 l 382 776 l 541 776 b 617 768 575 776 617 768 l 640 871 b 545 881 627 873 594 881 b 26 880 417 881 109 880 l 26 775 b 273 776 78 775 139 776 z "},"U":{"ha":719,"x_min":0,"x_max":0,"o":"m 527 890 b 518 774 520 848 518 822 b 522 476 518 659 522 559 b 469 153 522 342 514 203 b 325 96 432 115 397 99 b 154 298 222 96 166 155 b 149 494 151 338 149 410 b 155 883 149 619 152 771 l 47 883 b 41 528 43 776 41 645 b 46 303 41 437 43 354 b 334 -7 58 106 125 -7 b 550 81 421 -3 494 16 b 629 476 626 168 629 319 l 629 515 b 627 775 629 591 627 677 b 633 882 627 812 627 841 z "},"V":{"ha":719,"x_min":0,"x_max":0,"o":"m 280 -3 l 389 -3 b 670 863 401 133 604 706 l 568 899 b 335 220 499 730 385 433 b 109 908 269 470 177 737 l 5 872 b 280 -3 69 721 264 127 z "},"W":{"ha":719,"x_min":0,"x_max":0,"o":"m 225 0 b 353 416 231 15 321 263 b 474 0 375 291 474 0 l 566 0 b 696 870 589 121 661 700 l 589 892 b 505 203 503 423 527 397 b 408 657 465 329 433 528 b 295 649 385 649 326 649 b 197 202 291 601 244 358 b 109 894 167 412 190 458 l 4 872 b 136 0 35 702 107 115 z "},"X":{"ha":719,"x_min":0,"x_max":0,"o":"m 538 909 l 322 542 b 100 903 252 659 189 804 l 16 840 b 258 444 111 734 176 582 l 19 37 l 109 -21 l 324 345 b 593 -24 427 180 490 75 l 663 52 b 385 446 567 145 501 264 l 629 851 z "},"Y":{"ha":719,"x_min":0,"x_max":0,"o":"m 271 -4 l 379 -4 l 379 85 b 382 299 379 113 380 210 b 384 400 382 336 384 368 b 503 582 397 418 444 493 b 656 856 574 696 624 792 l 562 909 b 334 515 536 850 400 609 b 117 901 275 608 144 848 l 22 852 b 275 408 57 781 222 483 b 271 92 275 327 271 153 z "},"Z":{"ha":719,"x_min":0,"x_max":0,"o":"m 83 -3 l 88 -3 b 384 -2 121 -3 240 -2 l 549 -2 b 656 18 600 -2 625 7 l 629 119 b 509 102 585 104 566 102 l 178 102 l 637 779 b 650 872 640 795 648 850 b 555 883 637 874 606 883 b 60 880 427 883 141 880 l 60 777 b 512 780 138 777 367 780 l 19 56 z "},"[":{"ha":719,"x_min":0,"x_max":0,"o":"m 572 1006 b 502 1002 557 1004 551 1004 b 239 997 467 1002 302 997 l 239 711 b 240 385 239 623 240 503 b 241 120 241 263 241 181 b 240 -179 241 -2 240 -58 b 510 -176 303 -179 470 -176 b 602 -182 558 -176 585 -180 l 602 -72 b 505 -66 593 -70 548 -66 l 496 -66 b 347 -68 484 -66 412 -66 l 347 892 b 594 901 460 895 526 895 z "},"\\":{"ha":719,"x_min":0,"x_max":0,"o":"m 614 -54 b 581 22 610 -45 591 -7 b 182 975 514 174 255 781 l 81 936 b 514 -96 175 697 433 96 z "},"]":{"ha":719,"x_min":0,"x_max":0,"o":"m 135 1006 l 113 901 b 360 892 182 895 247 895 l 360 -68 b 211 -66 295 -66 224 -66 l 202 -66 b 105 -72 159 -66 115 -70 l 105 -182 b 197 -176 122 -180 149 -176 b 467 -179 237 -176 404 -179 b 466 120 467 -58 466 -2 b 467 385 466 181 467 263 b 469 711 467 503 469 623 l 469 997 b 205 1002 406 997 240 1002 b 135 1006 157 1004 151 1004 z "},"^":{"ha":719,"x_min":0,"x_max":0,"o":"m 353 747 l 35 391 l 113 317 l 354 562 l 582 317 l 663 400 z "},"_":{"ha":719,"x_min":0,"x_max":0,"o":"m 673 -227 l 673 -121 l 28 -121 l 28 -227 z "},"`":{"ha":719,"x_min":0,"x_max":0,"o":"m 243 1009 l 145 914 b 492 628 260 789 359 711 l 561 733 b 243 1009 497 758 294 931 z "},"a":{"ha":719,"x_min":0,"x_max":0,"o":"m 159 211 b 332 342 159 291 239 341 b 491 298 402 342 452 322 l 491 234 b 260 99 473 206 402 99 b 159 211 197 99 159 140 z m 597 216 l 597 439 b 328 697 597 592 492 697 b 50 533 206 697 115 656 l 138 477 b 329 595 193 574 235 595 b 491 405 444 595 491 533 b 326 439 454 427 412 439 b 113 357 246 439 178 423 b 53 204 73 316 53 256 b 260 -4 53 92 144 -4 b 515 106 393 -4 463 55 b 604 -7 528 37 568 20 l 660 74 b 606 117 640 90 615 105 b 597 216 597 129 597 192 z "},"b":{"ha":719,"x_min":0,"x_max":0,"o":"m 508 324 b 355 100 508 186 471 100 b 182 208 262 100 231 131 l 182 505 b 321 587 218 539 260 587 b 508 324 432 587 508 516 z m 614 311 b 312 692 614 539 531 692 b 182 644 244 692 215 668 l 182 781 b 173 958 182 843 179 908 l 65 951 b 75 785 70 905 75 848 b 76 181 75 595 76 350 l 76 165 b 63 5 76 109 70 50 l 175 -8 b 182 57 178 14 182 28 b 355 -5 225 19 279 -5 b 614 311 542 -5 614 130 z "},"c":{"ha":719,"x_min":0,"x_max":0,"o":"m 156 357 b 375 587 156 519 225 587 b 511 494 484 587 503 522 l 615 535 b 538 643 600 570 579 611 b 382 690 497 674 447 690 b 48 357 169 690 48 606 b 163 50 48 222 75 118 b 382 -5 229 1 312 -5 b 657 143 572 -5 635 115 l 572 205 b 380 102 536 146 486 102 l 371 102 b 156 357 296 102 156 106 z "},"d":{"ha":719,"x_min":0,"x_max":0,"o":"m 157 324 b 311 589 157 516 200 589 b 481 505 372 589 446 539 l 481 208 b 308 100 433 131 401 100 b 157 324 193 100 157 186 z m 588 181 l 589 781 b 579 957 589 843 585 907 l 471 951 b 481 784 475 905 481 848 l 481 644 b 320 694 448 665 388 694 b 50 311 101 694 50 539 b 308 -5 50 130 121 -5 b 481 57 384 -5 439 19 b 489 -8 482 28 486 14 l 600 5 b 588 163 593 49 588 107 z "},"e":{"ha":719,"x_min":0,"x_max":0,"o":"m 160 393 b 346 589 161 498 231 589 b 518 411 438 589 507 520 b 160 393 422 400 248 394 z m 345 692 b 53 350 153 692 53 544 b 354 -7 53 138 152 -7 b 621 113 515 -7 593 83 l 537 187 b 357 97 511 151 454 97 b 160 290 218 97 160 186 b 625 312 281 291 435 299 b 626 341 626 317 626 328 b 345 692 626 435 601 692 z "},"f":{"ha":719,"x_min":0,"x_max":0,"o":"m 385 859 b 600 779 524 859 566 845 l 686 831 b 380 962 629 944 528 962 b 173 722 192 962 173 819 b 174 692 173 709 174 703 l 76 692 l 76 588 l 173 588 b 175 0 174 488 175 17 l 281 0 b 279 588 281 3 280 484 l 486 588 b 553 579 524 588 538 584 l 572 678 b 463 692 552 684 534 690 b 279 692 414 692 326 692 l 279 719 b 385 859 279 792 286 859 z "},"g":{"ha":719,"x_min":0,"x_max":0,"o":"m 161 -52 b 218 47 161 -9 180 32 b 361 48 317 48 355 48 b 545 -17 444 48 545 41 b 372 -157 545 -130 450 -157 l 301 -157 b 161 -52 212 -157 161 -137 z m 323 378 b 172 481 235 378 172 402 b 334 593 172 543 241 593 b 477 479 420 593 477 566 b 323 378 477 413 410 378 z m 64 474 b 106 357 64 425 83 383 b 56 222 77 325 56 284 b 113 93 56 170 75 121 b 54 -56 76 60 54 12 b 298 -263 54 -197 155 -263 l 368 -263 b 652 -16 534 -263 652 -192 b 407 153 652 113 534 153 b 284 151 389 153 302 151 b 162 231 199 151 162 180 b 191 298 162 259 178 283 b 326 276 235 281 278 276 b 583 481 479 276 583 353 b 563 574 583 514 581 543 b 625 589 574 586 601 589 b 654 586 631 589 646 587 l 654 697 b 506 655 580 697 544 690 b 334 696 462 682 412 696 b 64 474 167 696 64 616 z "},"h":{"ha":719,"x_min":0,"x_max":0,"o":"m 501 391 l 501 141 b 606 -12 501 55 551 19 l 665 68 b 607 151 625 94 607 114 b 608 391 607 227 608 279 l 608 435 b 555 621 608 510 604 563 b 345 692 502 686 427 692 b 183 637 276 692 227 665 l 183 951 l 75 951 b 76 138 75 951 76 480 b 68 5 76 86 74 54 l 176 0 b 182 134 179 31 182 81 l 182 496 b 340 588 203 538 272 588 b 501 391 477 588 501 545 z "},"i":{"ha":719,"x_min":0,"x_max":0,"o":"m 212 954 l 212 801 l 372 801 l 372 954 z m 283 687 b 62 659 212 687 138 676 l 81 562 b 256 581 146 577 223 581 l 256 140 b 319 14 256 100 262 45 b 458 -12 349 -3 401 -12 b 698 56 543 -12 640 8 l 652 134 b 458 84 605 98 521 84 b 362 142 395 84 366 87 b 361 687 362 142 361 502 z "},"j":{"ha":719,"x_min":0,"x_max":0,"o":"m 380 952 l 380 800 l 538 798 l 538 950 z m 425 -77 b 326 -157 424 -101 401 -157 l 314 -157 b 147 -42 271 -157 214 -152 l 62 -109 b 328 -262 147 -248 245 -262 b 531 -80 490 -262 531 -178 l 531 691 l 452 691 b 232 663 381 691 308 680 l 251 566 b 414 586 312 581 347 586 l 425 586 z "},"k":{"ha":719,"x_min":0,"x_max":0,"o":"m 397 384 b 333 393 379 384 358 387 b 199 419 300 400 256 410 l 199 480 b 370 576 249 514 302 545 b 427 591 392 587 411 591 b 498 539 470 591 492 562 b 503 505 502 529 503 517 b 397 384 503 446 466 384 z m 199 597 l 199 877 b 180 968 199 922 186 952 l 77 938 b 92 833 85 910 92 874 l 92 0 l 199 0 b 198 87 199 22 198 54 b 199 318 198 189 199 318 b 470 161 283 309 436 260 b 595 -13 488 108 512 28 l 652 60 b 596 117 630 77 612 91 b 495 308 560 177 562 258 b 604 433 565 341 600 410 b 610 496 608 451 610 474 b 606 552 610 516 608 536 b 421 689 597 633 513 689 b 199 597 349 689 248 630 z "},"l":{"ha":719,"x_min":0,"x_max":0,"o":"m 281 965 b 56 946 211 965 132 964 l 75 849 b 204 861 117 859 165 861 b 254 860 224 861 243 860 l 256 141 b 319 15 256 101 262 47 b 458 -11 349 -1 401 -11 b 698 58 543 -11 640 9 l 652 135 b 458 85 605 100 521 85 b 362 144 395 85 366 88 b 360 965 362 144 360 780 z "},"m":{"ha":719,"x_min":0,"x_max":0,"o":"m 519 696 b 385 595 456 696 414 648 b 281 696 385 642 347 696 b 141 595 231 696 172 649 b 120 710 140 626 130 688 l 18 683 b 39 553 30 650 39 616 l 41 0 l 136 0 l 136 469 b 258 592 178 561 225 592 b 290 547 289 592 290 566 l 290 0 l 386 0 l 386 469 b 496 592 428 561 463 592 b 539 524 536 592 539 548 l 539 515 l 539 131 l 539 130 b 655 -14 539 34 607 -5 l 696 76 b 634 146 669 87 634 112 l 634 501 b 519 696 634 566 617 696 z "},"n":{"ha":719,"x_min":0,"x_max":0,"o":"m 183 629 b 163 705 178 662 170 689 l 54 680 b 76 478 71 616 76 599 l 76 -1 l 183 0 l 183 515 b 391 591 282 563 347 591 b 501 519 435 591 501 569 l 501 138 b 623 -13 501 51 564 16 l 680 63 b 608 143 642 83 608 98 l 608 540 b 406 693 608 641 487 693 b 183 629 331 693 269 673 z "},"o":{"ha":719,"x_min":0,"x_max":0,"o":"m 444 146 b 328 106 410 117 380 106 b 156 318 215 106 156 186 b 339 595 156 484 198 595 b 504 372 459 595 503 496 l 504 359 b 444 146 504 259 488 187 z m 327 1 l 328 1 b 612 368 547 1 612 175 b 572 564 612 433 600 510 b 316 700 524 653 450 700 b 49 315 118 700 49 513 b 327 1 49 125 142 1 z "},"p":{"ha":719,"x_min":0,"x_max":0,"o":"m 517 357 b 328 100 517 165 438 100 b 192 178 266 100 227 143 l 192 473 b 366 582 240 551 273 582 b 517 357 481 582 517 496 z m 86 501 l 85 -99 b 95 -275 85 -161 89 -226 l 203 -269 b 192 -102 198 -223 192 -166 l 192 38 b 318 -5 224 17 250 -5 b 624 370 537 -5 624 142 b 365 687 624 552 551 687 b 192 625 289 687 235 663 b 184 690 191 654 188 669 l 73 677 b 86 517 80 632 86 574 z "},"q":{"ha":719,"x_min":0,"x_max":0,"o":"m 183 357 b 336 582 183 496 220 582 b 509 473 429 582 461 551 l 509 178 b 373 100 474 143 435 100 b 183 357 262 100 183 165 z m 616 517 b 628 677 616 574 621 632 l 517 690 b 509 625 513 669 510 654 b 336 687 467 663 412 687 b 77 370 149 687 77 552 b 382 -5 77 142 163 -5 b 509 38 450 -5 477 17 l 509 -99 b 518 -275 509 -161 512 -226 l 626 -269 b 616 -102 621 -223 616 -166 z "},"r":{"ha":719,"x_min":0,"x_max":0,"o":"m 251 593 b 144 709 226 650 185 676 l 73 614 b 142 518 115 576 142 557 l 142 1 l 248 0 l 248 411 b 471 587 316 562 402 587 b 528 490 533 587 525 545 l 633 490 l 633 494 b 490 695 633 618 603 695 b 251 593 385 695 314 671 z "},"s":{"ha":719,"x_min":0,"x_max":0,"o":"m 182 386 b 444 285 253 349 392 322 b 503 194 481 257 503 237 b 338 83 503 119 422 83 b 186 223 233 83 186 132 l 80 224 b 340 -14 80 78 167 -14 b 458 0 379 -14 420 -9 b 608 191 530 19 608 81 b 250 473 608 383 434 397 b 210 534 223 486 210 501 b 342 597 210 578 270 597 b 513 527 400 597 477 569 l 590 602 b 332 698 534 671 415 698 b 103 531 214 698 104 648 b 182 386 103 456 138 410 z "},"t":{"ha":719,"x_min":0,"x_max":0,"o":"m 243 296 b 253 589 246 364 247 451 b 334 591 284 589 302 591 l 549 591 l 549 691 l 536 691 b 334 690 536 691 432 690 l 251 690 b 252 844 252 736 252 800 l 145 845 b 144 686 145 798 144 734 l 134 686 b 65 678 112 686 81 684 l 79 579 b 134 587 96 584 115 587 l 144 587 b 136 296 140 456 138 367 l 136 267 b 162 109 136 209 138 158 b 418 -4 210 9 293 -4 b 564 25 475 -4 524 2 b 662 150 640 69 655 131 l 576 188 b 521 117 572 175 559 138 b 416 101 504 108 460 101 b 343 103 408 101 355 102 b 243 269 268 111 243 179 z "},"u":{"ha":719,"x_min":0,"x_max":0,"o":"m 614 -7 l 670 73 b 608 162 643 94 610 127 l 608 692 l 501 692 l 501 233 b 397 134 475 174 429 153 b 289 106 362 113 334 108 b 217 118 261 106 227 111 b 183 170 202 129 187 146 b 170 692 182 418 185 630 l 62 674 b 77 145 80 618 75 327 b 153 30 77 90 123 51 b 294 1 194 2 252 1 l 300 1 b 524 107 401 3 467 49 b 614 -7 539 49 576 21 z "},"v":{"ha":719,"x_min":0,"x_max":0,"o":"m 104 711 l 16 646 b 71 569 34 629 65 583 b 249 -2 113 465 249 93 b 416 48 321 -2 378 0 b 618 557 515 170 616 391 b 614 688 618 596 616 677 l 511 686 b 513 620 513 673 513 648 b 512 554 513 597 513 573 b 340 120 508 414 424 217 b 184 576 332 191 214 490 b 104 711 166 627 151 660 z "},"w":{"ha":719,"x_min":0,"x_max":0,"o":"m 4 662 b 56 536 18 637 45 576 b 103 6 93 395 100 77 b 144 -2 115 1 125 -1 l 148 -2 l 152 -2 b 364 142 282 0 339 87 b 403 0 374 100 391 43 l 426 0 l 439 0 b 671 481 583 0 671 149 b 665 692 671 536 669 660 l 559 692 b 576 462 568 644 576 546 b 465 100 576 209 526 100 b 416 353 444 169 416 245 l 416 559 l 321 559 l 321 380 b 198 101 321 205 279 101 b 164 539 193 222 195 375 b 104 713 149 621 127 673 z "},"x":{"ha":719,"x_min":0,"x_max":0,"o":"m 583 585 b 616 692 605 620 612 659 l 509 691 b 486 631 506 680 499 654 b 351 423 438 547 400 482 b 142 720 296 502 227 604 l 54 651 b 278 347 144 533 221 427 b 44 57 172 219 50 64 l 126 -12 b 345 257 136 0 243 125 b 521 29 401 177 472 61 b 602 2 548 10 575 2 b 644 6 616 2 631 4 l 644 110 b 609 106 633 108 621 106 b 572 112 586 106 575 110 b 415 331 559 121 468 261 b 583 585 469 404 549 528 z "},"y":{"ha":719,"x_min":0,"x_max":0,"o":"m 228 -151 b 144 0 174 -151 144 -120 l 38 0 b 231 -255 38 -183 112 -255 b 420 -96 332 -255 385 -188 b 623 578 510 115 578 338 b 632 692 629 612 632 651 l 525 692 b 425 195 519 538 475 342 b 125 687 348 415 238 670 b 50 692 106 690 72 692 l 50 589 b 124 568 74 589 102 588 b 362 46 218 484 298 269 b 228 -151 336 -26 300 -151 z "},"z":{"ha":719,"x_min":0,"x_max":0,"o":"m 65 593 b 270 585 104 587 185 585 b 436 584 329 585 391 584 l 457 584 b 296 419 415 545 361 490 b 63 128 203 318 115 236 b 48 14 49 98 48 63 l 48 0 l 533 0 b 619 -15 577 0 589 -6 l 646 83 b 532 105 605 97 570 105 l 167 106 b 374 355 218 196 291 270 b 612 614 513 499 605 606 l 596 692 l 272 692 b 83 695 188 692 115 692 z "},"{":{"ha":719,"x_min":0,"x_max":0,"o":"m 186 359 b 355 218 269 336 355 309 b 341 147 355 197 351 174 b 305 6 325 103 305 54 b 342 -94 305 -28 315 -62 b 597 -178 406 -167 507 -174 l 600 -71 b 420 12 502 -66 420 -67 b 461 222 420 81 461 144 b 328 414 461 323 393 398 b 461 606 393 429 461 504 b 420 815 461 684 420 747 b 600 899 420 895 502 895 l 597 1006 b 342 921 507 1002 406 994 b 305 821 315 889 305 855 b 341 680 305 773 325 724 b 355 610 351 653 355 630 b 186 468 355 519 269 491 z "},"|":{"ha":719,"x_min":0,"x_max":0,"o":"m 264 103 b 265 -25 264 45 265 7 b 262 -134 265 -62 264 -92 l 371 -134 b 375 50 374 -66 375 -28 l 375 152 b 367 913 375 378 367 726 l 367 1012 l 258 1012 l 258 949 b 264 103 258 753 264 351 z "},"}":{"ha":719,"x_min":0,"x_max":0,"o":"m 531 359 l 531 468 b 362 610 449 491 362 519 b 376 680 362 630 367 653 b 412 821 393 724 412 773 b 375 921 412 855 402 889 b 121 1006 312 994 211 1002 l 117 899 b 298 815 216 895 298 895 b 256 606 298 747 256 684 b 390 414 256 504 325 429 b 256 222 325 398 256 323 b 298 12 256 144 298 81 b 117 -71 298 -67 216 -66 l 121 -178 b 375 -94 211 -174 312 -167 b 412 6 402 -62 412 -28 b 376 147 412 54 393 103 b 362 218 367 174 362 197 b 531 359 362 309 449 336 z "},"~":{"ha":719,"x_min":0,"x_max":0,"o":"m 227 509 b 21 368 121 509 68 459 l 109 306 b 220 404 141 365 182 404 b 477 286 296 404 365 286 b 673 466 615 286 657 406 l 576 507 b 480 390 566 463 539 390 b 227 509 419 390 333 509 z "}," ":{"ha":719,"x_min":0,"x_max":0,"o":""},"¡":{"ha":719,"x_min":0,"x_max":0,"o":"m 282 -203 l 416 -203 l 407 399 l 294 399 z m 436 508 l 437 691 l 267 692 l 267 508 z "},"¢":{"ha":719,"x_min":0,"x_max":0,"o":"m 343 193 b 332 192 339 193 336 192 b 206 349 247 192 206 260 b 238 446 206 404 225 431 b 348 488 263 476 307 488 b 433 448 401 488 426 484 l 436 433 l 543 471 b 396 588 521 533 475 576 l 396 701 l 286 701 l 286 587 b 150 511 237 577 188 554 b 96 340 122 478 96 423 l 96 332 b 191 132 96 241 120 179 b 286 94 221 111 255 100 l 286 -6 l 395 -6 l 395 92 b 568 184 468 100 532 132 l 576 195 l 483 251 l 475 240 b 345 193 458 216 407 193 z "},"£":{"ha":719,"x_min":0,"x_max":0,"o":"m 209 126 b 164 94 198 113 179 94 b 143 132 153 94 144 104 l 143 136 b 159 182 143 157 152 178 b 209 126 174 172 186 146 z m 584 469 l 584 572 b 451 568 546 568 501 568 l 412 568 l 313 566 b 295 713 305 610 295 676 b 388 812 295 757 309 812 l 392 812 b 473 729 447 811 463 771 l 573 758 b 392 916 552 844 492 916 b 188 707 264 916 188 846 b 204 569 188 663 195 617 l 117 569 l 117 466 l 128 466 b 224 465 159 466 189 466 b 250 269 237 399 250 341 b 249 227 250 254 250 240 b 151 288 227 250 191 288 l 145 288 b 111 279 135 288 122 286 b 41 130 62 251 41 199 b 151 -9 41 54 83 -9 b 300 64 210 -9 267 20 b 522 -11 374 17 441 -11 b 675 129 617 -10 672 37 l 675 157 l 569 155 l 569 145 b 504 93 569 104 567 93 b 344 156 444 93 408 115 b 357 261 352 189 357 226 b 332 463 356 336 345 399 l 411 463 b 584 469 477 463 534 463 z "},"¤":{"ha":719,"x_min":0,"x_max":0,"o":"m 466 354 b 359 173 466 250 432 173 b 258 313 286 173 258 220 b 361 503 258 425 290 495 l 371 504 b 466 354 429 498 466 441 z m 146 313 b 163 203 146 273 149 240 l 73 96 l 145 29 l 230 113 b 355 66 262 86 298 67 b 475 108 400 66 441 81 l 560 16 l 640 87 l 542 193 b 576 353 566 239 575 283 b 555 473 576 395 570 434 l 647 574 l 570 642 l 494 565 b 368 611 460 597 425 611 l 357 611 b 241 562 309 609 273 595 l 161 648 l 81 576 l 176 473 b 146 317 159 431 146 377 z "},"¥":{"ha":719,"x_min":0,"x_max":0,"o":"m 273 254 b 271 97 272 191 271 130 l 271 -4 l 379 -4 l 379 87 b 381 254 379 111 380 179 b 613 250 460 253 532 251 l 625 250 l 627 359 l 616 359 b 383 364 533 361 463 363 b 384 408 384 379 384 393 b 416 458 389 416 400 434 b 618 463 480 460 538 463 l 631 463 l 631 571 l 618 571 b 487 569 568 571 526 570 l 503 593 b 656 873 574 709 624 808 l 562 928 b 360 565 539 875 431 677 l 310 565 b 117 919 245 676 140 871 l 22 870 b 185 566 45 823 120 682 b 56 572 149 568 102 570 b 54 509 54 551 54 530 l 54 465 b 250 456 132 460 197 456 b 275 416 260 439 268 426 l 275 365 b 64 360 210 365 148 363 l 53 360 l 53 250 b 197 254 104 253 152 254 z "},"¦":{"ha":719,"x_min":0,"x_max":0,"o":"m 375 358 l 264 358 b 267 80 266 274 267 146 l 267 -20 b 264 -132 267 -61 267 -81 l 373 -132 b 378 105 378 -44 378 -31 b 375 358 378 165 376 283 z m 263 526 l 373 526 b 367 926 370 695 367 825 l 367 1012 l 258 1012 l 258 949 b 263 526 258 840 260 707 z "},"§":{"ha":719,"x_min":0,"x_max":0,"o":"m 460 216 b 216 386 382 271 285 323 b 189 432 199 401 189 418 b 233 490 189 460 192 473 b 473 322 312 434 405 385 b 498 277 490 307 496 292 l 498 266 b 460 216 498 243 493 230 z m 111 705 b 153 570 111 659 129 606 b 81 435 111 538 81 505 b 138 305 81 385 104 341 b 353 149 206 236 288 191 b 466 37 416 108 458 68 b 471 -6 470 20 471 6 b 349 -113 471 -76 412 -111 b 273 -92 315 -113 290 -104 b 239 -20 251 -75 245 -61 l 134 -21 b 350 -218 138 -153 231 -218 b 581 -2 455 -218 581 -151 l 581 4 b 542 134 579 56 566 100 b 609 275 585 167 609 203 b 547 403 609 323 581 369 b 334 561 479 473 396 517 b 216 715 248 621 216 633 b 335 823 216 781 275 821 b 412 802 370 823 395 816 b 445 732 434 783 443 774 l 547 733 b 335 928 545 862 452 928 b 111 705 231 928 111 853 z "},"¨":{"ha":719,"x_min":0,"x_max":0,"o":"m 94 892 l 94 739 l 254 737 l 254 890 z m 370 890 l 370 737 l 529 735 l 529 888 z "},"©":{"ha":719,"x_min":0,"x_max":0,"o":"m 106 402 b 368 683 106 558 223 683 b 624 402 513 683 624 558 b 368 121 624 246 513 121 b 106 402 223 121 106 246 z m 11 402 b 366 26 11 194 170 26 b 721 402 562 26 721 194 b 366 777 721 609 562 777 b 11 402 170 777 11 609 z m 373 506 b 446 461 415 506 427 493 l 528 510 b 375 599 498 572 424 599 b 195 393 267 599 195 515 b 372 202 195 253 290 202 b 537 296 414 202 490 212 l 454 342 b 372 295 435 302 410 295 b 291 394 315 295 291 351 b 373 506 291 457 319 506 z "},"ª":{"ha":719,"x_min":0,"x_max":0,"o":"m 96 458 l 96 362 l 609 362 l 609 458 z m 193 672 b 321 760 193 716 236 760 b 455 716 391 760 431 742 b 260 608 412 642 358 608 b 193 672 216 608 193 633 z m 107 983 l 155 902 b 329 946 204 937 248 946 b 454 809 428 946 454 887 b 307 844 430 827 370 844 b 96 662 204 844 96 789 b 260 511 96 571 163 511 b 477 605 361 511 431 550 b 557 509 500 555 525 529 l 614 589 b 562 636 593 602 570 624 b 551 731 553 648 551 707 l 551 801 b 328 1042 551 945 476 1042 b 107 983 249 1042 173 1025 z "},"«":{"ha":719,"x_min":0,"x_max":0,"o":"m 286 391 l 286 305 b 481 43 391 233 448 153 l 586 79 l 582 91 b 415 350 551 195 498 278 b 597 625 503 429 565 528 l 493 663 b 286 391 466 573 384 458 z m 48 389 l 48 311 b 262 37 155 216 237 138 l 366 74 b 174 351 335 191 260 271 b 378 637 258 425 351 509 l 272 662 b 48 389 256 567 146 477 z "},"¬":{"ha":719,"x_min":0,"x_max":0,"o":"m 100 401 l 104 355 l 104 298 b 335 304 207 303 290 304 b 511 301 420 304 420 303 l 511 118 l 616 118 l 616 406 l 603 406 b 417 407 530 406 473 407 l 336 407 b 100 401 267 407 192 406 z "},"­":{"ha":719,"x_min":0,"x_max":0,"o":"m 100 401 l 104 355 l 104 298 b 335 304 207 303 290 304 b 603 302 420 304 511 304 l 615 302 l 615 406 l 603 406 b 417 407 530 406 473 407 l 336 407 b 100 401 267 407 192 406 z "},"®":{"ha":719,"x_min":0,"x_max":0,"o":"m 438 355 b 528 465 490 372 528 424 b 364 609 528 574 466 609 b 219 594 322 609 273 603 b 222 499 221 561 222 536 l 222 192 l 300 192 l 299 355 b 349 343 299 355 328 346 b 490 186 363 309 428 209 l 538 254 b 438 355 513 260 456 319 z m 448 464 b 378 417 448 445 426 417 b 299 437 357 417 331 423 l 298 519 b 366 524 325 523 347 524 b 448 464 428 524 448 504 z m 106 402 b 368 683 106 558 223 683 b 624 402 513 683 624 558 b 368 121 624 246 513 121 b 106 402 223 121 106 246 z m 11 402 b 366 26 11 194 170 26 b 721 402 562 26 721 194 b 366 777 721 609 562 777 b 11 402 170 777 11 609 z "},"¯":{"ha":719,"x_min":0,"x_max":0,"o":"m 155 909 l 155 804 b 259 802 188 802 223 802 l 314 802 b 451 803 364 802 412 802 l 463 803 l 463 906 l 340 906 b 239 905 305 906 271 905 b 155 909 208 905 179 906 z "},"°":{"ha":719,"x_min":0,"x_max":0,"o":"m 134 743 b 309 568 134 647 212 568 b 484 743 405 568 484 647 b 309 918 484 840 405 918 b 134 743 212 918 134 840 z m 235 743 b 309 817 235 784 268 817 b 382 743 349 817 382 784 b 309 670 382 703 349 670 b 235 743 268 670 235 703 z "},"±":{"ha":719,"x_min":0,"x_max":0,"o":"m 56 557 l 56 456 b 289 447 176 449 216 447 l 289 440 b 288 233 289 368 288 296 b 72 228 205 233 181 231 l 60 228 l 60 126 l 73 126 b 289 130 181 130 199 130 b 629 125 439 130 488 127 l 641 125 l 641 227 l 629 227 b 396 233 517 229 507 231 b 397 439 396 294 397 367 l 397 446 b 629 454 505 450 503 454 l 641 454 l 641 555 l 629 555 b 397 549 501 555 503 551 l 399 794 l 290 795 l 289 550 b 56 557 220 550 173 551 z "},"²":{"ha":719,"x_min":0,"x_max":0,"o":"m 161 891 l 260 867 b 366 939 269 916 296 939 b 456 878 412 939 456 916 b 332 767 456 845 447 824 b 176 667 275 739 199 705 b 153 586 157 637 153 616 b 155 522 153 564 154 543 l 560 522 l 560 621 l 276 618 b 379 690 282 644 330 665 b 552 880 498 752 552 779 b 363 1036 552 984 464 1036 b 161 891 262 1036 177 992 z "},"³":{"ha":719,"x_min":0,"x_max":0,"o":"m 209 669 l 137 601 b 347 513 195 537 248 513 b 556 674 470 513 556 564 b 480 799 556 728 532 771 b 522 901 511 824 522 865 b 352 1038 522 983 456 1038 l 345 1038 b 188 990 275 1038 224 1019 l 254 912 b 350 946 275 933 305 946 b 433 896 404 946 433 924 b 351 827 433 853 408 827 b 323 828 344 827 334 827 l 319 750 b 456 673 408 750 456 726 b 347 607 456 637 427 607 b 209 669 284 607 248 626 z "},"´":{"ha":719,"x_min":0,"x_max":0,"o":"m 150 915 l 195 814 b 518 997 292 846 443 921 l 444 1097 b 150 915 366 1023 247 947 z "},"µ":{"ha":719,"x_min":0,"x_max":0,"o":"m 614 -7 l 670 73 b 608 162 643 94 610 127 l 609 692 l 502 692 l 501 233 b 397 134 475 174 429 153 b 289 106 362 113 334 108 b 217 118 261 106 227 111 b 183 170 202 129 187 146 b 170 692 182 418 185 630 l 62 674 b 77 145 80 618 75 327 l 74 -271 l 180 -271 l 182 15 b 294 1 219 1 261 1 l 300 1 b 524 107 401 3 467 49 b 614 -7 539 49 576 21 z "},"¶":{"ha":719,"x_min":0,"x_max":0,"o":"m 512 706 b 513 -7 512 405 513 220 l 616 -6 l 616 895 b 420 901 536 895 511 901 b 74 796 268 901 152 892 b 24 627 37 751 24 689 b 70 435 24 564 29 495 b 317 321 123 357 203 329 l 318 155 b 290 15 318 58 290 15 l 395 -20 b 423 125 395 -20 423 31 b 421 796 421 347 422 572 b 512 793 457 795 484 793 z "},"·":{"ha":719,"x_min":0,"x_max":0,"o":"m 326 445 l 326 262 l 496 262 l 496 445 z "},"¸":{"ha":719,"x_min":0,"x_max":0,"o":"m 425 38 l 326 35 l 326 -92 b 378 -81 345 -85 346 -81 b 437 -117 411 -81 437 -98 l 437 -119 b 382 -158 435 -144 407 -158 b 298 -130 348 -158 321 -142 l 273 -201 b 404 -243 311 -226 359 -243 b 529 -129 461 -243 529 -197 b 424 -13 529 -58 490 -16 b 425 38 424 -11 424 33 z "},"¹":{"ha":719,"x_min":0,"x_max":0,"o":"m 375 1036 b 141 857 324 945 238 882 l 170 768 b 388 899 255 797 339 845 l 387 522 l 486 522 l 486 1025 z "},"º":{"ha":719,"x_min":0,"x_max":0,"o":"m 491 792 b 341 610 491 652 441 610 b 206 782 240 610 206 682 b 352 938 206 905 269 938 b 491 792 448 938 491 897 z m 340 514 b 587 801 514 514 587 586 b 329 1035 587 943 514 1035 b 110 778 220 1035 110 962 b 340 514 110 614 182 514 z m 96 458 l 96 362 l 609 362 l 609 458 z "},"»":{"ha":719,"x_min":0,"x_max":0,"o":"m 394 301 l 393 387 b 196 648 287 459 229 538 l 91 611 l 95 599 b 264 341 126 495 181 412 b 84 65 176 261 116 162 l 189 27 b 394 301 215 118 296 233 z m 631 305 l 631 383 b 414 655 523 478 441 554 l 311 618 b 505 342 343 501 418 421 b 304 55 421 267 330 183 l 410 30 b 631 305 424 125 534 216 z "},"¼":{"ha":719,"x_min":0,"x_max":0,"o":"m 53 458 l 53 362 l 659 362 l 659 458 z m 399 -14 l 256 -14 b 399 160 296 28 346 87 z m 139 -11 l 174 -108 l 397 -108 l 395 -214 l 496 -214 l 494 -108 l 581 -110 l 581 -9 l 494 -12 l 494 296 l 393 296 b 139 -11 322 197 222 80 z m 375 1036 b 141 857 324 945 238 882 l 170 768 b 388 899 255 797 339 845 l 387 522 l 486 522 l 486 1025 z "},"½":{"ha":719,"x_min":0,"x_max":0,"o":"m 53 458 l 53 362 l 659 362 l 659 458 z m 161 159 l 260 135 b 366 207 269 184 296 207 b 456 146 412 207 456 184 b 332 35 456 113 447 92 b 176 -65 275 6 199 -27 b 153 -146 157 -95 153 -116 b 155 -211 153 -169 154 -189 l 560 -211 l 560 -111 l 276 -115 b 379 -42 282 -89 330 -68 b 552 147 498 20 552 47 b 363 303 552 252 464 303 b 161 159 262 303 177 260 z m 375 1036 b 141 857 324 945 238 882 l 170 768 b 388 899 255 797 339 845 l 387 522 l 486 522 l 486 1025 z "},"¾":{"ha":719,"x_min":0,"x_max":0,"o":"m 53 458 l 53 362 l 659 362 l 659 458 z m 399 -14 l 256 -14 b 399 160 296 28 346 87 z m 139 -11 l 174 -108 l 397 -108 l 395 -214 l 496 -214 l 494 -108 l 581 -110 l 581 -9 l 494 -12 l 494 296 l 393 296 b 139 -11 322 197 222 80 z m 209 669 l 137 601 b 347 513 195 537 248 513 b 556 674 470 513 556 564 b 480 799 556 728 532 771 b 522 901 511 824 522 865 b 352 1038 522 983 456 1038 l 345 1038 b 188 990 275 1038 224 1019 l 254 912 b 350 946 275 933 305 946 b 433 896 404 946 433 924 b 351 827 433 853 408 827 b 323 828 344 827 334 827 l 319 750 b 456 673 408 750 456 726 b 347 607 456 637 427 607 b 209 669 284 607 248 626 z "},"¿":{"ha":719,"x_min":0,"x_max":0,"o":"m 283 -216 b 547 24 423 -216 547 -141 b 494 166 547 81 522 125 l 404 105 b 441 20 421 83 441 52 b 288 -111 439 -69 372 -111 b 159 20 199 -111 159 -56 b 284 184 159 92 216 124 b 376 369 341 235 376 288 l 376 399 l 258 399 l 258 368 b 184 237 258 312 219 267 b 50 18 131 192 50 125 b 283 -216 50 -126 126 -216 z m 399 508 l 399 691 l 230 691 l 230 508 z "},"À":{"ha":719,"x_min":0,"x_max":0,"o":"m 523 995 b 206 1207 426 1027 284 1134 l 123 1108 b 477 895 198 1032 380 926 z m 486 342 l 363 340 b 228 329 307 338 269 338 l 354 741 z m 294 882 l 50 108 b 28 0 41 79 29 19 l 138 0 b 155 82 138 19 148 62 l 195 203 b 515 225 270 222 420 223 l 563 83 b 576 0 568 64 576 16 l 688 0 b 667 117 686 37 674 92 l 410 882 z "},"Á":{"ha":719,"x_min":0,"x_max":0,"o":"m 151 1002 l 197 902 b 551 1116 294 934 475 1040 l 467 1215 b 151 1002 389 1141 248 1035 z m 486 342 l 363 340 b 228 329 307 338 269 338 l 354 741 z m 294 882 l 50 108 b 28 0 41 79 29 19 l 138 0 b 155 82 138 19 148 62 l 195 203 b 515 225 270 222 420 223 l 563 83 b 576 0 568 64 576 16 l 688 0 b 667 117 686 37 674 92 l 410 882 z "},"Â":{"ha":719,"x_min":0,"x_max":0,"o":"m 342 1185 l 93 963 l 163 890 l 340 1040 l 524 890 l 597 963 z m 486 342 l 363 340 b 228 329 307 338 269 338 l 354 741 z m 294 882 l 50 108 b 28 0 41 79 29 19 l 138 0 b 155 82 138 19 148 62 l 195 203 b 515 225 270 222 420 223 l 563 83 b 576 0 568 64 576 16 l 688 0 b 667 117 686 37 674 92 l 410 882 z "},"Ã":{"ha":719,"x_min":0,"x_max":0,"o":"m 250 1108 b 60 977 176 1108 110 1088 l 153 926 b 258 1004 179 998 218 1004 b 460 922 327 1004 366 922 b 651 1077 550 922 629 996 l 551 1112 b 451 1026 541 1053 494 1026 b 250 1108 390 1026 351 1108 z m 486 342 l 363 340 b 228 329 307 338 269 338 l 354 741 z m 294 882 l 50 108 b 28 0 41 79 29 19 l 138 0 b 155 82 138 19 148 62 l 195 203 b 515 225 270 222 420 223 l 563 83 b 576 0 568 64 576 16 l 688 0 b 667 117 686 37 674 92 l 410 882 z "},"Ä":{"ha":719,"x_min":0,"x_max":0,"o":"m 134 1090 l 134 937 l 293 935 l 293 1088 z m 409 1088 l 409 935 l 568 933 l 568 1086 z m 486 342 l 363 340 b 228 329 307 338 269 338 l 354 741 z m 294 882 l 50 108 b 28 0 41 79 29 19 l 138 0 b 155 82 138 19 148 62 l 195 203 b 515 225 270 222 420 223 l 563 83 b 576 0 568 64 576 16 l 688 0 b 667 117 686 37 674 92 l 410 882 z "},"Å":{"ha":719,"x_min":0,"x_max":0,"o":"m 487 336 l 364 334 b 229 322 308 331 270 331 l 355 734 z m 291 981 b 350 1028 291 1005 315 1028 b 408 981 385 1028 408 1005 b 350 932 408 958 385 932 b 291 981 315 932 291 958 z m 203 980 b 288 861 203 926 239 882 l 50 108 b 28 0 41 79 29 19 l 138 0 b 155 82 138 19 148 62 l 195 203 b 515 225 270 222 420 223 l 563 83 b 576 0 568 64 576 16 l 688 0 b 667 117 686 37 674 92 l 417 862 b 497 980 464 884 497 928 b 351 1112 497 1055 429 1112 b 203 980 273 1112 203 1055 z "},"Æ":{"ha":719,"x_min":0,"x_max":0,"o":"m 319 332 b 187 322 234 331 187 322 l 284 742 z m 326 235 l 342 0 l 599 -2 l 603 -2 b 707 18 652 -2 675 9 l 677 119 b 597 101 677 119 635 101 l 432 100 l 404 452 l 594 452 l 594 553 l 391 553 l 373 776 l 648 776 l 648 878 b 420 878 582 878 526 878 b 237 877 354 878 279 878 l 25 108 b 3 0 17 79 4 19 l 113 0 b 130 82 113 19 125 62 l 164 218 b 326 235 164 218 217 232 z "},"Ç":{"ha":719,"x_min":0,"x_max":0,"o":"m 386 797 b 537 680 444 797 496 762 l 629 736 b 388 903 570 846 483 903 b 128 768 269 903 177 841 b 38 431 93 715 38 607 b 159 79 38 277 78 163 b 326 2 206 32 267 10 l 326 -102 b 378 -91 345 -96 346 -91 b 437 -127 411 -91 437 -108 l 437 -129 b 382 -168 435 -155 407 -168 b 298 -140 348 -168 321 -152 l 273 -212 b 404 -253 311 -236 359 -253 b 529 -139 461 -253 529 -208 b 424 -23 529 -68 490 -26 l 424 0 b 660 184 535 12 614 86 l 566 237 b 373 104 531 159 473 108 l 363 104 b 233 155 308 104 275 115 b 146 433 167 218 146 319 b 215 706 146 581 184 661 b 386 797 248 752 308 797 z "},"È":{"ha":719,"x_min":0,"x_max":0,"o":"m 507 1002 b 191 1215 410 1035 269 1141 l 107 1116 b 461 902 182 1040 364 934 z m 69 877 l 69 -2 l 532 -2 b 640 18 583 -2 607 9 l 610 119 b 530 101 610 119 568 101 l 174 100 b 176 431 174 152 176 294 l 176 452 l 473 452 l 473 553 l 176 553 l 176 776 l 603 776 l 603 878 l 592 878 b 349 880 542 878 450 880 l 274 880 l 208 880 b 69 877 155 880 107 880 z "},"É":{"ha":719,"x_min":0,"x_max":0,"o":"m 136 1004 l 182 903 b 536 1117 279 935 460 1041 l 452 1216 b 136 1004 374 1143 233 1036 z m 69 877 l 69 -2 l 532 -2 b 640 18 583 -2 607 9 l 610 119 b 530 101 610 119 568 101 l 174 100 b 176 431 174 152 176 294 l 176 452 l 473 452 l 473 553 l 176 553 l 176 776 l 603 776 l 603 878 l 592 878 b 349 880 542 878 450 880 l 274 880 l 208 880 b 69 877 155 880 107 880 z "},"Ê":{"ha":719,"x_min":0,"x_max":0,"o":"m 338 1210 l 88 987 l 159 915 l 336 1065 l 519 915 l 592 987 z m 69 877 l 69 -2 l 532 -2 b 640 18 583 -2 607 9 l 610 119 b 530 101 610 119 568 101 l 174 100 b 176 431 174 152 176 294 l 176 452 l 473 452 l 473 553 l 176 553 l 176 776 l 603 776 l 603 878 l 592 878 b 349 880 542 878 450 880 l 274 880 l 208 880 b 69 877 155 880 107 880 z "},"Ë":{"ha":719,"x_min":0,"x_max":0,"o":"m 135 1120 l 135 968 l 294 966 l 294 1118 z m 410 1118 l 410 966 l 570 964 l 570 1116 z m 69 877 l 69 -2 l 532 -2 b 640 18 583 -2 607 9 l 610 119 b 530 101 610 119 568 101 l 174 100 b 176 431 174 152 176 294 l 176 452 l 473 452 l 473 553 l 176 553 l 176 776 l 603 776 l 603 878 l 592 878 b 349 880 542 878 450 880 l 274 880 l 208 880 b 69 877 155 880 107 880 z "},"Ì":{"ha":719,"x_min":0,"x_max":0,"o":"m 525 1017 b 208 1230 428 1050 286 1156 l 125 1131 b 479 917 200 1055 382 949 z m 103 880 l 107 776 b 286 781 179 780 241 780 l 286 102 l 235 102 b 105 99 197 102 163 102 l 105 -2 b 328 3 210 -2 278 3 b 433 3 368 3 401 3 b 576 -1 476 3 518 3 l 576 101 b 478 104 541 103 509 104 b 395 103 444 104 426 103 l 395 781 b 576 778 460 781 492 778 l 576 881 b 329 883 465 882 400 883 b 103 880 264 883 209 883 z "},"Í":{"ha":719,"x_min":0,"x_max":0,"o":"m 151 1009 l 197 909 b 551 1122 294 941 475 1046 l 467 1221 b 151 1009 389 1148 248 1042 z m 103 880 l 107 776 b 286 781 179 780 241 780 l 286 102 l 235 102 b 105 99 197 102 163 102 l 105 -2 b 328 3 210 -2 278 3 b 433 3 368 3 401 3 b 576 -1 476 3 518 3 l 576 101 b 478 104 541 103 509 104 b 395 103 444 104 426 103 l 395 781 b 576 778 460 781 492 778 l 576 881 b 329 883 465 882 400 883 b 103 880 264 883 209 883 z "},"Î":{"ha":719,"x_min":0,"x_max":0,"o":"m 333 1208 l 83 985 l 154 913 l 331 1063 l 515 913 l 587 985 z m 103 880 l 107 776 b 286 781 179 780 241 780 l 286 102 l 235 102 b 105 99 197 102 163 102 l 105 -2 b 328 3 210 -2 278 3 b 433 3 368 3 401 3 b 576 -1 476 3 518 3 l 576 101 b 478 104 541 103 509 104 b 395 103 444 104 426 103 l 395 781 b 576 778 460 781 492 778 l 576 881 b 329 883 465 882 400 883 b 103 880 264 883 209 883 z "},"Ï":{"ha":719,"x_min":0,"x_max":0,"o":"m 105 1116 l 105 964 l 264 962 l 264 1114 z m 380 1114 l 380 962 l 540 960 l 540 1112 z m 103 880 l 107 776 b 286 781 179 780 241 780 l 286 102 l 235 102 b 105 99 197 102 163 102 l 105 -2 b 328 3 210 -2 278 3 b 433 3 368 3 401 3 b 576 -1 476 3 518 3 l 576 101 b 478 104 541 103 509 104 b 395 103 444 104 426 103 l 395 781 b 576 778 460 781 492 778 l 576 881 b 329 883 465 882 400 883 b 103 880 264 883 209 883 z "},"Ð":{"ha":719,"x_min":0,"x_max":0,"o":"m 52 625 l 3 625 l 3 524 l 52 524 b 47 87 51 328 47 119 b 45 -2 45 20 45 21 b 270 -7 123 -2 213 -7 b 379 -2 307 -7 342 -5 b 643 255 501 9 610 92 b 657 393 652 300 657 347 b 568 723 657 516 625 637 b 195 903 485 847 379 903 b 43 893 128 903 98 899 b 52 663 49 833 52 750 z m 210 798 b 481 660 359 798 420 749 b 549 369 525 594 549 479 b 531 239 549 332 542 271 b 287 98 487 115 401 98 b 156 100 246 98 216 98 b 159 524 157 158 158 340 l 408 524 l 407 625 l 159 625 b 159 736 159 663 159 701 b 159 795 159 758 159 778 b 189 798 170 798 178 798 z "},"Ñ":{"ha":719,"x_min":0,"x_max":0,"o":"m 243 1120 b 53 989 169 1120 103 1100 l 146 939 b 252 1017 172 1010 212 1017 b 454 935 320 1017 359 935 b 644 1089 543 935 623 1008 l 544 1124 b 444 1038 534 1065 488 1038 b 243 1120 383 1038 344 1120 z m 510 -4 l 618 -3 b 618 110 618 33 618 71 b 616 591 618 266 616 438 b 621 880 616 702 617 803 l 517 880 b 509 513 511 764 509 640 b 511 242 509 422 509 330 b 159 878 431 410 244 753 l 51 880 l 51 -2 l 159 -2 b 158 541 159 101 158 342 l 158 679 b 510 -4 295 439 399 238 z "},"Ò":{"ha":719,"x_min":0,"x_max":0,"o":"m 526 1025 b 209 1238 429 1058 287 1164 l 126 1139 b 480 925 201 1063 383 957 z m 342 899 b 115 787 236 897 160 848 b 16 388 68 723 16 622 b 110 88 16 266 49 163 b 334 -9 165 20 251 -9 b 585 145 446 -9 534 47 b 647 423 617 208 647 312 l 647 431 b 342 899 644 849 426 899 z m 180 166 b 123 391 142 216 123 320 b 203 725 123 568 157 665 b 346 795 243 777 281 795 b 492 690 406 795 453 767 b 540 438 528 620 540 516 l 540 425 b 492 197 539 353 519 240 b 334 95 462 140 412 95 b 180 166 260 95 214 122 z "},"Ó":{"ha":719,"x_min":0,"x_max":0,"o":"m 184 1027 l 230 926 b 584 1140 327 958 509 1064 l 501 1239 b 184 1027 423 1166 281 1059 z m 342 899 b 115 787 236 897 160 848 b 16 388 68 723 16 622 b 110 88 16 266 49 163 b 334 -9 165 20 251 -9 b 585 145 446 -9 534 47 b 647 423 617 208 647 312 l 647 431 b 342 899 644 849 426 899 z m 180 166 b 123 391 142 216 123 320 b 203 725 123 568 157 665 b 346 795 243 777 281 795 b 492 690 406 795 453 767 b 540 438 528 620 540 516 l 540 425 b 492 197 539 353 519 240 b 334 95 462 140 412 95 b 180 166 260 95 214 122 z "},"Ô":{"ha":719,"x_min":0,"x_max":0,"o":"m 339 1212 l 90 989 l 160 917 l 337 1067 l 521 917 l 594 989 z m 342 899 b 115 787 236 897 160 848 b 16 388 68 723 16 622 b 110 88 16 266 49 163 b 334 -9 165 20 251 -9 b 585 145 446 -9 534 47 b 647 423 617 208 647 312 l 647 431 b 342 899 644 849 426 899 z m 180 166 b 123 391 142 216 123 320 b 203 725 123 568 157 665 b 346 795 243 777 281 795 b 492 690 406 795 453 767 b 540 438 528 620 540 516 l 540 425 b 492 197 539 353 519 240 b 334 95 462 140 412 95 b 180 166 260 95 214 122 z "},"Õ":{"ha":719,"x_min":0,"x_max":0,"o":"m 249 1135 b 59 1003 175 1135 109 1114 l 152 953 b 257 1031 178 1025 217 1031 b 459 949 326 1031 365 949 b 650 1103 549 949 628 1022 l 550 1139 b 450 1053 540 1079 493 1053 b 249 1135 389 1053 350 1135 z m 342 899 b 115 787 236 897 160 848 b 16 388 68 723 16 622 b 110 88 16 266 49 163 b 334 -9 165 20 251 -9 b 585 145 446 -9 534 47 b 647 423 617 208 647 312 l 647 431 b 342 899 644 849 426 899 z m 180 166 b 123 391 142 216 123 320 b 203 725 123 568 157 665 b 346 795 243 777 281 795 b 492 690 406 795 453 767 b 540 438 528 620 540 516 l 540 425 b 492 197 539 353 519 240 b 334 95 462 140 412 95 b 180 166 260 95 214 122 z "},"Ö":{"ha":719,"x_min":0,"x_max":0,"o":"m 128 1110 l 128 958 l 287 956 l 287 1108 z m 403 1108 l 403 956 l 563 954 l 563 1106 z m 342 899 b 115 787 236 897 160 848 b 16 388 68 723 16 622 b 110 88 16 266 49 163 b 334 -9 165 20 251 -9 b 585 145 446 -9 534 47 b 647 423 617 208 647 312 l 647 431 b 342 899 644 849 426 899 z m 180 166 b 123 391 142 216 123 320 b 203 725 123 568 157 665 b 346 795 243 777 281 795 b 492 690 406 795 453 767 b 540 438 528 620 540 516 l 540 425 b 492 197 539 353 519 240 b 334 95 462 140 412 95 b 180 166 260 95 214 122 z "},"×":{"ha":719,"x_min":0,"x_max":0,"o":"m 258 354 b 47 122 161 258 87 171 l 126 56 b 335 276 157 90 232 175 b 553 43 446 162 499 113 l 635 109 b 413 349 567 177 534 220 b 635 570 529 463 622 557 l 564 653 b 336 431 553 641 457 547 b 110 659 260 511 184 590 l 43 575 b 258 354 116 507 177 435 z "},"Ø":{"ha":719,"x_min":0,"x_max":0,"o":"m 507 696 b 511 687 508 693 510 690 b 552 432 549 612 552 432 b 504 201 552 358 531 245 b 345 100 473 144 424 100 b 256 118 309 100 280 106 b 507 696 328 283 428 509 z m 175 200 b 136 397 149 255 136 337 b 223 723 136 549 176 661 b 365 795 262 776 300 795 b 427 781 387 795 408 791 b 175 200 352 602 243 357 z m 125 86 b 94 17 114 58 98 25 l 194 -24 b 213 21 200 -11 205 5 b 345 -5 254 3 300 -5 b 597 149 457 -5 546 49 b 659 430 629 213 659 317 l 659 437 b 556 813 658 633 612 747 b 589 894 568 842 579 869 l 488 933 b 467 880 482 917 475 899 b 361 901 427 897 388 901 b 135 787 256 899 180 849 b 28 394 87 721 28 607 b 121 91 28 269 60 167 b 125 86 123 90 124 87 z "},"Ù":{"ha":719,"x_min":0,"x_max":0,"o":"m 522 1019 b 205 1231 425 1051 283 1158 l 122 1132 b 476 918 197 1056 379 950 z m 527 890 b 518 774 520 848 518 822 b 522 476 518 659 522 559 b 469 153 522 342 514 203 b 325 96 432 115 397 99 b 154 298 222 96 166 155 b 149 494 151 338 149 410 b 155 883 149 619 152 771 l 47 883 b 41 528 43 776 41 645 b 46 303 41 437 43 354 b 334 -7 58 106 125 -7 b 550 81 421 -3 494 16 b 629 476 626 168 629 319 l 629 515 b 627 775 629 591 627 677 b 633 882 627 812 627 841 z "},"Ú":{"ha":719,"x_min":0,"x_max":0,"o":"m 176 1006 l 222 906 b 576 1120 319 938 501 1044 l 493 1219 b 176 1006 415 1145 273 1039 z m 527 890 b 518 774 520 848 518 822 b 522 476 518 659 522 559 b 469 153 522 342 514 203 b 325 96 432 115 397 99 b 154 298 222 96 166 155 b 149 494 151 338 149 410 b 155 883 149 619 152 771 l 47 883 b 41 528 43 776 41 645 b 46 303 41 437 43 354 b 334 -7 58 106 125 -7 b 550 81 421 -3 494 16 b 629 476 626 168 629 319 l 629 515 b 627 775 629 591 627 677 b 633 882 627 812 627 841 z "},"Û":{"ha":719,"x_min":0,"x_max":0,"o":"m 346 1220 l 96 998 l 167 925 l 344 1075 l 528 925 l 600 998 z m 527 890 b 518 774 520 848 518 822 b 522 476 518 659 522 559 b 469 153 522 342 514 203 b 325 96 432 115 397 99 b 154 298 222 96 166 155 b 149 494 151 338 149 410 b 155 883 149 619 152 771 l 47 883 b 41 528 43 776 41 645 b 46 303 41 437 43 354 b 334 -7 58 106 125 -7 b 550 81 421 -3 494 16 b 629 476 626 168 629 319 l 629 515 b 627 775 629 591 627 677 b 633 882 627 812 627 841 z "},"Ü":{"ha":719,"x_min":0,"x_max":0,"o":"m 124 1120 l 124 968 l 283 966 l 283 1118 z m 399 1118 l 399 966 l 559 964 l 559 1116 z m 527 890 b 518 774 520 848 518 822 b 522 476 518 659 522 559 b 469 153 522 342 514 203 b 325 96 432 115 397 99 b 154 298 222 96 166 155 b 149 494 151 338 149 410 b 155 883 149 619 152 771 l 47 883 b 41 528 43 776 41 645 b 46 303 41 437 43 354 b 334 -7 58 106 125 -7 b 550 81 421 -3 494 16 b 629 476 626 168 629 319 l 629 515 b 627 775 629 591 627 677 b 633 882 627 812 627 841 z "},"Ý":{"ha":719,"x_min":0,"x_max":0,"o":"m 156 1015 l 202 914 b 556 1128 299 946 481 1052 l 473 1227 b 156 1015 395 1154 253 1047 z m 271 -4 l 379 -4 l 379 85 b 382 299 379 113 380 210 b 384 400 382 336 384 368 b 503 582 397 418 444 493 b 656 856 574 696 624 792 l 562 909 b 334 515 536 850 400 609 b 117 901 275 608 144 848 l 22 852 b 275 408 57 781 222 483 b 271 92 275 327 271 153 z "},"Þ":{"ha":719,"x_min":0,"x_max":0,"o":"m 532 543 b 248 415 532 429 442 415 b 178 416 226 415 203 415 b 179 595 178 416 179 471 l 179 681 b 281 684 210 682 240 684 b 532 543 467 684 532 635 z m 178 -7 b 178 314 178 99 178 136 b 282 312 215 313 250 312 b 642 518 435 312 642 328 b 591 684 642 579 628 640 b 267 787 513 777 419 787 b 179 785 230 787 203 786 l 179 880 b 71 878 146 878 117 878 l 71 -6 z "},"ß":{"ha":719,"x_min":0,"x_max":0,"o":"m 54 680 b 60 304 54 562 60 431 b 60 152 60 229 60 152 b 45 77 60 95 52 83 b 18 59 38 68 28 64 l 77 -25 b 155 75 115 -6 150 20 b 161 305 160 141 161 221 b 158 673 161 432 158 568 b 264 798 158 734 199 797 b 408 682 357 798 408 758 b 199 557 408 557 311 557 l 199 454 b 536 268 394 454 536 445 b 423 102 536 177 515 102 b 302 218 322 102 304 130 l 197 218 b 197 201 197 212 197 207 b 423 -1 197 64 296 -1 b 640 258 572 -1 640 116 b 454 528 640 406 574 495 b 511 686 492 564 511 616 b 264 901 511 836 402 901 b 54 680 130 901 54 786 z "},"à":{"ha":719,"x_min":0,"x_max":0,"o":"m 491 822 b 174 1034 394 854 252 961 l 91 935 b 445 722 166 859 348 753 z m 159 211 b 332 342 159 291 239 341 b 491 298 402 342 452 322 l 491 234 b 260 99 473 206 402 99 b 159 211 197 99 159 140 z m 597 216 l 597 439 b 328 697 597 592 492 697 b 50 533 206 697 115 656 l 138 477 b 329 595 193 574 235 595 b 491 405 444 595 491 533 b 326 439 454 427 412 439 b 113 357 246 439 178 423 b 53 204 73 316 53 256 b 260 -4 53 92 144 -4 b 515 106 393 -4 463 55 b 604 -7 528 37 568 20 l 660 74 b 606 117 640 90 615 105 b 597 216 597 129 597 192 z "},"á":{"ha":719,"x_min":0,"x_max":0,"o":"m 145 822 l 191 722 b 545 935 288 753 470 859 l 462 1034 b 145 822 384 961 242 854 z m 159 211 b 332 342 159 291 239 341 b 491 298 402 342 452 322 l 491 234 b 260 99 473 206 402 99 b 159 211 197 99 159 140 z m 597 216 l 597 439 b 328 697 597 592 492 697 b 50 533 206 697 115 656 l 138 477 b 329 595 193 574 235 595 b 491 405 444 595 491 533 b 326 439 454 427 412 439 b 113 357 246 439 178 423 b 53 204 73 316 53 256 b 260 -4 53 92 144 -4 b 515 106 393 -4 463 55 b 604 -7 528 37 568 20 l 660 74 b 606 117 640 90 615 105 b 597 216 597 129 597 192 z "},"â":{"ha":719,"x_min":0,"x_max":0,"o":"m 307 1017 l 58 794 l 128 722 l 305 871 l 489 722 l 562 794 z m 159 211 b 332 342 159 291 239 341 b 491 298 402 342 452 322 l 491 234 b 260 99 473 206 402 99 b 159 211 197 99 159 140 z m 597 216 l 597 439 b 328 697 597 592 492 697 b 50 533 206 697 115 656 l 138 477 b 329 595 193 574 235 595 b 491 405 444 595 491 533 b 326 439 454 427 412 439 b 113 357 246 439 178 423 b 53 204 73 316 53 256 b 260 -4 53 92 144 -4 b 515 106 393 -4 463 55 b 604 -7 528 37 568 20 l 660 74 b 606 117 640 90 615 105 b 597 216 597 129 597 192 z "},"ã":{"ha":719,"x_min":0,"x_max":0,"o":"m 217 925 b 26 793 142 925 77 905 l 120 743 b 225 821 146 815 185 821 b 427 739 294 821 332 739 b 618 894 517 739 596 812 l 517 929 b 418 843 508 869 461 843 b 217 925 357 843 317 925 z m 159 211 b 332 342 159 291 239 341 b 491 298 402 342 452 322 l 491 234 b 260 99 473 206 402 99 b 159 211 197 99 159 140 z m 597 216 l 597 439 b 328 697 597 592 492 697 b 50 533 206 697 115 656 l 138 477 b 329 595 193 574 235 595 b 491 405 444 595 491 533 b 326 439 454 427 412 439 b 113 357 246 439 178 423 b 53 204 73 316 53 256 b 260 -4 53 92 144 -4 b 515 106 393 -4 463 55 b 604 -7 528 37 568 20 l 660 74 b 606 117 640 90 615 105 b 597 216 597 129 597 192 z "},"ä":{"ha":719,"x_min":0,"x_max":0,"o":"m 104 954 l 104 801 l 263 799 l 263 951 z m 379 951 l 379 799 l 538 797 l 538 949 z m 159 211 b 332 342 159 291 239 341 b 491 298 402 342 452 322 l 491 234 b 260 99 473 206 402 99 b 159 211 197 99 159 140 z m 597 216 l 597 439 b 328 697 597 592 492 697 b 50 533 206 697 115 656 l 138 477 b 329 595 193 574 235 595 b 491 405 444 595 491 533 b 326 439 454 427 412 439 b 113 357 246 439 178 423 b 53 204 73 316 53 256 b 260 -4 53 92 144 -4 b 515 106 393 -4 463 55 b 604 -7 528 37 568 20 l 660 74 b 606 117 640 90 615 105 b 597 216 597 129 597 192 z "},"å":{"ha":719,"x_min":0,"x_max":0,"o":"m 266 871 b 325 918 266 895 290 918 b 383 871 360 918 383 895 b 325 823 383 848 360 823 b 266 871 291 823 266 848 z m 179 870 b 326 738 179 795 248 738 b 472 870 404 738 472 795 b 326 1002 472 945 404 1002 b 179 870 248 1002 179 945 z m 159 211 b 332 342 159 291 239 341 b 491 298 402 342 452 322 l 491 234 b 260 99 473 206 402 99 b 159 211 197 99 159 140 z m 597 216 l 597 439 b 328 697 597 592 492 697 b 50 533 206 697 115 656 l 138 477 b 329 595 193 574 235 595 b 491 405 444 595 491 533 b 326 439 454 427 412 439 b 113 357 246 439 178 423 b 53 204 73 316 53 256 b 260 -4 53 92 144 -4 b 515 106 393 -4 463 55 b 604 -7 528 37 568 20 l 660 74 b 606 117 640 90 615 105 b 597 216 597 129 597 192 z "},"æ":{"ha":719,"x_min":0,"x_max":0,"o":"m 120 220 b 205 345 120 288 152 345 b 299 321 241 345 270 338 l 299 222 b 204 110 291 172 265 110 b 120 220 148 110 120 146 z m 403 417 b 497 589 403 527 410 589 b 559 422 545 589 559 494 b 403 417 503 422 463 421 z m 342 66 b 484 3 380 26 429 3 b 670 115 536 3 607 30 l 597 183 b 497 109 572 147 537 109 b 403 149 454 109 420 130 l 403 315 l 662 322 b 491 694 662 457 656 694 b 348 616 408 694 376 658 b 314 656 340 629 327 646 b 203 694 273 688 241 694 b 18 573 120 694 76 664 l 11 561 l 90 511 l 97 520 b 197 590 142 588 162 590 l 203 590 b 299 427 284 590 299 492 b 197 448 273 437 250 448 b 16 210 59 448 16 323 b 88 39 16 143 33 77 b 212 3 125 13 169 3 b 342 66 281 3 322 43 z "},"ç":{"ha":719,"x_min":0,"x_max":0,"o":"m 156 357 b 375 587 156 519 225 587 b 511 494 484 587 503 522 l 615 535 b 538 643 600 570 579 611 b 382 690 497 674 447 690 b 48 357 169 690 48 606 b 163 50 48 222 75 118 b 326 -3 212 14 270 1 l 326 -92 b 378 -81 345 -85 346 -81 b 437 -117 411 -81 437 -98 l 437 -119 b 382 -158 435 -144 407 -158 b 298 -130 348 -158 321 -142 l 273 -201 b 404 -243 311 -226 359 -243 b 529 -129 461 -243 529 -197 b 424 -13 529 -58 490 -16 l 424 -3 b 657 143 581 13 637 117 l 572 205 b 380 102 536 146 486 102 l 371 102 b 156 357 296 102 156 106 z "},"è":{"ha":719,"x_min":0,"x_max":0,"o":"m 532 823 b 216 1035 435 856 294 962 l 132 936 b 486 723 208 860 389 754 z m 160 393 b 346 589 161 498 231 589 b 518 411 438 589 507 520 b 160 393 422 400 248 394 z m 345 692 b 53 350 153 692 53 544 b 354 -7 53 138 152 -7 b 621 113 515 -7 593 83 l 537 187 b 357 97 511 151 454 97 b 160 290 218 97 160 186 b 625 312 281 291 435 299 b 626 341 626 317 626 328 b 345 692 626 435 601 692 z "},"é":{"ha":719,"x_min":0,"x_max":0,"o":"m 163 819 l 209 719 b 563 932 306 751 488 857 l 479 1031 b 163 819 401 958 260 852 z m 160 393 b 346 589 161 498 231 589 b 518 411 438 589 507 520 b 160 393 422 400 248 394 z m 345 692 b 53 350 153 692 53 544 b 354 -7 53 138 152 -7 b 621 113 515 -7 593 83 l 537 187 b 357 97 511 151 454 97 b 160 290 218 97 160 186 b 625 312 281 291 435 299 b 626 341 626 317 626 328 b 345 692 626 435 601 692 z "},"ê":{"ha":719,"x_min":0,"x_max":0,"o":"m 337 1015 l 87 792 l 158 720 l 335 869 l 519 720 l 591 792 z m 160 393 b 346 589 161 498 231 589 b 518 411 438 589 507 520 b 160 393 422 400 248 394 z m 345 692 b 53 350 153 692 53 544 b 354 -7 53 138 152 -7 b 621 113 515 -7 593 83 l 537 187 b 357 97 511 151 454 97 b 160 290 218 97 160 186 b 625 312 281 291 435 299 b 626 341 626 317 626 328 b 345 692 626 435 601 692 z "},"ë":{"ha":719,"x_min":0,"x_max":0,"o":"m 136 951 l 136 799 l 296 797 l 296 949 z m 412 949 l 412 797 l 571 795 l 571 947 z m 160 393 b 346 589 161 498 231 589 b 518 411 438 589 507 520 b 160 393 422 400 248 394 z m 345 692 b 53 350 153 692 53 544 b 354 -7 53 138 152 -7 b 621 113 515 -7 593 83 l 537 187 b 357 97 511 151 454 97 b 160 290 218 97 160 186 b 625 312 281 291 435 299 b 626 341 626 317 626 328 b 345 692 626 435 601 692 z "},"ì":{"ha":719,"x_min":0,"x_max":0,"o":"m 454 850 b 138 1063 357 883 216 989 l 54 964 b 408 750 130 888 311 782 z m 283 687 b 62 659 212 687 138 676 l 81 562 b 256 581 146 577 223 581 l 256 140 b 319 14 256 100 262 45 b 458 -12 349 -3 401 -12 b 698 56 543 -12 640 8 l 652 134 b 458 84 605 98 521 84 b 362 142 395 84 366 87 b 361 687 362 142 361 502 z "},"í":{"ha":719,"x_min":0,"x_max":0,"o":"m 159 826 l 205 726 b 559 939 302 758 484 863 l 475 1038 b 159 826 397 965 256 859 z m 283 687 b 62 659 212 687 138 676 l 81 562 b 256 581 146 577 223 581 l 256 140 b 319 14 256 100 262 45 b 458 -12 349 -3 401 -12 b 698 56 543 -12 640 8 l 652 134 b 458 84 605 98 521 84 b 362 142 395 84 366 87 b 361 687 362 142 361 502 z "},"î":{"ha":719,"x_min":0,"x_max":0,"o":"m 315 1019 l 65 796 l 136 724 l 313 873 l 496 724 l 569 796 z m 283 687 b 62 659 212 687 138 676 l 81 562 b 256 581 146 577 223 581 l 256 140 b 319 14 256 100 262 45 b 458 -12 349 -3 401 -12 b 698 56 543 -12 640 8 l 652 134 b 458 84 605 98 521 84 b 362 142 395 84 366 87 b 361 687 362 142 361 502 z "},"ï":{"ha":719,"x_min":0,"x_max":0,"o":"m 85 954 l 85 801 l 244 799 l 244 951 z m 360 951 l 360 799 l 519 797 l 519 949 z m 283 687 b 62 659 212 687 138 676 l 81 562 b 256 581 146 577 223 581 l 256 140 b 319 14 256 100 262 45 b 458 -12 349 -3 401 -12 b 698 56 543 -12 640 8 l 652 134 b 458 84 605 98 521 84 b 362 142 395 84 366 87 b 361 687 362 142 361 502 z "},"ð":{"ha":719,"x_min":0,"x_max":0,"o":"m 408 586 b 505 367 468 522 505 452 b 444 146 505 271 490 189 b 328 106 410 117 380 106 b 156 342 215 106 156 210 b 408 586 156 474 195 586 z m 409 791 l 522 819 l 500 911 l 352 876 b 294 968 333 905 314 935 l 187 909 b 229 846 191 902 208 878 l 125 822 l 147 730 l 286 762 b 337 690 310 729 330 701 b 49 338 87 674 49 468 b 327 1 49 149 142 1 l 328 1 b 612 366 547 1 612 189 b 409 791 612 524 529 619 z "},"ñ":{"ha":719,"x_min":0,"x_max":0,"o":"m 249 951 b 59 819 175 951 109 930 l 152 769 b 257 847 178 841 217 847 b 459 765 326 847 365 765 b 650 920 549 765 628 838 l 550 955 b 450 869 540 895 493 869 b 249 951 389 869 350 951 z m 183 629 b 163 705 178 662 170 689 l 54 680 b 76 478 71 616 76 599 l 76 -1 l 183 0 l 183 515 b 391 591 282 563 347 591 b 501 519 435 591 501 569 l 501 138 b 623 -13 501 51 564 16 l 680 63 b 608 143 642 83 608 98 l 608 540 b 406 693 608 641 487 693 b 183 629 331 693 269 673 z "},"ò":{"ha":719,"x_min":0,"x_max":0,"o":"m 473 823 b 157 1036 376 856 235 962 l 73 937 b 427 723 149 861 330 755 z m 444 146 b 328 106 410 117 380 106 b 156 318 215 106 156 186 b 339 595 156 484 198 595 b 504 372 459 595 503 496 l 504 359 b 444 146 504 259 488 187 z m 327 1 l 328 1 b 612 368 547 1 612 175 b 572 564 612 433 600 510 b 316 700 524 653 450 700 b 49 315 118 700 49 513 b 327 1 49 125 142 1 z "},"ó":{"ha":719,"x_min":0,"x_max":0,"o":"m 164 823 l 210 723 b 564 937 307 755 489 861 l 481 1036 b 164 823 403 962 261 856 z m 444 146 b 328 106 410 117 380 106 b 156 318 215 106 156 186 b 339 595 156 484 198 595 b 504 372 459 595 503 496 l 504 359 b 444 146 504 259 488 187 z m 327 1 l 328 1 b 612 368 547 1 612 175 b 572 564 612 433 600 510 b 316 700 524 653 450 700 b 49 315 118 700 49 513 b 327 1 49 125 142 1 z "},"ô":{"ha":719,"x_min":0,"x_max":0,"o":"m 334 1013 l 85 790 l 155 718 l 332 867 l 516 718 l 589 790 z m 444 146 b 328 106 410 117 380 106 b 156 318 215 106 156 186 b 339 595 156 484 198 595 b 504 372 459 595 503 496 l 504 359 b 444 146 504 259 488 187 z m 327 1 l 328 1 b 612 368 547 1 612 175 b 572 564 612 433 600 510 b 316 700 524 653 450 700 b 49 315 118 700 49 513 b 327 1 49 125 142 1 z "},"õ":{"ha":719,"x_min":0,"x_max":0,"o":"m 236 931 b 45 800 161 931 96 911 l 139 749 b 244 827 165 821 204 827 b 446 745 313 827 351 745 b 637 900 536 745 615 819 l 536 935 b 437 849 527 876 480 849 b 236 931 376 849 336 931 z m 444 146 b 328 106 410 117 380 106 b 156 318 215 106 156 186 b 339 595 156 484 198 595 b 504 372 459 595 503 496 l 504 359 b 444 146 504 259 488 187 z m 327 1 l 328 1 b 612 368 547 1 612 175 b 572 564 612 433 600 510 b 316 700 524 653 450 700 b 49 315 118 700 49 513 b 327 1 49 125 142 1 z "},"ö":{"ha":719,"x_min":0,"x_max":0,"o":"m 125 951 l 125 799 l 285 797 l 285 949 z m 401 949 l 401 797 l 560 795 l 560 947 z m 444 146 b 328 106 410 117 380 106 b 156 318 215 106 156 186 b 339 595 156 484 198 595 b 504 372 459 595 503 496 l 504 359 b 444 146 504 259 488 187 z m 327 1 l 328 1 b 612 368 547 1 612 175 b 572 564 612 433 600 510 b 316 700 524 653 450 700 b 49 315 118 700 49 513 b 327 1 49 125 142 1 z "},"÷":{"ha":719,"x_min":0,"x_max":0,"o":"m 68 296 b 309 301 172 299 257 301 b 589 296 401 301 445 298 l 602 296 l 602 403 l 591 403 b 311 407 448 405 404 407 b 65 403 258 407 173 406 z m 241 175 l 241 -8 l 410 -8 l 410 175 z m 239 696 l 239 513 l 410 513 l 410 696 z "},"ø":{"ha":719,"x_min":0,"x_max":0,"o":"m 163 241 b 156 318 158 264 156 290 b 339 595 156 484 198 595 b 444 557 385 595 419 581 z m 580 545 l 673 648 l 592 724 l 515 637 b 316 700 469 679 406 700 b 49 315 118 700 49 513 b 81 148 49 251 60 195 l 7 64 l 82 -6 l 144 62 b 327 1 189 22 250 1 l 328 1 b 612 368 547 1 612 175 b 580 545 612 427 602 493 z m 444 146 b 328 106 410 117 380 106 b 217 144 282 106 245 119 l 496 452 b 504 372 502 427 504 400 l 504 359 b 444 146 504 259 488 187 z "},"ù":{"ha":719,"x_min":0,"x_max":0,"o":"m 458 822 b 142 1034 361 854 220 961 l 58 935 b 412 722 134 859 315 753 z m 614 -7 l 670 73 b 608 162 643 94 610 127 l 608 692 l 501 692 l 501 233 b 397 134 475 174 429 153 b 289 106 362 113 334 108 b 217 118 261 106 227 111 b 183 170 202 129 187 146 b 170 692 182 418 185 630 l 62 674 b 77 145 80 618 75 327 b 153 30 77 90 123 51 b 294 1 194 2 252 1 l 300 1 b 524 107 401 3 467 49 b 614 -7 539 49 576 21 z "},"ú":{"ha":719,"x_min":0,"x_max":0,"o":"m 195 823 l 241 723 b 595 937 338 755 520 861 l 512 1036 b 195 823 434 962 292 856 z m 614 -7 l 670 73 b 608 162 643 94 610 127 l 608 692 l 501 692 l 501 233 b 397 134 475 174 429 153 b 289 106 362 113 334 108 b 217 118 261 106 227 111 b 183 170 202 129 187 146 b 170 692 182 418 185 630 l 62 674 b 77 145 80 618 75 327 b 153 30 77 90 123 51 b 294 1 194 2 252 1 l 300 1 b 524 107 401 3 467 49 b 614 -7 539 49 576 21 z "},"û":{"ha":719,"x_min":0,"x_max":0,"o":"m 337 1019 l 87 796 l 158 724 l 335 873 l 519 724 l 591 796 z m 614 -7 l 670 73 b 608 162 643 94 610 127 l 608 692 l 501 692 l 501 233 b 397 134 475 174 429 153 b 289 106 362 113 334 108 b 217 118 261 106 227 111 b 183 170 202 129 187 146 b 170 692 182 418 185 630 l 62 674 b 77 145 80 618 75 327 b 153 30 77 90 123 51 b 294 1 194 2 252 1 l 300 1 b 524 107 401 3 467 49 b 614 -7 539 49 576 21 z "},"ü":{"ha":719,"x_min":0,"x_max":0,"o":"m 134 956 l 134 803 l 293 801 l 293 954 z m 409 954 l 409 801 l 568 799 l 568 951 z m 614 -7 l 670 73 b 608 162 643 94 610 127 l 608 692 l 501 692 l 501 233 b 397 134 475 174 429 153 b 289 106 362 113 334 108 b 217 118 261 106 227 111 b 183 170 202 129 187 146 b 170 692 182 418 185 630 l 62 674 b 77 145 80 618 75 327 b 153 30 77 90 123 51 b 294 1 194 2 252 1 l 300 1 b 524 107 401 3 467 49 b 614 -7 539 49 576 21 z "},"ý":{"ha":719,"x_min":0,"x_max":0,"o":"m 196 823 l 242 723 b 596 937 339 755 521 861 l 513 1036 b 196 823 435 962 293 856 z m 228 -151 b 144 0 174 -151 144 -120 l 38 0 b 231 -255 38 -183 112 -255 b 420 -96 332 -255 385 -188 b 623 578 510 115 578 338 b 632 692 629 612 632 651 l 525 692 b 425 195 519 538 475 342 b 125 687 348 415 238 670 b 50 692 106 690 72 692 l 50 589 b 124 568 74 589 102 588 b 362 46 218 484 298 269 b 228 -151 336 -26 300 -151 z "},"þ":{"ha":719,"x_min":0,"x_max":0,"o":"m 512 357 b 322 100 512 165 433 100 b 186 178 260 100 222 143 l 186 473 b 360 582 235 551 267 582 b 512 357 475 582 512 496 z m 81 501 l 80 -99 b 90 -275 80 -161 83 -226 l 197 -269 b 186 -102 193 -223 186 -166 l 186 38 b 313 -5 219 17 245 -5 b 618 370 532 -5 618 142 b 359 687 618 552 546 687 b 186 625 283 687 229 663 l 186 831 b 179 892 186 854 180 887 l 68 879 b 81 758 75 850 81 805 z "},"ÿ":{"ha":719,"x_min":0,"x_max":0,"o":"m 128 951 l 128 798 l 288 796 l 288 949 z m 404 949 l 404 796 l 563 794 l 563 947 z m 228 -151 b 144 0 174 -151 144 -120 l 38 0 b 231 -255 38 -183 112 -255 b 420 -96 332 -255 385 -188 b 623 578 510 115 578 338 b 632 692 629 612 632 651 l 525 692 b 425 195 519 538 475 342 b 125 687 348 415 238 670 b 50 692 106 690 72 692 l 50 589 b 124 568 74 589 102 588 b 362 46 218 484 298 269 b 228 -151 336 -26 300 -151 z "},"Ā":{"ha":719,"x_min":0,"x_max":0,"o":"m 509 1044 l 497 1044 l 386 1044 b 214 1045 323 1044 258 1044 l 201 1046 l 201 941 l 213 941 b 360 939 259 939 310 939 b 497 941 410 939 458 939 l 509 941 z m 486 342 l 363 340 b 228 329 307 338 269 338 l 354 741 z m 294 882 l 50 108 b 28 0 41 79 29 19 l 138 0 b 155 82 138 19 148 62 l 195 203 b 515 225 270 222 420 223 l 563 83 b 576 0 568 64 576 16 l 688 0 b 667 117 686 37 674 92 l 410 882 z "},"ā":{"ha":719,"x_min":0,"x_max":0,"o":"m 470 906 l 458 906 l 347 906 b 175 907 285 906 219 906 l 162 909 l 162 804 l 174 803 b 321 802 220 802 271 802 b 458 803 372 802 419 802 l 470 803 z m 159 211 b 332 342 159 291 239 341 b 491 298 402 342 452 322 l 491 234 b 260 99 473 206 402 99 b 159 211 197 99 159 140 z m 597 216 l 597 439 b 328 697 597 592 492 697 b 50 533 206 697 115 656 l 138 477 b 329 595 193 574 235 595 b 491 405 444 595 491 533 b 326 439 454 427 412 439 b 113 357 246 439 178 423 b 53 204 73 316 53 256 b 260 -4 53 92 144 -4 b 515 106 393 -4 463 55 b 604 -7 528 37 568 20 l 660 74 b 606 117 640 90 615 105 b 597 216 597 129 597 192 z "},"Ă":{"ha":719,"x_min":0,"x_max":0,"o":"m 351 1047 b 215 1149 288 1047 233 1069 l 109 1128 b 351 943 142 976 265 943 b 596 1122 463 943 580 1002 l 484 1143 b 351 1047 479 1090 424 1047 z m 486 342 l 363 340 b 228 329 307 338 269 338 l 354 741 z m 294 882 l 50 108 b 28 0 41 79 29 19 l 138 0 b 155 82 138 19 148 62 l 195 203 b 515 225 270 222 420 223 l 563 83 b 576 0 568 64 576 16 l 688 0 b 667 117 686 37 674 92 l 410 882 z "},"ă":{"ha":719,"x_min":0,"x_max":0,"o":"m 321 842 b 186 943 258 842 204 864 l 80 923 b 321 738 113 770 236 738 b 567 917 433 738 551 797 l 454 937 b 321 842 450 884 395 842 z m 159 211 b 332 342 159 291 239 341 b 491 298 402 342 452 322 l 491 234 b 260 99 473 206 402 99 b 159 211 197 99 159 140 z m 597 216 l 597 439 b 328 697 597 592 492 697 b 50 533 206 697 115 656 l 138 477 b 329 595 193 574 235 595 b 491 405 444 595 491 533 b 326 439 454 427 412 439 b 113 357 246 439 178 423 b 53 204 73 316 53 256 b 260 -4 53 92 144 -4 b 515 106 393 -4 463 55 b 604 -7 528 37 568 20 l 660 74 b 606 117 640 90 615 105 b 597 216 597 129 597 192 z "},"Ą":{"ha":719,"x_min":0,"x_max":0,"o":"m 294 882 l 50 108 b 28 0 41 79 29 19 l 138 0 b 155 82 138 19 148 62 l 195 203 b 515 225 270 222 420 223 l 563 83 b 574 27 566 71 571 47 b 355 -161 537 -13 355 -41 b 540 -316 355 -253 412 -316 b 683 -253 593 -316 653 -286 l 630 -180 b 543 -218 610 -195 582 -218 b 460 -161 499 -218 460 -199 b 688 0 460 -105 616 -58 b 667 117 686 37 674 92 l 410 882 z m 487 336 l 364 334 b 229 322 308 331 270 331 l 355 734 z "},"ą":{"ha":719,"x_min":0,"x_max":0,"o":"m 643 55 b 587 117 623 71 595 104 b 578 216 580 130 578 192 l 576 446 b 321 697 576 595 474 697 b 50 520 201 695 115 644 l 138 465 b 323 595 192 562 229 595 b 471 405 426 595 471 537 b 326 439 435 427 384 439 b 113 357 246 439 178 423 b 53 204 73 316 53 256 b 260 -4 53 92 144 -4 b 496 106 383 -4 444 55 b 518 58 500 84 509 72 b 286 -146 412 -13 286 -47 b 469 -301 286 -238 342 -301 b 612 -238 523 -301 583 -271 l 559 -165 b 472 -203 539 -180 511 -203 b 391 -146 429 -203 391 -184 b 643 55 391 -87 488 -78 z m 159 211 b 332 342 159 291 239 342 b 472 298 379 342 433 322 l 472 234 b 260 99 454 206 382 99 b 159 211 197 99 159 140 z "},"Ć":{"ha":719,"x_min":0,"x_max":0,"o":"m 220 1013 l 266 913 b 620 1126 363 945 545 1050 l 536 1225 b 220 1013 458 1152 317 1046 z m 386 781 b 537 666 444 781 496 747 l 629 721 b 388 886 570 829 483 886 b 128 752 269 886 177 824 b 38 422 93 701 38 595 b 159 77 38 271 78 160 b 388 -2 223 15 313 -2 l 390 -2 b 660 180 519 -2 610 75 l 566 232 b 373 102 531 156 473 106 l 363 102 b 233 152 308 102 275 113 b 146 424 167 214 146 313 b 215 692 146 569 184 648 b 386 781 248 737 308 781 z "},"ć":{"ha":719,"x_min":0,"x_max":0,"o":"m 221 822 l 267 722 b 621 935 364 753 546 859 l 538 1034 b 221 822 460 961 318 854 z m 156 357 b 375 587 156 519 225 587 b 511 494 484 587 503 522 l 615 535 b 538 643 600 570 579 611 b 382 690 497 674 447 690 b 48 357 169 690 48 606 b 163 50 48 222 75 118 b 382 -5 229 1 312 -5 b 657 143 572 -5 635 115 l 572 205 b 380 102 536 146 486 102 l 371 102 b 156 357 296 102 156 106 z "},"Ĉ":{"ha":719,"x_min":0,"x_max":0,"o":"m 376 1202 l 126 979 l 197 907 l 374 1057 l 557 907 l 630 979 z m 386 781 b 537 666 444 781 496 747 l 629 721 b 388 886 570 829 483 886 b 128 752 269 886 177 824 b 38 422 93 701 38 595 b 159 77 38 271 78 160 b 388 -2 223 15 313 -2 l 390 -2 b 660 180 519 -2 610 75 l 566 232 b 373 102 531 156 473 106 l 363 102 b 233 152 308 102 275 113 b 146 424 167 214 146 313 b 215 692 146 569 184 648 b 386 781 248 737 308 781 z "},"ĉ":{"ha":719,"x_min":0,"x_max":0,"o":"m 356 1010 l 106 788 l 177 715 l 354 865 l 538 715 l 610 788 z m 156 357 b 375 587 156 519 225 587 b 511 494 484 587 503 522 l 615 535 b 538 643 600 570 579 611 b 382 690 497 674 447 690 b 48 357 169 690 48 606 b 163 50 48 222 75 118 b 382 -5 229 1 312 -5 b 657 143 572 -5 635 115 l 572 205 b 380 102 536 146 486 102 l 371 102 b 156 357 296 102 156 106 z "},"Ċ":{"ha":719,"x_min":0,"x_max":0,"o":"m 298 1118 l 298 966 l 458 964 l 458 1116 z m 386 781 b 537 666 444 781 496 747 l 629 721 b 388 886 570 829 483 886 b 128 752 269 886 177 824 b 38 422 93 701 38 595 b 159 77 38 271 78 160 b 388 -2 223 15 313 -2 l 390 -2 b 660 180 519 -2 610 75 l 566 232 b 373 102 531 156 473 106 l 363 102 b 233 152 308 102 275 113 b 146 424 167 214 146 313 b 215 692 146 569 184 648 b 386 781 248 737 308 781 z "},"ċ":{"ha":719,"x_min":0,"x_max":0,"o":"m 275 951 l 275 799 l 434 799 l 434 951 z m 156 357 b 375 587 156 519 225 587 b 511 494 484 587 503 522 l 615 535 b 538 643 600 570 579 611 b 382 690 497 674 447 690 b 48 357 169 690 48 606 b 163 50 48 222 75 118 b 382 -5 229 1 312 -5 b 657 143 572 -5 635 115 l 572 205 b 380 102 536 146 486 102 l 371 102 b 156 357 296 102 156 106 z "},"Č":{"ha":719,"x_min":0,"x_max":0,"o":"m 377 921 l 629 1137 l 557 1209 l 378 1061 l 197 1209 l 126 1137 z m 386 781 b 537 666 444 781 496 747 l 629 721 b 388 886 570 829 483 886 b 128 752 269 886 177 824 b 38 422 93 701 38 595 b 159 77 38 271 78 160 b 388 -2 223 15 313 -2 l 390 -2 b 660 180 519 -2 610 75 l 566 232 b 373 102 531 156 473 106 l 363 102 b 233 152 308 102 275 113 b 146 424 167 214 146 313 b 215 692 146 569 184 648 b 386 781 248 737 308 781 z "},"č":{"ha":719,"x_min":0,"x_max":0,"o":"m 366 726 l 618 941 l 546 1014 l 366 866 l 185 1014 l 115 941 z m 156 357 b 375 587 156 519 225 587 b 511 494 484 587 503 522 l 615 535 b 538 643 600 570 579 611 b 382 690 497 674 447 690 b 48 357 169 690 48 606 b 163 50 48 222 75 118 b 382 -5 229 1 312 -5 b 657 143 572 -5 635 115 l 572 205 b 380 102 536 146 486 102 l 371 102 b 156 357 296 102 156 106 z "},"Ď":{"ha":719,"x_min":0,"x_max":0,"o":"m 288 923 l 541 1139 l 469 1211 l 289 1063 l 108 1211 l 37 1139 z m 210 781 b 481 647 359 781 420 734 b 549 361 525 583 549 469 b 531 235 549 325 542 265 b 287 96 487 113 401 96 b 156 98 246 96 216 96 b 159 587 157 163 159 384 b 159 722 159 633 159 680 b 159 780 159 742 159 763 b 189 781 170 782 178 781 z m 47 85 b 45 -2 45 20 45 20 b 270 -7 123 -2 213 -7 b 379 -2 307 -7 342 -5 b 643 250 501 9 610 90 b 657 385 652 294 657 339 b 568 709 657 505 625 625 b 195 884 485 830 379 884 b 43 876 128 884 98 881 b 52 649 49 817 52 734 l 52 599 b 47 85 52 385 47 121 z "},"ď":{"ha":719,"x_min":0,"x_max":0,"o":"m 125 324 b 305 582 125 516 199 582 b 436 505 365 582 402 539 l 436 208 b 270 100 390 131 359 100 b 125 324 159 100 125 186 z m 538 181 l 538 781 b 530 957 538 843 535 907 l 426 951 b 435 784 430 905 435 848 l 435 644 b 315 687 404 665 380 687 b 22 311 105 687 22 539 b 270 -5 22 130 91 -5 b 436 57 342 -5 395 19 b 443 -8 437 28 440 14 l 549 5 b 538 163 543 49 538 107 z m 726 924 l 594 957 b 548 695 579 887 560 791 l 651 672 b 726 924 682 774 700 848 z "},"Đ":{"ha":719,"x_min":0,"x_max":0,"o":"m 52 625 l 3 625 l 3 524 l 52 524 b 47 87 51 328 47 119 b 45 -2 45 20 45 21 b 270 -7 123 -2 213 -7 b 379 -2 307 -7 342 -5 b 643 255 501 9 610 92 b 657 393 652 300 657 347 b 568 723 657 516 625 637 b 195 903 485 847 379 903 b 43 893 128 903 98 899 b 52 663 49 833 52 750 z m 210 798 b 481 660 359 798 420 749 b 549 369 525 594 549 479 b 531 239 549 332 542 271 b 287 98 487 115 401 98 b 156 100 246 98 216 98 b 159 524 157 158 158 340 l 408 524 l 407 625 l 159 625 b 159 736 159 663 159 701 b 159 795 159 758 159 778 b 189 798 170 798 178 798 z "},"đ":{"ha":719,"x_min":0,"x_max":0,"o":"m 595 181 l 595 758 l 658 758 l 658 861 l 593 861 b 586 957 592 896 589 928 l 478 951 b 486 861 481 925 484 895 l 271 861 l 271 758 l 488 758 l 488 644 b 362 687 456 665 430 687 b 57 311 143 687 57 539 b 315 -5 57 130 129 -5 b 489 57 391 -5 446 19 b 496 -8 490 28 493 14 l 607 5 b 595 163 600 49 595 107 z m 163 324 b 353 582 163 516 242 582 b 489 505 414 582 454 539 l 489 208 b 315 100 441 131 408 100 b 163 324 200 100 163 186 z "},"Ē":{"ha":719,"x_min":0,"x_max":0,"o":"m 484 1074 l 472 1074 l 361 1074 b 189 1076 298 1074 233 1074 l 176 1077 l 176 972 l 188 971 b 335 970 234 970 285 970 b 472 971 385 970 433 970 l 484 971 z m 69 877 l 69 -2 l 532 -2 b 640 18 583 -2 607 9 l 610 119 b 530 101 610 119 568 101 l 174 100 b 176 431 174 152 176 294 l 176 452 l 473 452 l 473 553 l 176 553 l 176 776 l 603 776 l 603 878 l 592 878 b 349 880 542 878 450 880 l 274 880 l 208 880 b 69 877 155 880 107 880 z "},"ē":{"ha":719,"x_min":0,"x_max":0,"o":"m 501 905 l 490 905 l 378 905 b 206 906 316 905 250 905 l 193 907 l 193 802 l 205 802 b 353 800 252 800 302 800 b 490 802 403 800 450 800 l 501 802 z m 160 393 b 346 589 161 498 231 589 b 518 411 438 589 507 520 b 160 393 422 400 248 394 z m 345 692 b 53 350 153 692 53 544 b 354 -7 53 138 152 -7 b 621 113 515 -7 593 83 l 537 187 b 357 97 511 151 454 97 b 160 290 218 97 160 186 b 625 312 281 291 435 299 b 626 341 626 317 626 328 b 345 692 626 435 601 692 z "},"Ĕ":{"ha":719,"x_min":0,"x_max":0,"o":"m 346 1038 b 210 1141 283 1038 229 1061 l 104 1120 b 346 933 137 966 260 933 b 591 1114 458 933 575 993 l 479 1135 b 346 1038 475 1081 419 1038 z m 69 877 l 69 -2 l 532 -2 b 640 18 583 -2 607 9 l 610 119 b 530 101 610 119 568 101 l 174 100 b 176 431 174 152 176 294 l 176 452 l 473 452 l 473 553 l 176 553 l 176 776 l 603 776 l 603 878 l 592 878 b 349 880 542 878 450 880 l 274 880 l 208 880 b 69 877 155 880 107 880 z "},"ĕ":{"ha":719,"x_min":0,"x_max":0,"o":"m 347 836 b 212 937 284 836 230 858 l 106 917 b 347 732 138 764 262 732 b 593 911 459 732 576 791 l 480 931 b 347 836 476 878 420 836 z m 160 393 b 346 589 161 498 231 589 b 518 411 438 589 507 520 b 160 393 422 400 248 394 z m 345 692 b 53 350 153 692 53 544 b 354 -7 53 138 152 -7 b 621 113 515 -7 593 83 l 537 187 b 357 97 511 151 454 97 b 160 290 218 97 160 186 b 625 312 281 291 435 299 b 626 341 626 317 626 328 b 345 692 626 435 601 692 z "},"Ė":{"ha":719,"x_min":0,"x_max":0,"o":"m 262 1118 l 262 966 l 422 964 l 422 1116 z m 69 877 l 69 -2 l 532 -2 b 640 18 583 -2 607 9 l 610 119 b 530 101 610 119 568 101 l 174 100 b 176 431 174 152 176 294 l 176 452 l 473 452 l 473 553 l 176 553 l 176 776 l 603 776 l 603 878 l 592 878 b 349 880 542 878 450 880 l 274 880 l 208 880 b 69 877 155 880 107 880 z "},"ė":{"ha":719,"x_min":0,"x_max":0,"o":"m 266 951 l 266 799 l 425 799 l 425 951 z m 160 393 b 346 589 161 498 231 589 b 518 411 438 589 507 520 b 160 393 422 400 248 394 z m 345 692 b 53 350 153 692 53 544 b 354 -7 53 138 152 -7 b 621 113 515 -7 593 83 l 537 187 b 357 97 511 151 454 97 b 160 290 218 97 160 186 b 625 312 281 291 435 299 b 626 341 626 317 626 328 b 345 692 626 435 601 692 z "},"Ę":{"ha":719,"x_min":0,"x_max":0,"o":"m 69 877 l 69 -2 l 421 -2 b 319 -155 363 -45 319 -96 b 503 -310 319 -247 375 -310 b 646 -247 556 -310 616 -279 l 593 -174 b 505 -212 572 -189 545 -212 b 424 -155 462 -212 424 -193 b 640 18 424 -105 538 -12 l 610 119 b 530 101 610 119 568 101 l 174 100 b 176 431 174 152 176 294 l 176 452 l 473 452 l 473 553 l 176 553 l 176 776 l 603 776 l 603 878 l 592 878 b 349 880 542 878 450 880 l 274 880 l 208 880 b 69 877 155 880 107 880 z "},"ę":{"ha":719,"x_min":0,"x_max":0,"o":"m 160 393 b 346 589 161 498 231 589 b 518 414 438 589 514 520 b 160 393 422 404 248 394 z m 345 692 b 53 350 153 692 53 544 b 340 -7 53 138 146 -7 b 364 -6 348 -7 356 -7 b 250 -146 297 -59 250 -79 b 434 -301 250 -238 307 -301 b 577 -238 488 -301 547 -271 l 524 -165 b 437 -203 504 -180 476 -203 b 355 -146 393 -203 355 -184 b 600 104 355 -95 484 -52 b 614 124 608 114 612 121 l 532 194 b 342 97 509 156 449 97 b 160 290 216 97 160 186 b 625 312 281 291 435 299 b 626 341 626 317 626 328 b 345 692 626 435 601 692 z "},"Ě":{"ha":719,"x_min":0,"x_max":0,"o":"m 351 909 l 604 1124 l 532 1197 l 352 1049 l 171 1197 l 100 1124 z m 69 877 l 69 -2 l 532 -2 b 640 18 583 -2 607 9 l 610 119 b 530 101 610 119 568 101 l 174 100 b 176 431 174 152 176 294 l 176 452 l 473 452 l 473 553 l 176 553 l 176 776 l 603 776 l 603 878 l 592 878 b 349 880 542 878 450 880 l 274 880 l 208 880 b 69 877 155 880 107 880 z "},"ě":{"ha":719,"x_min":0,"x_max":0,"o":"m 345 720 l 597 935 l 525 1008 l 345 860 l 164 1008 l 94 935 z m 160 393 b 346 589 161 498 231 589 b 518 411 438 589 507 520 b 160 393 422 400 248 394 z m 345 692 b 53 350 153 692 53 544 b 354 -7 53 138 152 -7 b 621 113 515 -7 593 83 l 537 187 b 357 97 511 151 454 97 b 160 290 218 97 160 186 b 625 312 281 291 435 299 b 626 341 626 317 626 328 b 345 692 626 435 601 692 z "},"Ĝ":{"ha":719,"x_min":0,"x_max":0,"o":"m 344 1194 l 94 971 l 165 899 l 342 1048 l 526 899 l 598 971 z m 584 497 b 471 498 547 497 509 498 b 267 470 403 498 332 494 l 294 372 b 450 397 355 394 402 397 b 511 397 470 397 490 397 b 560 398 526 397 543 397 b 429 106 560 179 513 125 b 373 100 412 101 393 100 b 123 418 176 100 123 243 b 216 730 123 535 141 666 b 368 780 269 776 311 780 b 565 649 473 780 530 726 l 662 696 b 375 883 611 806 520 880 l 361 883 b 138 804 283 883 206 864 b 14 426 50 718 14 587 b 366 -5 14 190 119 -5 b 469 2 395 -5 438 -5 b 673 410 589 33 673 115 l 673 502 b 584 497 644 499 615 497 z "},"ĝ":{"ha":719,"x_min":0,"x_max":0,"o":"m 324 1019 l 75 797 l 145 724 l 322 874 l 506 724 l 578 797 z m 161 -52 b 218 47 161 -9 180 32 b 361 48 317 48 355 48 b 545 -17 444 48 545 41 b 372 -157 545 -130 450 -157 l 301 -157 b 161 -52 212 -157 161 -137 z m 323 378 b 172 481 235 378 172 402 b 334 593 172 543 241 593 b 477 479 420 593 477 566 b 323 378 477 413 410 378 z m 64 474 b 106 357 64 425 83 383 b 56 222 77 325 56 284 b 113 93 56 170 75 121 b 54 -56 76 60 54 12 b 298 -263 54 -197 155 -263 l 368 -263 b 652 -16 534 -263 652 -192 b 407 153 652 113 534 153 b 284 151 389 153 302 151 b 162 231 199 151 162 180 b 191 298 162 259 178 283 b 326 276 235 281 278 276 b 583 481 479 276 583 353 b 563 574 583 514 581 543 b 625 589 574 586 601 589 b 654 586 631 589 646 587 l 654 697 b 506 655 580 697 544 690 b 334 696 462 682 412 696 b 64 474 167 696 64 616 z "},"Ğ":{"ha":719,"x_min":0,"x_max":0,"o":"m 342 1035 b 206 1137 279 1035 224 1057 l 100 1116 b 342 931 133 964 256 931 b 587 1110 454 931 571 990 l 475 1131 b 342 1035 471 1078 415 1035 z m 584 497 b 471 498 547 497 509 498 b 267 470 403 498 332 494 l 294 372 b 450 397 355 394 402 397 b 511 397 470 397 490 397 b 560 398 526 397 543 397 b 429 106 560 179 513 125 b 373 100 412 101 393 100 b 123 418 176 100 123 243 b 216 730 123 535 141 666 b 368 780 269 776 311 780 b 565 649 473 780 530 726 l 662 696 b 375 883 611 806 520 880 l 361 883 b 138 804 283 883 206 864 b 14 426 50 718 14 587 b 366 -5 14 190 119 -5 b 469 2 395 -5 438 -5 b 673 410 589 33 673 115 l 673 502 b 584 497 644 499 615 497 z "},"ğ":{"ha":719,"x_min":0,"x_max":0,"o":"m 326 844 b 191 946 263 844 209 867 l 85 926 b 326 741 117 773 241 741 b 572 920 438 741 555 800 l 459 940 b 326 844 455 887 399 844 z m 161 -52 b 218 47 161 -9 180 32 b 361 48 317 48 355 48 b 545 -17 444 48 545 41 b 372 -157 545 -130 450 -157 l 301 -157 b 161 -52 212 -157 161 -137 z m 323 378 b 172 481 235 378 172 402 b 334 593 172 543 241 593 b 477 479 420 593 477 566 b 323 378 477 413 410 378 z m 64 474 b 106 357 64 425 83 383 b 56 222 77 325 56 284 b 113 93 56 170 75 121 b 54 -56 76 60 54 12 b 298 -263 54 -197 155 -263 l 368 -263 b 652 -16 534 -263 652 -192 b 407 153 652 113 534 153 b 284 151 389 153 302 151 b 162 231 199 151 162 180 b 191 298 162 259 178 283 b 326 276 235 281 278 276 b 583 481 479 276 583 353 b 563 574 583 514 581 543 b 625 589 574 586 601 589 b 654 586 631 589 646 587 l 654 697 b 506 655 580 697 544 690 b 334 696 462 682 412 696 b 64 474 167 696 64 616 z "},"Ġ":{"ha":719,"x_min":0,"x_max":0,"o":"m 284 1120 l 284 968 l 444 966 l 444 1118 z m 584 497 b 471 498 547 497 509 498 b 267 470 403 498 332 494 l 294 372 b 450 397 355 394 402 397 b 511 397 470 397 490 397 b 560 398 526 397 543 397 b 429 106 560 179 513 125 b 373 100 412 101 393 100 b 123 418 176 100 123 243 b 216 730 123 535 141 666 b 368 780 269 776 311 780 b 565 649 473 780 530 726 l 662 696 b 375 883 611 806 520 880 l 361 883 b 138 804 283 883 206 864 b 14 426 50 718 14 587 b 366 -5 14 190 119 -5 b 469 2 395 -5 438 -5 b 673 410 589 33 673 115 l 673 502 b 584 497 644 499 615 497 z "},"ġ":{"ha":719,"x_min":0,"x_max":0,"o":"m 257 951 l 257 799 l 416 799 l 416 951 z m 161 -52 b 218 47 161 -9 180 32 b 361 48 317 48 355 48 b 545 -17 444 48 545 41 b 372 -157 545 -130 450 -157 l 301 -157 b 161 -52 212 -157 161 -137 z m 323 378 b 172 481 235 378 172 402 b 334 593 172 543 241 593 b 477 479 420 593 477 566 b 323 378 477 413 410 378 z m 64 474 b 106 357 64 425 83 383 b 56 222 77 325 56 284 b 113 93 56 170 75 121 b 54 -56 76 60 54 12 b 298 -263 54 -197 155 -263 l 368 -263 b 652 -16 534 -263 652 -192 b 407 153 652 113 534 153 b 284 151 389 153 302 151 b 162 231 199 151 162 180 b 191 298 162 259 178 283 b 326 276 235 281 278 276 b 583 481 479 276 583 353 b 563 574 583 514 581 543 b 625 589 574 586 601 589 b 654 586 631 589 646 587 l 654 697 b 506 655 580 697 544 690 b 334 696 462 682 412 696 b 64 474 167 696 64 616 z "},"Ģ":{"ha":719,"x_min":0,"x_max":0,"o":"m 297 -88 l 297 -271 l 357 -271 b 260 -446 357 -364 323 -412 l 302 -541 b 472 -269 415 -489 472 -402 l 472 -267 l 467 -88 z m 584 497 b 471 498 547 497 509 498 b 267 470 403 498 332 494 l 294 372 b 450 397 355 394 402 397 b 511 397 470 397 490 397 b 560 398 526 397 543 397 b 429 106 560 179 513 125 b 373 100 412 101 393 100 b 123 418 176 100 123 243 b 216 730 123 535 141 666 b 368 780 269 776 311 780 b 565 649 473 780 530 726 l 662 696 b 375 883 611 806 520 880 l 361 883 b 138 804 283 883 206 864 b 14 426 50 718 14 587 b 366 -5 14 190 119 -5 b 469 2 395 -5 438 -5 b 673 410 589 33 673 115 l 673 502 b 584 497 644 499 615 497 z "},"ģ":{"ha":719,"x_min":0,"x_max":0,"o":"m 313 793 l 444 761 b 490 1023 458 831 477 926 l 387 1046 b 313 793 356 943 338 869 z m 161 -52 b 218 47 161 -9 180 32 b 361 48 317 48 355 48 b 545 -17 444 48 545 41 b 372 -157 545 -130 450 -157 l 301 -157 b 161 -52 212 -157 161 -137 z m 323 378 b 172 481 235 378 172 402 b 334 593 172 543 241 593 b 477 479 420 593 477 566 b 323 378 477 413 410 378 z m 64 474 b 106 357 64 425 83 383 b 56 222 77 325 56 284 b 113 93 56 170 75 121 b 54 -56 76 60 54 12 b 298 -263 54 -197 155 -263 l 368 -263 b 652 -16 534 -263 652 -192 b 407 153 652 113 534 153 b 284 151 389 153 302 151 b 162 231 199 151 162 180 b 191 298 162 259 178 283 b 326 276 235 281 278 276 b 583 481 479 276 583 353 b 563 574 583 514 581 543 b 625 589 574 586 601 589 b 654 586 631 589 646 587 l 654 697 b 506 655 580 697 544 690 b 334 696 462 682 412 696 b 64 474 167 696 64 616 z "},"Ĥ":{"ha":719,"x_min":0,"x_max":0,"o":"m 330 1208 l 81 985 l 151 913 l 328 1063 l 512 913 l 585 985 z m 149 879 l 41 878 l 41 0 l 150 0 b 149 405 150 123 149 172 b 424 424 229 422 325 424 l 511 424 l 511 0 l 618 0 l 618 876 l 511 876 b 511 527 511 766 511 713 l 357 527 b 149 508 275 527 211 522 z "},"ĥ":{"ha":719,"x_min":0,"x_max":0,"o":"m 177 1227 l -73 1004 l -2 932 l 175 1082 l 359 932 l 431 1004 z m 501 391 l 501 141 b 606 -12 501 55 551 19 l 665 68 b 607 151 625 94 607 114 b 608 391 607 227 608 279 l 608 435 b 555 621 608 510 604 563 b 345 692 502 686 427 692 b 183 637 276 692 227 665 l 183 951 l 75 951 b 76 138 75 951 76 480 b 68 5 76 86 74 54 l 176 0 b 182 134 179 31 182 81 l 182 496 b 340 588 203 538 272 588 b 501 391 477 588 501 545 z "},"Ħ":{"ha":719,"x_min":0,"x_max":0,"o":"m 41 777 l 0 777 l 0 675 l 41 675 l 41 0 l 150 0 b 149 405 150 123 149 172 b 424 424 229 422 325 424 l 511 424 l 511 0 l 618 0 l 618 675 l 676 675 l 676 777 l 618 777 l 618 876 l 511 876 l 511 777 l 149 777 l 149 879 l 41 878 z m 511 675 l 511 527 l 357 527 b 149 508 275 527 211 522 l 149 675 z "},"ħ":{"ha":719,"x_min":0,"x_max":0,"o":"m 487 391 l 487 141 b 591 -12 487 55 537 19 l 651 68 b 593 151 610 94 593 114 b 593 391 593 227 593 279 l 593 435 b 541 621 593 510 590 563 b 331 692 488 686 413 692 b 169 637 262 692 213 665 l 169 757 l 417 757 l 417 859 l 168 859 l 168 951 l 61 950 l 61 859 l 0 859 l 0 757 l 61 757 b 62 138 61 589 62 341 b 54 5 62 86 60 54 l 161 0 b 168 134 165 31 168 81 l 168 496 b 326 588 189 538 258 588 b 487 391 463 588 487 545 z "},"Ĩ":{"ha":719,"x_min":0,"x_max":0,"o":"m 227 1137 b 36 1005 152 1137 86 1116 l 130 955 b 235 1033 155 1027 195 1033 b 437 951 303 1033 342 951 b 627 1105 526 951 606 1024 l 527 1141 b 427 1055 517 1081 471 1055 b 227 1137 366 1055 327 1137 z m 103 880 l 107 776 b 286 781 179 780 241 780 l 286 102 l 235 102 b 105 99 197 102 163 102 l 105 -2 b 328 3 210 -2 278 3 b 433 3 368 3 401 3 b 576 -1 476 3 518 3 l 576 101 b 478 104 541 103 509 104 b 395 103 444 104 426 103 l 395 781 b 576 778 460 781 492 778 l 576 881 b 329 883 465 882 400 883 b 103 880 264 883 209 883 z "},"ĩ":{"ha":719,"x_min":0,"x_max":0,"o":"m 196 943 b 5 812 121 943 56 923 l 99 762 b 204 840 125 833 164 840 b 406 758 273 840 311 758 b 597 912 496 758 575 831 l 496 947 b 397 861 487 888 440 861 b 196 943 336 861 296 943 z m 283 687 b 62 659 212 687 138 676 l 81 562 b 256 581 146 577 223 581 l 256 140 b 319 14 256 100 262 45 b 458 -12 349 -3 401 -12 b 698 56 543 -12 640 8 l 652 134 b 458 84 605 98 521 84 b 362 142 395 84 366 87 b 361 687 362 142 361 502 z "},"Ī":{"ha":719,"x_min":0,"x_max":0,"o":"m 479 1080 l 467 1080 l 356 1080 b 184 1082 294 1080 228 1080 l 171 1083 l 171 978 l 183 977 b 330 976 229 976 280 976 b 467 977 380 976 428 976 l 479 977 z m 103 880 l 107 776 b 286 781 179 780 241 780 l 286 102 l 235 102 b 105 99 197 102 163 102 l 105 -2 b 328 3 210 -2 278 3 b 433 3 368 3 401 3 b 576 -1 476 3 518 3 l 576 101 b 478 104 541 103 509 104 b 395 103 444 104 426 103 l 395 781 b 576 778 460 781 492 778 l 576 881 b 329 883 465 882 400 883 b 103 880 264 883 209 883 z "},"ī":{"ha":719,"x_min":0,"x_max":0,"o":"m 460 904 l 449 904 l 338 904 b 165 905 275 904 210 904 l 153 907 l 153 801 l 165 801 b 312 799 211 799 262 799 b 449 801 362 799 410 799 l 460 801 z m 283 687 b 62 659 212 687 138 676 l 81 562 b 256 581 146 577 223 581 l 256 140 b 319 14 256 100 262 45 b 458 -12 349 -3 401 -12 b 698 56 543 -12 640 8 l 652 134 b 458 84 605 98 521 84 b 362 142 395 84 366 87 b 361 687 362 142 361 502 z "},"Ĭ":{"ha":719,"x_min":0,"x_max":0,"o":"m 341 1036 b 205 1137 278 1036 224 1058 l 100 1117 b 341 932 132 964 256 932 b 587 1111 453 932 570 991 l 474 1131 b 341 1036 470 1078 414 1036 z m 103 880 l 107 776 b 286 781 179 780 241 780 l 286 102 l 235 102 b 105 99 197 102 163 102 l 105 -2 b 328 3 210 -2 278 3 b 433 3 368 3 401 3 b 576 -1 476 3 518 3 l 576 101 b 478 104 541 103 509 104 b 395 103 444 104 426 103 l 395 781 b 576 778 460 781 492 778 l 576 881 b 329 883 465 882 400 883 b 103 880 264 883 209 883 z "},"ĭ":{"ha":719,"x_min":0,"x_max":0,"o":"m 321 858 b 185 960 258 858 203 880 l 79 939 b 321 754 112 787 235 754 b 566 933 433 754 550 813 l 454 954 b 321 858 450 901 394 858 z m 283 687 b 62 659 212 687 138 676 l 81 562 b 256 581 146 577 223 581 l 256 140 b 319 14 256 100 262 45 b 458 -12 349 -3 401 -12 b 698 56 543 -12 640 8 l 652 134 b 458 84 605 98 521 84 b 362 142 395 84 366 87 b 361 687 362 142 361 502 z "},"Į":{"ha":719,"x_min":0,"x_max":0,"o":"m 90 880 l 94 776 b 286 781 165 780 241 780 l 286 102 l 235 102 b 91 99 197 102 149 102 l 91 -2 b 328 3 196 -2 278 3 b 430 3 367 3 399 3 b 254 -165 367 -29 254 -68 b 437 -320 254 -257 310 -320 b 581 -257 491 -320 551 -290 l 528 -184 b 440 -222 507 -199 479 -222 b 359 -165 397 -222 359 -203 b 576 -1 359 -115 454 -77 l 576 101 b 478 104 541 103 509 104 b 395 103 444 104 426 103 l 395 781 b 578 778 460 781 495 778 l 578 881 b 329 883 468 882 400 883 b 90 880 264 883 195 883 z "},"į":{"ha":719,"x_min":0,"x_max":0,"o":"m 213 951 l 213 799 l 372 797 l 372 949 z m 283 687 b 62 659 212 687 138 676 l 81 562 b 256 581 146 577 223 581 l 256 140 b 319 14 256 100 262 45 b 458 -12 349 -3 401 -12 l 470 -12 b 345 -163 397 -59 345 -93 b 528 -318 345 -255 401 -318 b 671 -255 582 -318 642 -288 l 618 -182 b 531 -220 598 -197 570 -220 b 450 -163 488 -220 450 -201 b 698 56 450 -85 538 -83 l 652 134 b 458 84 605 98 521 84 b 365 142 395 84 368 87 b 364 687 365 142 364 502 z "},"İ":{"ha":719,"x_min":0,"x_max":0,"o":"m 249 1120 l 249 968 l 409 966 l 409 1118 z m 103 880 l 107 776 b 286 781 179 780 241 780 l 286 102 l 235 102 b 105 99 197 102 163 102 l 105 -2 b 328 3 210 -2 278 3 b 433 3 368 3 401 3 b 576 -1 476 3 518 3 l 576 101 b 478 104 541 103 509 104 b 395 103 444 104 426 103 l 395 781 b 576 778 460 781 492 778 l 576 881 b 329 883 465 882 400 883 b 103 880 264 883 209 883 z "},"ı":{"ha":719,"x_min":0,"x_max":0,"o":"m 283 687 b 62 659 212 687 138 676 l 81 562 b 256 581 146 577 223 581 l 256 140 b 319 14 256 100 262 45 b 458 -12 349 -3 401 -12 b 698 56 543 -12 640 8 l 652 134 b 458 84 605 98 521 84 b 362 142 395 84 366 87 b 361 687 362 142 361 502 z "},"Ĳ":{"ha":719,"x_min":0,"x_max":0,"o":"m 258 781 l 260 883 l 214 883 l 126 883 b 34 880 61 883 61 883 l 35 776 b 83 781 54 780 38 781 l 83 103 l 71 103 b 35 99 61 103 50 102 l 35 0 b 174 1 68 0 123 1 b 245 0 200 1 225 1 l 245 102 l 191 103 l 191 781 b 258 781 215 781 233 781 z m 349 879 l 347 777 b 514 776 426 776 431 776 b 533 447 522 683 533 511 b 534 327 533 403 534 363 b 449 96 534 178 526 96 b 385 288 410 96 389 186 l 277 289 b 450 -5 278 142 319 -5 b 640 435 631 -5 640 195 b 625 777 640 519 636 656 b 684 776 659 777 651 776 l 685 880 b 437 878 574 880 515 878 b 349 879 410 878 382 879 z "},"ĳ":{"ha":719,"x_min":0,"x_max":0,"o":"m 550 -77 b 450 -157 549 -101 526 -157 l 439 -157 b 181 -81 396 -157 285 -153 l 142 -182 b 453 -262 287 -258 370 -262 b 656 -80 614 -262 656 -178 l 656 691 l 576 691 b 357 663 506 691 433 680 l 376 566 b 538 586 437 581 472 586 l 549 586 z m 195 692 b 33 668 124 692 109 686 l 52 572 b 160 586 111 585 132 586 l 168 586 l 168 144 b 326 -4 168 66 206 -4 b 470 61 372 -4 438 13 l 414 130 b 338 89 397 104 372 89 b 277 147 303 89 277 104 b 276 692 277 147 276 507 z m 505 952 l 505 800 l 663 798 l 663 950 z m 125 956 l 125 804 l 284 802 l 284 954 z "},"Ĵ":{"ha":719,"x_min":0,"x_max":0,"o":"m 419 1202 l 170 979 l 240 907 l 417 1057 l 601 907 l 673 979 z m 281 -5 b 536 435 505 -5 536 195 b 522 777 536 519 532 656 b 647 776 555 777 614 776 l 648 880 b 297 880 543 880 395 880 b 176 865 217 878 196 870 l 201 765 b 298 777 220 769 228 775 b 410 776 323 777 377 776 b 429 447 418 683 429 511 b 279 96 429 222 406 96 b 136 288 176 96 140 186 l 27 289 b 281 -5 28 142 94 -5 z "},"ĵ":{"ha":719,"x_min":0,"x_max":0,"o":"m 455 1019 l 205 796 l 276 724 l 453 873 l 637 724 l 709 796 z m 425 -77 b 326 -157 424 -101 401 -157 l 314 -157 b 147 -42 271 -157 214 -152 l 62 -109 b 328 -262 147 -248 245 -262 b 531 -80 490 -262 531 -178 l 531 691 l 452 691 b 232 663 381 691 308 680 l 251 566 b 414 586 312 581 347 586 l 425 586 z "},"Ķ":{"ha":719,"x_min":0,"x_max":0,"o":"m 306 -23 l 306 -173 l 344 -173 b 286 -275 344 -240 326 -256 l 322 -361 b 455 -169 410 -323 455 -271 l 455 -23 z m 328 492 b 660 817 369 541 536 727 l 585 888 b 355 675 570 874 485 808 b 186 477 288 606 240 552 l 186 887 l 79 887 l 79 -3 l 186 -3 l 186 292 b 263 407 206 340 263 407 b 589 -12 351 321 557 62 l 680 40 b 328 492 645 132 410 412 z "},"ķ":{"ha":719,"x_min":0,"x_max":0,"o":"m 314 -20 l 314 -170 l 352 -170 b 294 -271 352 -237 334 -252 l 330 -357 b 463 -165 418 -319 463 -268 l 463 -20 z m 397 384 b 333 393 379 384 358 387 b 199 419 300 400 256 410 l 199 480 b 370 576 249 514 302 545 b 427 591 392 587 411 591 b 498 539 470 591 492 562 b 503 505 502 529 503 517 b 397 384 503 446 466 384 z m 199 597 l 199 877 b 180 968 199 922 186 952 l 77 938 b 92 833 85 910 92 874 l 92 0 l 199 0 b 198 87 199 22 198 54 b 199 318 198 189 199 318 b 470 161 283 309 436 260 b 595 -13 488 108 512 28 l 652 60 b 596 117 630 77 612 91 b 495 308 560 177 562 258 b 604 433 565 341 600 410 b 610 496 608 451 610 474 b 606 552 610 516 608 536 b 421 689 597 633 513 689 b 199 597 349 689 248 630 z "},"ĸ":{"ha":719,"x_min":0,"x_max":0,"o":"m 378 410 b 666 624 423 456 535 545 l 600 711 b 391 555 585 699 532 676 b 184 373 319 492 248 435 l 184 692 l 79 692 l 79 0 l 184 0 l 184 220 b 302 340 222 271 302 340 b 576 -18 383 247 545 56 l 667 34 b 378 410 633 125 453 324 z "},"Ĺ":{"ha":719,"x_min":0,"x_max":0,"o":"m 35 1015 l 81 914 b 435 1128 178 946 360 1052 l 352 1227 b 35 1015 274 1154 132 1047 z m 96 -2 l 559 -2 b 668 18 610 -2 636 7 l 640 117 b 558 102 610 107 598 104 l 205 102 l 205 880 l 96 880 z "},"ĺ":{"ha":719,"x_min":0,"x_max":0,"o":"m 130 1072 l 176 971 b 530 1185 273 1003 454 1109 l 446 1284 b 130 1072 368 1211 227 1104 z m 281 965 b 56 946 211 965 132 964 l 75 849 b 204 861 117 859 165 861 b 254 860 224 861 243 860 l 256 141 b 319 15 256 101 262 47 b 458 -11 349 -1 401 -11 b 698 58 543 -11 640 9 l 652 135 b 458 85 605 100 521 85 b 362 144 395 85 366 88 b 360 965 362 144 360 780 z "},"Ļ":{"ha":719,"x_min":0,"x_max":0,"o":"m 263 -85 l 263 -235 l 301 -235 b 243 -336 301 -302 283 -317 l 279 -422 b 412 -231 367 -385 412 -333 l 412 -85 z m 96 -2 l 559 -2 b 668 18 610 -2 636 7 l 640 117 b 558 102 610 107 598 104 l 205 102 l 205 880 l 96 880 z "},"ļ":{"ha":719,"x_min":0,"x_max":0,"o":"m 405 -94 l 405 -243 l 443 -243 b 385 -345 443 -311 425 -326 l 421 -431 b 554 -239 509 -393 554 -342 l 554 -94 z m 281 965 b 56 946 211 965 132 964 l 75 849 b 204 861 117 859 165 861 b 254 860 224 861 243 860 l 256 141 b 319 15 256 101 262 47 b 458 -11 349 -1 401 -11 b 698 58 543 -11 640 9 l 652 135 b 458 85 605 100 521 85 b 362 144 395 85 366 88 b 360 965 362 144 360 780 z "},"Ľ":{"ha":719,"x_min":0,"x_max":0,"o":"m 606 842 l 475 874 b 429 612 460 804 441 709 l 532 589 b 606 842 563 692 581 766 z m 96 -2 l 559 -2 b 668 18 610 -2 636 7 l 640 117 b 558 102 610 107 598 104 l 205 102 l 205 880 l 96 880 z "},"ľ":{"ha":719,"x_min":0,"x_max":0,"o":"m 696 944 l 565 977 b 519 715 551 907 531 811 l 622 692 b 696 944 652 794 671 868 z m 281 965 b 56 946 211 965 132 964 l 75 849 b 204 861 117 859 165 861 b 254 860 224 861 243 860 l 256 141 b 319 15 256 101 262 47 b 458 -11 349 -1 401 -11 b 698 58 543 -11 640 9 l 652 135 b 458 85 605 100 521 85 b 362 144 395 85 366 88 b 360 965 362 144 360 780 z "},"Ŀ":{"ha":719,"x_min":0,"x_max":0,"o":"m 357 555 l 357 400 l 504 400 l 504 555 z m 96 -2 l 559 -2 b 668 18 610 -2 636 7 l 640 117 b 558 102 610 107 598 104 l 205 102 l 205 880 l 96 880 z "},"ŀ":{"ha":719,"x_min":0,"x_max":0,"o":"m 507 555 l 507 400 l 654 400 l 654 555 z m 281 965 b 56 946 211 965 132 964 l 75 849 b 204 861 117 859 165 861 b 254 860 224 861 243 860 l 256 141 b 319 15 256 101 262 47 b 458 -11 349 -1 401 -11 b 698 58 543 -11 640 9 l 652 135 b 458 85 605 100 521 85 b 362 144 395 85 366 88 b 360 965 362 144 360 780 z "},"Ł":{"ha":719,"x_min":0,"x_max":0,"o":"m 181 460 l 181 -2 l 559 -2 b 668 18 610 -2 636 7 l 640 117 b 558 102 610 107 598 104 l 290 102 l 290 502 l 496 581 l 462 670 l 290 604 l 290 880 l 181 880 l 181 562 l 47 510 l 81 422 z "},"ł":{"ha":719,"x_min":0,"x_max":0,"o":"m 269 968 b 48 941 198 968 124 958 l 67 844 b 241 863 132 859 208 863 l 242 586 l 109 535 l 143 446 l 242 485 l 243 141 b 307 15 244 101 249 47 b 446 -11 336 -1 388 -11 b 685 58 530 -11 627 9 l 639 135 b 445 85 592 100 508 85 b 352 144 382 85 355 88 l 351 526 l 557 606 l 524 694 l 351 628 l 350 968 z "},"Ń":{"ha":719,"x_min":0,"x_max":0,"o":"m 267 1001 l 313 901 b 667 1114 410 932 592 1038 l 584 1213 b 267 1001 506 1140 364 1034 z m 510 -4 l 618 -3 b 618 110 618 33 618 71 b 616 591 618 266 616 438 b 621 880 616 702 617 803 l 517 880 b 509 513 511 764 509 640 b 511 242 509 422 509 330 b 159 878 431 410 244 753 l 51 880 l 51 -2 l 159 -2 b 158 541 159 101 158 342 l 158 679 b 510 -4 295 439 399 238 z "},"ń":{"ha":719,"x_min":0,"x_max":0,"o":"m 257 819 l 303 719 b 657 932 400 751 582 857 l 574 1031 b 257 819 496 958 354 852 z m 183 629 b 163 705 178 662 170 689 l 54 680 b 76 478 71 616 76 599 l 76 -1 l 183 0 l 183 515 b 391 591 282 563 347 591 b 501 519 435 591 501 569 l 501 138 b 623 -13 501 51 564 16 l 680 63 b 608 143 642 83 608 98 l 608 540 b 406 693 608 641 487 693 b 183 629 331 693 269 673 z "},"Ņ":{"ha":719,"x_min":0,"x_max":0,"o":"m 279 -19 l 279 -169 l 317 -169 b 259 -271 317 -236 300 -252 l 296 -357 b 429 -165 383 -319 429 -267 l 429 -19 z m 510 -4 l 618 -3 b 618 110 618 33 618 71 b 616 591 618 266 616 438 b 621 880 616 702 617 803 l 517 880 b 509 513 511 764 509 640 b 511 242 509 422 509 330 b 159 878 431 410 244 753 l 51 880 l 51 -2 l 159 -2 b 158 541 159 101 158 342 l 158 679 b 510 -4 295 439 399 238 z "},"ņ":{"ha":719,"x_min":0,"x_max":0,"o":"m 308 -26 l 308 -176 l 346 -176 b 287 -278 346 -243 328 -259 l 324 -364 b 457 -172 411 -326 457 -275 l 457 -26 z m 183 629 b 163 705 178 662 170 689 l 54 680 b 76 478 71 616 76 599 l 76 -1 l 183 0 l 183 515 b 391 591 282 563 347 591 b 501 519 435 591 501 569 l 501 138 b 623 -13 501 51 564 16 l 680 63 b 608 143 642 83 608 98 l 608 540 b 406 693 608 641 487 693 b 183 629 331 693 269 673 z "},"Ň":{"ha":719,"x_min":0,"x_max":0,"o":"m 333 897 l 585 1112 l 513 1185 l 334 1037 l 153 1185 l 82 1112 z m 510 -4 l 618 -3 b 618 110 618 33 618 71 b 616 591 618 266 616 438 b 621 880 616 702 617 803 l 517 880 b 509 513 511 764 509 640 b 511 242 509 422 509 330 b 159 878 431 410 244 753 l 51 880 l 51 -2 l 159 -2 b 158 541 159 101 158 342 l 158 679 b 510 -4 295 439 399 238 z "},"ň":{"ha":719,"x_min":0,"x_max":0,"o":"m 394 719 l 647 935 l 575 1007 l 395 859 l 214 1007 l 143 935 z m 183 629 b 163 705 178 662 170 689 l 54 680 b 76 478 71 616 76 599 l 76 -1 l 183 0 l 183 515 b 391 591 282 563 347 591 b 501 519 435 591 501 569 l 501 138 b 623 -13 501 51 564 16 l 680 63 b 608 143 642 83 608 98 l 608 540 b 406 693 608 641 487 693 b 183 629 331 693 269 673 z "},"Ŋ":{"ha":719,"x_min":0,"x_max":0,"o":"m 366 879 b 157 792 274 879 198 861 b 130 892 153 844 142 866 l 24 854 b 51 718 24 854 51 796 l 51 -2 l 159 -2 l 159 621 b 368 775 183 667 236 775 b 513 578 448 775 513 703 l 513 72 b 266 -138 513 -39 500 -134 l 266 -243 l 289 -243 b 618 89 585 -243 618 -85 l 618 112 b 616 583 618 271 616 427 b 366 879 616 747 563 879 z "},"ŋ":{"ha":719,"x_min":0,"x_max":0,"o":"m 184 629 b 163 705 179 662 170 689 l 55 680 b 77 478 71 616 77 599 l 77 -1 l 184 0 l 184 515 b 370 591 283 563 327 591 b 473 519 415 591 473 569 l 473 101 b 293 -144 473 -77 450 -144 l 291 -144 l 293 -250 l 296 -250 b 581 143 579 -250 581 -60 l 581 540 b 385 693 581 641 467 693 b 184 629 310 693 269 673 z "},"Ō":{"ha":719,"x_min":0,"x_max":0,"o":"m 514 1074 l 502 1074 l 391 1074 b 219 1076 329 1074 263 1074 l 206 1077 l 206 972 l 218 971 b 365 970 264 970 315 970 b 502 971 415 970 463 970 l 514 971 z m 342 899 b 115 787 236 897 160 848 b 16 388 68 723 16 622 b 110 88 16 266 49 163 b 334 -9 165 20 251 -9 b 585 145 446 -9 534 47 b 647 423 617 208 647 312 l 647 431 b 342 899 644 849 426 899 z m 180 166 b 123 391 142 216 123 320 b 203 725 123 568 157 665 b 346 795 243 777 281 795 b 492 690 406 795 453 767 b 540 438 528 620 540 516 l 540 425 b 492 197 539 353 519 240 b 334 95 462 140 412 95 b 180 166 260 95 214 122 z "},"ō":{"ha":719,"x_min":0,"x_max":0,"o":"m 480 908 l 469 908 l 357 908 b 185 909 295 908 229 908 l 172 910 l 172 805 l 184 805 b 332 803 231 803 281 803 b 469 805 382 803 429 803 l 480 805 z m 444 146 b 328 106 410 117 380 106 b 156 318 215 106 156 186 b 339 595 156 484 198 595 b 504 372 459 595 503 496 l 504 359 b 444 146 504 259 488 187 z m 327 1 l 328 1 b 612 368 547 1 612 175 b 572 564 612 433 600 510 b 316 700 524 653 450 700 b 49 315 118 700 49 513 b 327 1 49 125 142 1 z "},"Ŏ":{"ha":719,"x_min":0,"x_max":0,"o":"m 348 1043 b 212 1145 284 1043 230 1065 l 106 1124 b 348 939 139 972 262 939 b 593 1118 459 939 577 998 l 480 1139 b 348 1043 476 1086 421 1043 z m 342 899 b 115 787 236 897 160 848 b 16 388 68 723 16 622 b 110 88 16 266 49 163 b 334 -9 165 20 251 -9 b 585 145 446 -9 534 47 b 647 423 617 208 647 312 l 647 431 b 342 899 644 849 426 899 z m 180 166 b 123 391 142 216 123 320 b 203 725 123 568 157 665 b 346 795 243 777 281 795 b 492 690 406 795 453 767 b 540 438 528 620 540 516 l 540 425 b 492 197 539 353 519 240 b 334 95 462 140 412 95 b 180 166 260 95 214 122 z "},"ŏ":{"ha":719,"x_min":0,"x_max":0,"o":"m 316 829 b 180 931 253 829 199 852 l 75 911 b 316 726 107 758 231 726 b 562 905 428 726 545 785 l 449 925 b 316 829 445 872 389 829 z m 444 146 b 328 106 410 117 380 106 b 156 318 215 106 156 186 b 339 595 156 484 198 595 b 504 372 459 595 503 496 l 504 359 b 444 146 504 259 488 187 z m 327 1 l 328 1 b 612 368 547 1 612 175 b 572 564 612 433 600 510 b 316 700 524 653 450 700 b 49 315 118 700 49 513 b 327 1 49 125 142 1 z "},"Ő":{"ha":719,"x_min":0,"x_max":0,"o":"m 368 1001 l 446 923 b 685 1206 526 987 641 1108 l 580 1274 b 368 1001 533 1178 447 1065 z m 140 1006 l 217 928 b 457 1211 297 991 413 1114 l 352 1278 b 140 1006 305 1183 219 1070 z m 342 899 b 115 787 236 897 160 848 b 16 388 68 723 16 622 b 110 88 16 266 49 163 b 334 -9 165 20 251 -9 b 585 145 446 -9 534 47 b 647 423 617 208 647 312 l 647 431 b 342 899 644 849 426 899 z m 180 166 b 123 391 142 216 123 320 b 203 725 123 568 157 665 b 346 795 243 777 281 795 b 492 690 406 795 453 767 b 540 438 528 620 540 516 l 540 425 b 492 197 539 353 519 240 b 334 95 462 140 412 95 b 180 166 260 95 214 122 z "},"ő":{"ha":719,"x_min":0,"x_max":0,"o":"m 374 789 l 452 711 b 690 994 532 775 646 897 l 586 1062 b 374 789 538 966 453 854 z m 146 794 l 223 716 b 463 1000 303 780 418 902 l 358 1067 b 146 794 311 971 225 859 z m 444 146 b 328 106 410 117 380 106 b 156 318 215 106 156 186 b 339 595 156 484 198 595 b 504 372 459 595 503 496 l 504 359 b 444 146 504 259 488 187 z m 327 1 l 328 1 b 612 368 547 1 612 175 b 572 564 612 433 600 510 b 316 700 524 653 450 700 b 49 315 118 700 49 513 b 327 1 49 125 142 1 z "},"Œ":{"ha":719,"x_min":0,"x_max":0,"o":"m 314 99 b 283 98 305 98 294 98 b 111 392 114 101 111 239 b 315 793 111 645 138 793 z m 550 104 l 418 104 b 420 463 418 157 420 326 l 607 463 l 607 566 l 420 566 l 420 793 b 503 794 452 794 479 794 b 652 793 551 794 590 793 l 652 899 b 481 899 597 899 538 899 b 355 897 438 899 395 899 b 301 902 338 901 319 902 b 7 405 74 902 7 701 b 263 -5 7 197 56 3 b 349 0 273 -5 338 -5 b 452 -1 387 0 420 -1 b 665 22 528 -1 593 3 l 640 121 b 550 104 609 111 590 105 z "},"œ":{"ha":719,"x_min":0,"x_max":0,"o":"m 658 127 l 564 174 b 483 104 553 150 534 104 b 397 146 456 104 424 119 l 399 321 b 615 330 454 324 547 328 l 661 330 l 661 387 b 469 690 656 540 605 690 b 345 631 391 690 361 656 b 330 647 342 635 337 641 b 222 690 302 671 275 690 b 24 431 80 690 38 514 b 16 311 17 397 16 342 b 89 62 16 258 19 137 b 228 0 143 3 190 0 b 330 64 278 0 314 43 b 480 0 366 27 418 0 b 658 127 618 0 658 127 z m 399 442 b 406 546 399 481 399 522 b 469 585 415 577 441 585 b 553 435 522 585 549 506 b 399 428 501 431 458 431 z m 224 104 b 163 130 201 104 176 111 b 119 309 128 182 119 261 l 119 321 b 222 585 121 466 159 585 b 295 511 286 585 295 526 l 294 194 b 224 104 294 154 259 104 z "},"Ŕ":{"ha":719,"x_min":0,"x_max":0,"o":"m 209 1019 l 255 918 b 609 1132 352 950 534 1056 l 526 1231 b 209 1019 448 1158 306 1051 z m 442 366 b 629 616 562 386 629 467 b 572 772 629 673 605 732 b 205 884 490 874 375 884 b 58 873 164 884 86 876 b 61 755 60 832 61 800 l 61 0 l 168 0 l 168 385 b 321 362 219 376 265 368 b 532 45 359 298 466 118 b 631 -15 555 17 591 -9 l 671 76 b 609 117 642 83 621 106 b 442 366 571 161 495 283 z m 524 607 b 377 462 524 497 472 474 b 344 460 366 460 355 460 b 168 488 288 460 235 475 l 166 779 b 209 780 186 780 191 780 b 485 711 361 780 439 764 b 524 607 513 678 524 644 z "},"ŕ":{"ha":719,"x_min":0,"x_max":0,"o":"m 235 821 l 281 720 b 635 934 378 752 559 858 l 551 1033 b 235 821 473 960 332 853 z m 251 593 b 144 709 226 650 185 676 l 73 614 b 142 518 115 576 142 557 l 142 1 l 248 0 l 248 411 b 471 587 316 562 402 587 b 528 490 533 587 525 545 l 633 490 l 633 494 b 490 695 633 618 603 695 b 251 593 385 695 314 671 z "},"Ŗ":{"ha":719,"x_min":0,"x_max":0,"o":"m 263 -41 l 263 -191 l 301 -191 b 243 -292 301 -258 283 -273 l 279 -378 b 412 -186 367 -340 412 -289 l 412 -41 z m 442 366 b 629 616 562 386 629 467 b 572 772 629 673 605 732 b 205 884 490 874 375 884 b 58 873 164 884 86 876 b 61 755 60 832 61 800 l 61 0 l 168 0 l 168 385 b 321 362 219 376 265 368 b 532 45 359 298 466 118 b 631 -15 555 17 591 -9 l 671 76 b 609 117 642 83 621 106 b 442 366 571 161 495 283 z m 524 607 b 377 462 524 497 472 474 b 344 460 366 460 355 460 b 168 488 288 460 235 475 l 166 779 b 209 780 186 780 191 780 b 485 711 361 780 439 764 b 524 607 513 678 524 644 z "},"ŗ":{"ha":719,"x_min":0,"x_max":0,"o":"m 127 -56 l 127 -206 l 165 -206 b 106 -308 165 -273 147 -289 l 143 -394 b 276 -202 231 -356 276 -304 l 276 -56 z m 251 593 b 144 709 226 650 185 676 l 73 614 b 142 518 115 576 142 557 l 142 1 l 248 0 l 248 411 b 471 587 316 562 402 587 b 528 490 533 587 525 545 l 633 490 l 633 494 b 490 695 633 618 603 695 b 251 593 385 695 314 671 z "},"Ř":{"ha":719,"x_min":0,"x_max":0,"o":"m 307 911 l 559 1126 l 487 1199 l 307 1051 l 126 1199 l 56 1126 z m 442 366 b 629 616 562 386 629 467 b 572 772 629 673 605 732 b 205 884 490 874 375 884 b 58 873 164 884 86 876 b 61 755 60 832 61 800 l 61 0 l 168 0 l 168 385 b 321 362 219 376 265 368 b 532 45 359 298 466 118 b 631 -15 555 17 591 -9 l 671 76 b 609 117 642 83 621 106 b 442 366 571 161 495 283 z m 524 607 b 377 462 524 497 472 474 b 344 460 366 460 355 460 b 168 488 288 460 235 475 l 166 779 b 209 780 186 780 191 780 b 485 711 361 780 439 764 b 524 607 513 678 524 644 z "},"ř":{"ha":719,"x_min":0,"x_max":0,"o":"m 380 718 l 632 934 l 560 1006 l 380 859 l 199 1006 l 129 934 z m 251 593 b 144 709 226 650 185 676 l 73 614 b 142 518 115 576 142 557 l 142 1 l 248 0 l 248 411 b 471 587 316 562 402 587 b 528 490 533 587 525 545 l 633 490 l 633 494 b 490 695 633 618 603 695 b 251 593 385 695 314 671 z "},"Ś":{"ha":719,"x_min":0,"x_max":0,"o":"m 174 1013 l 220 913 b 574 1126 317 945 499 1050 l 491 1225 b 174 1013 413 1152 271 1046 z m 168 481 b 441 399 258 440 363 433 b 535 258 495 376 535 330 b 345 96 535 161 484 96 b 136 280 193 96 136 172 l 29 280 b 340 -6 29 129 101 0 l 353 -6 b 644 263 516 -6 644 81 b 501 496 644 381 574 461 b 226 574 412 537 286 546 b 157 674 188 593 157 618 b 180 734 157 697 164 717 b 322 779 212 764 253 779 b 509 669 427 779 484 755 l 617 689 b 325 883 591 829 476 881 l 319 883 b 49 671 176 883 49 817 b 168 481 49 572 106 510 z "},"ś":{"ha":719,"x_min":0,"x_max":0,"o":"m 178 803 l 224 703 b 578 916 321 734 503 840 l 494 1015 b 178 803 416 942 275 836 z m 182 386 b 444 285 253 349 392 322 b 503 194 481 257 503 237 b 338 83 503 119 422 83 b 186 223 233 83 186 132 l 80 224 b 340 -14 80 78 167 -14 b 458 0 379 -14 420 -9 b 608 191 530 19 608 81 b 250 473 608 383 434 397 b 210 534 223 486 210 501 b 342 597 210 578 270 597 b 513 527 400 597 477 569 l 590 602 b 332 698 534 671 415 698 b 103 531 214 698 104 648 b 182 386 103 456 138 410 z "},"Ŝ":{"ha":719,"x_min":0,"x_max":0,"o":"m 326 1198 l 77 975 l 147 903 l 324 1053 l 508 903 l 581 975 z m 168 481 b 441 399 258 440 363 433 b 535 258 495 376 535 330 b 345 96 535 161 484 96 b 136 280 193 96 136 172 l 29 280 b 340 -6 29 129 101 0 l 353 -6 b 644 263 516 -6 644 81 b 501 496 644 381 574 461 b 226 574 412 537 286 546 b 157 674 188 593 157 618 b 180 734 157 697 164 717 b 322 779 212 764 253 779 b 509 669 427 779 484 755 l 617 689 b 325 883 591 829 476 881 l 319 883 b 49 671 176 883 49 817 b 168 481 49 572 106 510 z "},"ŝ":{"ha":719,"x_min":0,"x_max":0,"o":"m 339 1012 l 90 789 l 160 717 l 337 867 l 521 717 l 593 789 z m 182 386 b 444 285 253 349 392 322 b 503 194 481 257 503 237 b 338 83 503 119 422 83 b 186 223 233 83 186 132 l 80 224 b 340 -14 80 78 167 -14 b 458 0 379 -14 420 -9 b 608 191 530 19 608 81 b 250 473 608 383 434 397 b 210 534 223 486 210 501 b 342 597 210 578 270 597 b 513 527 400 597 477 569 l 590 602 b 332 698 534 671 415 698 b 103 531 214 698 104 648 b 182 386 103 456 138 410 z "},"Ş":{"ha":719,"x_min":0,"x_max":0,"o":"m 168 490 b 441 408 258 449 363 442 b 535 263 495 384 535 337 b 345 98 535 164 484 98 b 136 286 193 98 136 176 l 29 286 b 297 -3 29 140 92 17 l 297 -127 b 350 -115 316 -120 317 -115 b 408 -152 382 -115 408 -132 l 408 -153 b 354 -193 406 -179 378 -193 b 270 -164 319 -193 292 -176 l 244 -236 b 376 -277 282 -260 331 -277 b 500 -163 433 -277 500 -232 b 395 -47 500 -93 461 -51 b 396 -4 395 -46 395 -18 b 644 269 538 10 644 99 b 501 507 644 389 574 471 b 226 586 412 548 305 547 b 157 688 188 604 157 631 b 180 749 157 711 164 731 b 322 794 212 780 253 794 b 509 683 427 794 484 771 l 617 703 b 325 901 591 846 476 899 l 319 901 b 49 684 176 901 49 833 b 168 490 49 583 106 520 z "},"ş":{"ha":719,"x_min":0,"x_max":0,"o":"m 165 387 b 427 289 227 355 374 326 b 485 194 464 261 485 243 b 321 83 485 119 404 83 b 169 223 216 83 169 132 l 62 224 b 273 -11 62 93 133 5 l 273 -134 b 326 -123 292 -127 294 -123 b 385 -159 359 -123 385 -140 l 385 -161 b 330 -200 382 -186 355 -200 b 246 -172 296 -200 269 -184 l 220 -243 b 352 -285 258 -268 307 -285 b 477 -171 409 -285 477 -239 b 372 -55 477 -100 437 -58 b 372 -11 372 -54 372 -25 b 440 0 395 -9 418 -5 b 590 191 513 19 590 81 b 233 473 590 366 412 397 b 194 534 205 486 194 501 b 324 597 194 574 252 597 b 496 527 382 597 460 569 l 572 602 b 315 698 517 671 397 698 b 85 531 196 698 86 648 b 165 387 85 456 121 411 z "},"Š":{"ha":719,"x_min":0,"x_max":0,"o":"m 332 911 l 584 1126 l 512 1199 l 332 1051 l 151 1199 l 81 1126 z m 168 481 b 441 399 258 440 363 433 b 535 258 495 376 535 330 b 345 96 535 161 484 96 b 136 280 193 96 136 172 l 29 280 b 340 -6 29 129 101 0 l 353 -6 b 644 263 516 -6 644 81 b 501 496 644 381 574 461 b 226 574 412 537 286 546 b 157 674 188 593 157 618 b 180 734 157 697 164 717 b 322 779 212 764 253 779 b 509 669 427 779 484 755 l 617 689 b 325 883 591 829 476 881 l 319 883 b 49 671 176 883 49 817 b 168 481 49 572 106 510 z "},"š":{"ha":719,"x_min":0,"x_max":0,"o":"m 355 718 l 607 933 l 535 1006 l 355 858 l 174 1006 l 104 933 z m 182 386 b 444 285 253 349 392 322 b 503 194 481 257 503 237 b 338 83 503 119 422 83 b 186 223 233 83 186 132 l 80 224 b 340 -14 80 78 167 -14 b 458 0 379 -14 420 -9 b 608 191 530 19 608 81 b 250 473 608 383 434 397 b 210 534 223 486 210 501 b 342 597 210 578 270 597 b 513 527 400 597 477 569 l 590 602 b 332 698 534 671 415 698 b 103 531 214 698 104 648 b 182 386 103 456 138 410 z "},"Ţ":{"ha":719,"x_min":0,"x_max":0,"o":"m 273 -6 b 277 -77 274 -28 275 -55 l 277 -98 b 330 -87 296 -92 297 -87 b 388 -123 362 -87 388 -104 l 388 -125 b 334 -164 386 -151 358 -164 b 250 -136 299 -164 272 -148 l 224 -208 b 355 -249 262 -232 311 -249 b 480 -135 412 -249 480 -203 b 382 -19 480 -64 448 -22 l 382 791 l 541 791 b 617 783 575 791 617 783 l 640 888 b 545 899 627 890 594 899 b 26 898 417 899 109 898 l 26 791 b 273 791 78 791 139 791 z "},"ţ":{"ha":719,"x_min":0,"x_max":0,"o":"m 218 296 b 227 589 220 364 221 451 b 308 591 258 589 277 591 l 523 591 l 523 691 l 511 691 b 308 690 511 691 406 690 l 225 690 b 227 844 226 736 227 800 l 119 845 b 119 686 119 798 119 734 l 109 686 b 39 678 86 686 56 684 l 53 579 b 109 587 71 584 90 587 l 118 587 b 110 296 114 456 113 367 l 110 267 b 136 109 110 209 113 158 b 327 -2 176 27 238 3 l 327 -105 b 380 -94 346 -98 347 -94 b 438 -130 412 -94 438 -111 l 438 -132 b 384 -171 436 -157 408 -171 b 300 -142 349 -171 322 -155 l 274 -214 b 406 -256 312 -239 361 -256 b 530 -142 463 -256 530 -210 b 425 -26 530 -71 491 -29 l 425 -3 b 538 25 469 -1 507 7 b 636 150 614 69 629 131 l 551 188 b 495 117 546 175 534 138 b 391 101 478 108 435 101 b 317 103 382 101 330 102 b 218 269 242 111 218 179 z "},"Ť":{"ha":719,"x_min":0,"x_max":0,"o":"m 328 915 l 581 1131 l 509 1203 l 329 1055 l 148 1203 l 77 1131 z m 273 -6 l 382 -6 l 382 776 l 541 776 b 617 768 575 776 617 768 l 640 871 b 545 881 627 873 594 881 b 26 880 417 881 109 880 l 26 775 b 273 776 78 775 139 776 z "},"ť":{"ha":719,"x_min":0,"x_max":0,"o":"m 585 996 l 454 1029 b 408 767 439 959 420 863 l 511 744 b 585 996 542 846 559 920 z m 243 296 b 253 589 246 364 247 451 b 334 591 284 589 302 591 l 549 591 l 549 691 l 536 691 b 334 690 536 691 432 690 l 251 690 b 252 844 252 736 252 800 l 145 845 b 144 686 145 798 144 734 l 134 686 b 65 678 112 686 81 684 l 79 579 b 134 587 96 584 115 587 l 144 587 b 136 296 140 456 138 367 l 136 267 b 162 109 136 209 138 158 b 418 -4 210 9 293 -4 b 564 25 475 -4 524 2 b 662 150 640 69 655 131 l 576 188 b 521 117 572 175 559 138 b 416 101 504 108 460 101 b 343 103 408 101 355 102 b 243 269 268 111 243 179 z "},"Ŧ":{"ha":719,"x_min":0,"x_max":0,"o":"m 273 391 l 273 -6 l 382 -6 l 382 391 l 553 391 l 553 498 l 382 498 l 382 776 l 541 776 b 617 768 575 776 617 768 l 640 871 b 545 881 627 873 594 881 b 26 880 417 881 109 880 l 26 775 b 273 776 78 775 139 776 l 273 498 l 109 498 l 109 391 z "},"ŧ":{"ha":719,"x_min":0,"x_max":0,"o":"m 246 296 b 248 342 247 311 247 326 l 433 342 l 433 449 l 250 449 b 256 589 252 489 253 536 b 336 591 287 589 305 591 l 551 591 l 551 691 l 539 691 b 336 690 539 691 435 690 l 254 690 b 255 844 254 736 255 800 l 148 845 b 147 686 148 798 147 734 l 137 686 b 68 678 115 686 84 684 l 81 579 b 137 587 99 584 118 587 l 146 587 b 142 449 145 534 143 489 l 19 449 l 19 342 l 140 342 b 138 296 139 326 139 311 l 138 267 b 165 109 138 209 141 158 b 420 -4 213 9 296 -4 b 566 25 478 -4 527 2 b 665 150 642 69 658 131 l 579 188 b 524 117 574 175 562 138 b 419 101 507 108 463 101 b 346 103 410 101 358 102 b 246 269 271 111 246 179 z "},"Ũ":{"ha":719,"x_min":0,"x_max":0,"o":"m 245 1135 b 55 1003 171 1135 105 1114 l 149 953 b 254 1031 174 1025 214 1031 b 456 949 322 1031 361 949 b 646 1103 545 949 625 1022 l 546 1139 b 446 1053 536 1079 490 1053 b 245 1135 385 1053 346 1135 z m 527 890 b 518 774 520 848 518 822 b 522 476 518 659 522 559 b 469 153 522 342 514 203 b 325 96 432 115 397 99 b 154 298 222 96 166 155 b 149 494 151 338 149 410 b 155 883 149 619 152 771 l 47 883 b 41 528 43 776 41 645 b 46 303 41 437 43 354 b 334 -7 58 106 125 -7 b 550 81 421 -3 494 16 b 629 476 626 168 629 319 l 629 515 b 627 775 629 591 627 677 b 633 882 627 812 627 841 z "},"ũ":{"ha":719,"x_min":0,"x_max":0,"o":"m 235 935 b 44 804 160 935 94 915 l 138 753 b 243 831 163 825 203 831 b 445 749 311 831 350 749 b 635 904 534 749 614 823 l 535 939 b 435 853 526 880 479 853 b 235 935 374 853 335 935 z m 614 -7 l 670 73 b 608 162 643 94 610 127 l 608 692 l 501 692 l 501 233 b 397 134 475 174 429 153 b 289 106 362 113 334 108 b 217 118 261 106 227 111 b 183 170 202 129 187 146 b 170 692 182 418 185 630 l 62 674 b 77 145 80 618 75 327 b 153 30 77 90 123 51 b 294 1 194 2 252 1 l 300 1 b 524 107 401 3 467 49 b 614 -7 539 49 576 21 z "},"Ū":{"ha":719,"x_min":0,"x_max":0,"o":"m 486 1078 l 474 1078 l 363 1078 b 191 1080 300 1078 235 1078 l 178 1081 l 178 976 l 190 975 b 337 974 236 974 287 974 b 474 975 387 974 435 974 l 486 975 z m 527 890 b 518 774 520 848 518 822 b 522 476 518 659 522 559 b 469 153 522 342 514 203 b 325 96 432 115 397 99 b 154 298 222 96 166 155 b 149 494 151 338 149 410 b 155 883 149 619 152 771 l 47 883 b 41 528 43 776 41 645 b 46 303 41 437 43 354 b 334 -7 58 106 125 -7 b 550 81 421 -3 494 16 b 629 476 626 168 629 319 l 629 515 b 627 775 629 591 627 677 b 633 882 627 812 627 841 z "},"ū":{"ha":719,"x_min":0,"x_max":0,"o":"m 499 903 l 488 903 l 376 903 b 204 904 314 903 248 903 l 191 906 l 191 801 l 203 800 b 351 799 250 799 300 799 b 488 800 401 799 448 799 l 499 800 z m 614 -7 l 670 73 b 608 162 643 94 610 127 l 608 692 l 501 692 l 501 233 b 397 134 475 174 429 153 b 289 106 362 113 334 108 b 217 118 261 106 227 111 b 183 170 202 129 187 146 b 170 692 182 418 185 630 l 62 674 b 77 145 80 618 75 327 b 153 30 77 90 123 51 b 294 1 194 2 252 1 l 300 1 b 524 107 401 3 467 49 b 614 -7 539 49 576 21 z "},"Ŭ":{"ha":719,"x_min":0,"x_max":0,"o":"m 346 1037 b 210 1139 283 1037 229 1059 l 104 1118 b 346 933 137 966 260 933 b 591 1112 458 933 575 992 l 479 1133 b 346 1037 475 1080 419 1037 z m 527 890 b 518 774 520 848 518 822 b 522 476 518 659 522 559 b 469 153 522 342 514 203 b 325 96 432 115 397 99 b 154 298 222 96 166 155 b 149 494 151 338 149 410 b 155 883 149 619 152 771 l 47 883 b 41 528 43 776 41 645 b 46 303 41 437 43 354 b 334 -7 58 106 125 -7 b 550 81 421 -3 494 16 b 629 476 626 168 629 319 l 629 515 b 627 775 629 591 627 677 b 633 882 627 812 627 841 z "},"ŭ":{"ha":719,"x_min":0,"x_max":0,"o":"m 351 825 b 216 927 288 825 234 848 l 110 907 b 351 722 142 754 266 722 b 597 901 463 722 581 781 l 484 921 b 351 825 480 868 425 825 z m 614 -7 l 670 73 b 608 162 643 94 610 127 l 608 692 l 501 692 l 501 233 b 397 134 475 174 429 153 b 289 106 362 113 334 108 b 217 118 261 106 227 111 b 183 170 202 129 187 146 b 170 692 182 418 185 630 l 62 674 b 77 145 80 618 75 327 b 153 30 77 90 123 51 b 294 1 194 2 252 1 l 300 1 b 524 107 401 3 467 49 b 614 -7 539 49 576 21 z "},"Ů":{"ha":719,"x_min":0,"x_max":0,"o":"m 284 1042 b 343 1089 284 1066 308 1089 b 401 1042 379 1089 401 1066 b 343 994 401 1019 378 994 b 284 1042 309 994 284 1019 z m 197 1041 b 344 909 197 966 266 909 b 491 1041 422 909 491 966 b 344 1173 491 1116 422 1173 b 197 1041 266 1173 197 1116 z m 527 890 b 518 774 520 848 518 822 b 522 476 518 659 522 559 b 469 153 522 342 514 203 b 325 96 432 115 397 99 b 154 298 222 96 166 155 b 149 494 151 338 149 410 b 155 883 149 619 152 771 l 47 883 b 41 528 43 776 41 645 b 46 303 41 437 43 354 b 334 -7 58 106 125 -7 b 550 81 421 -3 494 16 b 629 476 626 168 629 319 l 629 515 b 627 775 629 591 627 677 b 633 882 627 812 627 841 z "},"ů":{"ha":719,"x_min":0,"x_max":0,"o":"m 290 843 b 349 890 290 867 314 890 b 407 843 384 890 407 867 b 349 794 407 819 384 794 b 290 843 314 794 290 819 z m 202 842 b 350 709 202 766 272 709 b 496 842 428 709 496 766 b 350 974 496 917 428 974 b 202 842 272 974 202 917 z m 614 -7 l 670 73 b 608 162 643 94 610 127 l 608 692 l 501 692 l 501 233 b 397 134 475 174 429 153 b 289 106 362 113 334 108 b 217 118 261 106 227 111 b 183 170 202 129 187 146 b 170 692 182 418 185 630 l 62 674 b 77 145 80 618 75 327 b 153 30 77 90 123 51 b 294 1 194 2 252 1 l 300 1 b 524 107 401 3 467 49 b 614 -7 539 49 576 21 z "},"Ű":{"ha":719,"x_min":0,"x_max":0,"o":"m 368 975 l 446 897 b 685 1179 526 960 641 1082 l 581 1247 b 368 975 533 1152 448 1039 z m 140 979 l 218 901 b 457 1185 298 965 413 1087 l 353 1252 b 140 979 305 1156 220 1044 z m 527 890 b 518 774 520 848 518 822 b 522 476 518 659 522 559 b 469 153 522 342 514 203 b 325 96 432 115 397 99 b 154 298 222 96 166 155 b 149 494 151 338 149 410 b 155 883 149 619 152 771 l 47 883 b 41 528 43 776 41 645 b 46 303 41 437 43 354 b 334 -7 58 106 125 -7 b 550 81 421 -3 494 16 b 629 476 626 168 629 319 l 629 515 b 627 775 629 591 627 677 b 633 882 627 812 627 841 z "},"ű":{"ha":719,"x_min":0,"x_max":0,"o":"m 353 800 l 431 722 b 670 1004 511 785 626 907 l 566 1072 b 353 800 518 977 433 864 z m 125 804 l 203 726 b 442 1010 283 790 398 912 l 338 1077 b 125 804 290 981 205 869 z m 614 -7 l 670 73 b 608 162 643 94 610 127 l 608 692 l 501 692 l 501 233 b 397 134 475 174 429 153 b 289 106 362 113 334 108 b 217 118 261 106 227 111 b 183 170 202 129 187 146 b 170 692 182 418 185 630 l 62 674 b 77 145 80 618 75 327 b 153 30 77 90 123 51 b 294 1 194 2 252 1 l 300 1 b 524 107 401 3 467 49 b 614 -7 539 49 576 21 z "},"Ų":{"ha":719,"x_min":0,"x_max":0,"o":"m 527 890 b 518 774 520 848 518 822 b 522 476 518 659 522 559 b 469 153 522 342 514 203 b 325 96 432 115 397 99 b 154 298 222 96 166 155 b 149 494 151 338 149 410 b 155 883 149 619 152 771 l 47 883 b 41 528 43 776 41 645 b 46 303 41 437 43 354 b 334 -7 58 106 125 -7 b 349 -6 339 -7 345 -6 b 264 -154 301 -54 264 -85 b 448 -309 264 -245 321 -309 b 591 -245 502 -309 562 -278 l 538 -173 b 451 -210 518 -188 490 -210 b 370 -154 408 -210 370 -192 b 550 81 370 -49 484 0 b 629 476 626 168 629 319 l 629 515 b 627 775 629 591 627 677 b 633 882 627 812 627 841 z "},"ų":{"ha":719,"x_min":0,"x_max":0,"o":"m 667 56 b 608 162 640 77 610 127 l 609 692 l 502 692 l 501 233 b 397 134 475 174 429 153 b 289 106 362 113 334 108 b 217 118 261 106 227 111 b 183 170 202 129 187 146 b 170 692 182 418 185 630 l 62 674 b 77 145 80 618 75 327 b 153 30 77 90 123 51 b 294 1 194 2 252 1 l 300 1 b 524 107 401 3 467 49 b 545 58 530 84 537 69 b 313 -146 439 -13 313 -47 b 496 -301 313 -238 369 -301 b 640 -238 550 -301 610 -271 l 587 -165 b 499 -203 566 -180 538 -203 b 418 -146 456 -203 418 -184 b 667 56 418 -87 513 -77 z "},"Ŵ":{"ha":719,"x_min":0,"x_max":0,"o":"m 341 1216 l 92 994 l 162 921 l 339 1071 l 523 921 l 595 994 z m 225 0 b 353 416 231 15 321 263 b 474 0 375 291 474 0 l 566 0 b 696 870 589 121 661 700 l 589 892 b 505 203 503 423 527 397 b 408 657 465 329 433 528 b 295 649 385 649 326 649 b 197 202 291 601 244 358 b 109 894 167 412 190 458 l 4 872 b 136 0 35 702 107 115 z "},"ŵ":{"ha":719,"x_min":0,"x_max":0,"o":"m 330 1020 l 81 798 l 151 725 l 328 875 l 512 725 l 585 798 z m 4 662 b 56 536 18 637 45 576 b 103 6 93 395 100 77 b 144 -2 115 1 125 -1 l 148 -2 l 152 -2 b 364 142 282 0 339 87 b 403 0 374 100 391 43 l 426 0 l 439 0 b 671 481 583 0 671 149 b 665 692 671 536 669 660 l 559 692 b 576 462 568 644 576 546 b 465 100 576 209 526 100 b 416 353 444 169 416 245 l 416 559 l 321 559 l 321 380 b 198 101 321 205 279 101 b 164 539 193 222 195 375 b 104 713 149 621 127 673 z "},"Ŷ":{"ha":719,"x_min":0,"x_max":0,"o":"m 328 1232 l 78 1010 l 149 937 l 326 1087 l 509 937 l 582 1010 z m 271 -4 l 379 -4 l 379 85 b 382 299 379 113 380 210 b 384 400 382 336 384 368 b 503 582 397 418 444 493 b 656 856 574 696 624 792 l 562 909 b 334 515 536 850 400 609 b 117 901 275 608 144 848 l 22 852 b 275 408 57 781 222 483 b 271 92 275 327 271 153 z "},"ŷ":{"ha":719,"x_min":0,"x_max":0,"o":"m 337 1020 l 87 798 l 158 725 l 335 875 l 519 725 l 591 798 z m 228 -151 b 144 0 174 -151 144 -120 l 38 0 b 231 -255 38 -183 112 -255 b 420 -96 332 -255 385 -188 b 623 578 510 115 578 338 b 632 692 629 612 632 651 l 525 692 b 425 195 519 538 475 342 b 125 687 348 415 238 670 b 50 692 106 690 72 692 l 50 589 b 124 568 74 589 102 588 b 362 46 218 484 298 269 b 228 -151 336 -26 300 -151 z "},"Ÿ":{"ha":719,"x_min":0,"x_max":0,"o":"m 104 1106 l 104 954 l 263 951 l 263 1104 z m 379 1104 l 379 951 l 538 949 l 538 1102 z m 271 -4 l 379 -4 l 379 85 b 382 299 379 113 380 210 b 384 400 382 336 384 368 b 503 582 397 418 444 493 b 656 856 574 696 624 792 l 562 909 b 334 515 536 850 400 609 b 117 901 275 608 144 848 l 22 852 b 275 408 57 781 222 483 b 271 92 275 327 271 153 z "},"Ź":{"ha":719,"x_min":0,"x_max":0,"o":"m 212 1009 l 258 909 b 612 1122 355 941 536 1046 l 528 1221 b 212 1009 450 1148 309 1042 z m 83 -3 l 88 -3 b 384 -2 121 -3 240 -2 l 549 -2 b 656 18 600 -2 625 7 l 629 119 b 509 102 585 104 566 102 l 178 102 l 637 779 b 650 872 640 795 648 850 b 555 883 637 874 606 883 b 60 880 427 883 141 880 l 60 777 b 512 780 138 777 367 780 l 19 56 z "},"ź":{"ha":719,"x_min":0,"x_max":0,"o":"m 197 810 l 243 709 b 597 923 340 741 522 847 l 513 1022 b 197 810 435 949 294 842 z m 65 593 b 270 585 104 587 185 585 b 436 584 329 585 391 584 l 457 584 b 296 419 415 545 361 490 b 63 128 203 318 115 236 b 48 14 49 98 48 63 l 48 0 l 533 0 b 619 -15 577 0 589 -6 l 646 83 b 532 105 605 97 570 105 l 167 106 b 374 355 218 196 291 270 b 612 614 513 499 605 606 l 596 692 l 272 692 b 83 695 188 692 115 692 z "},"Ż":{"ha":719,"x_min":0,"x_max":0,"o":"m 290 1115 l 290 962 l 450 960 l 450 1113 z m 83 -3 l 88 -3 b 384 -2 121 -3 240 -2 l 549 -2 b 656 18 600 -2 625 7 l 629 119 b 509 102 585 104 566 102 l 178 102 l 637 779 b 650 872 640 795 648 850 b 555 883 637 874 606 883 b 60 880 427 883 141 880 l 60 777 b 512 780 138 777 367 780 l 19 56 z "},"ż":{"ha":719,"x_min":0,"x_max":0,"o":"m 261 951 l 261 799 l 420 799 l 420 951 z m 65 593 b 270 585 104 587 185 585 b 436 584 329 585 391 584 l 457 584 b 296 419 415 545 361 490 b 63 128 203 318 115 236 b 48 14 49 98 48 63 l 48 0 l 533 0 b 619 -15 577 0 589 -6 l 646 83 b 532 105 605 97 570 105 l 167 106 b 374 355 218 196 291 270 b 612 614 513 499 605 606 l 596 692 l 272 692 b 83 695 188 692 115 692 z "},"Ž":{"ha":719,"x_min":0,"x_max":0,"o":"m 353 925 l 605 1141 l 533 1213 l 353 1065 l 172 1213 l 102 1141 z m 83 -3 l 88 -3 b 384 -2 121 -3 240 -2 l 549 -2 b 656 18 600 -2 625 7 l 629 119 b 509 102 585 104 566 102 l 178 102 l 637 779 b 650 872 640 795 648 850 b 555 883 637 874 606 883 b 60 880 427 883 141 880 l 60 777 b 512 780 138 777 367 780 l 19 56 z "},"ž":{"ha":719,"x_min":0,"x_max":0,"o":"m 370 715 l 623 931 l 551 1004 l 371 856 l 190 1004 l 119 931 z m 65 593 b 270 585 104 587 185 585 b 436 584 329 585 391 584 l 457 584 b 296 419 415 545 361 490 b 63 128 203 318 115 236 b 48 14 49 98 48 63 l 48 0 l 533 0 b 619 -15 577 0 589 -6 l 646 83 b 532 105 605 97 570 105 l 167 106 b 374 355 218 196 291 270 b 612 614 513 499 605 606 l 596 692 l 272 692 b 83 695 188 692 115 692 z "},"ſ":{"ha":719,"x_min":0,"x_max":0,"o":"m 588 852 l 608 952 b 460 962 567 960 511 962 b 252 722 271 962 252 819 b 254 686 252 709 254 697 l 100 686 l 100 583 l 252 583 b 255 0 254 483 255 17 l 361 0 b 359 687 361 3 359 583 l 359 719 b 465 859 359 792 365 859 b 588 852 513 859 559 857 z "},"ƀ":{"ha":719,"x_min":0,"x_max":0,"o":"m 638 311 b 336 692 638 539 555 692 b 206 644 268 692 239 668 l 206 766 l 429 766 l 429 871 l 204 871 b 197 958 202 902 200 932 l 89 951 b 96 871 92 927 94 900 l 0 871 l 0 766 l 99 766 b 100 181 99 578 100 345 l 100 165 b 87 5 100 109 94 50 l 199 -8 b 206 57 202 14 205 28 b 379 -5 249 19 303 -5 b 638 311 566 -5 638 130 z m 532 324 b 379 100 532 186 494 100 b 206 208 286 100 254 131 l 206 505 b 345 587 241 539 283 587 b 532 324 456 587 532 516 z "},"Ɛ":{"ha":719,"x_min":0,"x_max":0,"o":"m 637 109 l 571 193 b 340 104 537 161 465 104 b 139 263 222 104 139 163 b 229 423 139 309 157 395 b 359 445 278 442 317 445 b 410 444 376 445 393 444 l 410 547 l 398 547 l 395 547 b 177 668 323 547 177 556 b 364 776 177 734 256 776 b 578 715 458 776 531 744 l 631 810 b 371 880 582 838 524 880 l 363 880 b 75 668 174 880 75 800 b 178 495 75 595 104 519 b 36 264 78 471 36 385 b 106 72 36 196 46 128 b 340 0 159 23 221 0 b 637 109 509 0 591 73 z "},"Ƒ":{"ha":719,"x_min":0,"x_max":0,"o":"m 12 -54 l 17 -166 b 244 62 142 -161 244 -68 b 241 452 244 125 241 370 b 329 453 285 453 304 453 l 392 453 b 482 444 422 453 457 450 l 507 542 l 494 545 b 394 555 494 545 454 555 b 241 553 311 555 322 553 l 241 776 b 467 777 365 777 396 777 l 514 777 b 613 758 581 776 595 767 l 651 857 b 543 880 628 868 595 878 l 135 881 l 136 66 b 12 -54 136 -1 79 -54 z "},"ƒ":{"ha":719,"x_min":0,"x_max":0,"o":"m 224 103 b 67 -113 224 -63 184 -113 l 59 -212 b 331 103 283 -212 331 -71 b 328 583 331 106 328 478 l 486 583 b 553 574 524 583 538 578 l 572 673 b 463 686 552 679 534 684 b 328 687 414 686 374 687 l 328 719 b 434 859 328 792 334 859 b 600 779 524 859 566 845 l 686 831 b 429 962 629 944 538 962 b 221 722 241 962 221 819 b 222 686 221 709 222 697 l 125 686 l 125 583 l 221 583 b 224 103 222 483 224 120 z "},"Ƥ":{"ha":719,"x_min":0,"x_max":0,"o":"m 551 610 b 369 415 551 456 476 415 b 313 416 347 415 313 416 b 314 692 313 416 314 568 l 314 777 b 402 781 345 778 361 781 b 551 610 476 781 551 741 z m 313 -7 b 313 314 313 99 313 136 b 403 312 340 313 370 312 b 661 614 557 312 661 412 b 387 883 661 779 575 883 b 203 877 297 883 239 881 b 17 629 102 868 17 812 l 125 629 b 205 775 125 758 163 772 l 205 -6 z "},"Ǎ":{"ha":719,"x_min":0,"x_max":0,"o":"m 350 980 l 602 1196 l 530 1268 l 351 1120 l 170 1268 l 99 1196 z m 486 342 l 363 340 b 228 329 307 338 269 338 l 354 741 z m 294 882 l 50 108 b 28 0 41 79 29 19 l 138 0 b 155 82 138 19 148 62 l 195 203 b 515 225 270 222 420 223 l 563 83 b 576 0 568 64 576 16 l 688 0 b 667 117 686 37 674 92 l 410 882 z "},"ǎ":{"ha":719,"x_min":0,"x_max":0,"o":"m 321 783 l 573 998 l 501 1071 l 321 923 l 140 1071 l 70 998 z m 159 211 b 332 342 159 291 239 341 b 491 298 402 342 452 322 l 491 234 b 260 99 473 206 402 99 b 159 211 197 99 159 140 z m 597 216 l 597 439 b 328 697 597 592 492 697 b 50 533 206 697 115 656 l 138 477 b 329 595 193 574 235 595 b 491 405 444 595 491 533 b 326 439 454 427 412 439 b 113 357 246 439 178 423 b 53 204 73 316 53 256 b 260 -4 53 92 144 -4 b 515 106 393 -4 463 55 b 604 -7 528 37 568 20 l 660 74 b 606 117 640 90 615 105 b 597 216 597 129 597 192 z "},"Ǐ":{"ha":719,"x_min":0,"x_max":0,"o":"m 342 903 l 595 1118 l 523 1191 l 343 1043 l 162 1191 l 92 1118 z m 103 880 l 107 776 b 286 781 179 780 241 780 l 286 102 l 235 102 b 105 99 197 102 163 102 l 105 -2 b 328 3 210 -2 278 3 b 433 3 368 3 401 3 b 576 -1 476 3 518 3 l 576 101 b 478 104 541 103 509 104 b 395 103 444 104 426 103 l 395 781 b 576 778 460 781 492 778 l 576 881 b 329 883 465 882 400 883 b 103 880 264 883 209 883 z "},"ǐ":{"ha":719,"x_min":0,"x_max":0,"o":"m 310 783 l 562 998 l 490 1071 l 311 923 l 130 1071 l 59 998 z m 283 687 b 62 659 212 687 138 676 l 81 562 b 256 581 146 577 223 581 l 256 140 b 319 14 256 100 262 45 b 458 -12 349 -3 401 -12 b 698 56 543 -12 640 8 l 652 134 b 458 84 605 98 521 84 b 362 142 395 84 366 87 b 361 687 362 142 361 502 z "},"Ǒ":{"ha":719,"x_min":0,"x_max":0,"o":"m 353 909 l 605 1124 l 533 1197 l 354 1049 l 173 1197 l 102 1124 z m 342 899 b 115 787 236 897 160 848 b 16 388 68 723 16 622 b 110 88 16 266 49 163 b 334 -9 165 20 251 -9 b 585 145 446 -9 534 47 b 647 423 617 208 647 312 l 647 431 b 342 899 644 849 426 899 z m 180 166 b 123 391 142 216 123 320 b 203 725 123 568 157 665 b 346 795 243 777 281 795 b 492 690 406 795 453 767 b 540 438 528 620 540 516 l 540 425 b 492 197 539 353 519 240 b 334 95 462 140 412 95 b 180 166 260 95 214 122 z "},"ǒ":{"ha":719,"x_min":0,"x_max":0,"o":"m 315 783 l 568 998 l 496 1071 l 316 923 l 135 1071 l 64 998 z m 444 146 b 328 106 410 117 380 106 b 156 318 215 106 156 186 b 339 595 156 484 198 595 b 504 372 459 595 503 496 l 504 359 b 444 146 504 259 488 187 z m 327 1 l 328 1 b 612 368 547 1 612 175 b 572 564 612 433 600 510 b 316 700 524 653 450 700 b 49 315 118 700 49 513 b 327 1 49 125 142 1 z "},"Ǔ":{"ha":719,"x_min":0,"x_max":0,"o":"m 335 884 l 587 1100 l 515 1173 l 336 1025 l 155 1173 l 84 1100 z m 527 890 b 518 774 520 848 518 822 b 522 476 518 659 522 559 b 469 153 522 342 514 203 b 325 96 432 115 397 99 b 154 298 222 96 166 155 b 149 494 151 338 149 410 b 155 883 149 619 152 771 l 47 883 b 41 528 43 776 41 645 b 46 303 41 437 43 354 b 334 -7 58 106 125 -7 b 550 81 421 -3 494 16 b 629 476 626 168 629 319 l 629 515 b 627 775 629 591 627 677 b 633 882 627 812 627 841 z "},"ǔ":{"ha":719,"x_min":0,"x_max":0,"o":"m 347 736 l 599 951 l 527 1024 l 347 876 l 166 1024 l 96 951 z m 614 -7 l 670 73 b 608 162 643 94 610 127 l 608 692 l 501 692 l 501 233 b 397 134 475 174 429 153 b 289 106 362 113 334 108 b 217 118 261 106 227 111 b 183 170 202 129 187 146 b 170 692 182 418 185 630 l 62 674 b 77 145 80 618 75 327 b 153 30 77 90 123 51 b 294 1 194 2 252 1 l 300 1 b 524 107 401 3 467 49 b 614 -7 539 49 576 21 z "},"Ǖ":{"ha":719,"x_min":0,"x_max":0,"o":"m 484 1264 l 473 1264 l 361 1264 b 189 1265 299 1264 233 1264 l 176 1267 l 176 1162 l 189 1161 b 336 1160 235 1160 286 1160 b 473 1161 386 1160 433 1160 l 484 1161 z m 124 1120 l 124 968 l 283 966 l 283 1118 z m 399 1118 l 399 966 l 559 964 l 559 1116 z m 527 890 b 518 774 520 848 518 822 b 522 476 518 659 522 559 b 469 153 522 342 514 203 b 325 96 432 115 397 99 b 154 298 222 96 166 155 b 149 494 151 338 149 410 b 155 883 149 619 152 771 l 47 883 b 41 528 43 776 41 645 b 46 303 41 437 43 354 b 334 -7 58 106 125 -7 b 550 81 421 -3 494 16 b 629 476 626 168 629 319 l 629 515 b 627 775 629 591 627 677 b 633 882 627 812 627 841 z "},"ǖ":{"ha":719,"x_min":0,"x_max":0,"o":"m 497 1114 l 486 1114 l 374 1114 b 202 1115 312 1114 246 1114 l 189 1116 l 189 1011 l 201 1010 b 349 1009 248 1009 298 1009 b 486 1010 399 1009 446 1009 l 497 1010 z m 134 956 l 134 803 l 293 801 l 293 954 z m 409 954 l 409 801 l 568 799 l 568 951 z m 614 -7 l 670 73 b 608 162 643 94 610 127 l 608 692 l 501 692 l 501 233 b 397 134 475 174 429 153 b 289 106 362 113 334 108 b 217 118 261 106 227 111 b 183 170 202 129 187 146 b 170 692 182 418 185 630 l 62 674 b 77 145 80 618 75 327 b 153 30 77 90 123 51 b 294 1 194 2 252 1 l 300 1 b 524 107 401 3 467 49 b 614 -7 539 49 576 21 z "},"Ǘ":{"ha":719,"x_min":0,"x_max":0,"o":"m 184 1241 l 230 1141 b 584 1354 327 1173 509 1278 l 500 1453 b 184 1241 422 1380 281 1274 z m 124 1120 l 124 968 l 283 966 l 283 1118 z m 399 1118 l 399 966 l 559 964 l 559 1116 z m 527 890 b 518 774 520 848 518 822 b 522 476 518 659 522 559 b 469 153 522 342 514 203 b 325 96 432 115 397 99 b 154 298 222 96 166 155 b 149 494 151 338 149 410 b 155 883 149 619 152 771 l 47 883 b 41 528 43 776 41 645 b 46 303 41 437 43 354 b 334 -7 58 106 125 -7 b 550 81 421 -3 494 16 b 629 476 626 168 629 319 l 629 515 b 627 775 629 591 627 677 b 633 882 627 812 627 841 z "},"ǘ":{"ha":719,"x_min":0,"x_max":0,"o":"m 167 1076 l 213 975 b 567 1189 310 1007 492 1113 l 484 1288 b 167 1076 406 1215 264 1108 z m 134 956 l 134 803 l 293 801 l 293 954 z m 409 954 l 409 801 l 568 799 l 568 951 z m 614 -7 l 670 73 b 608 162 643 94 610 127 l 608 692 l 501 692 l 501 233 b 397 134 475 174 429 153 b 289 106 362 113 334 108 b 217 118 261 106 227 111 b 183 170 202 129 187 146 b 170 692 182 418 185 630 l 62 674 b 77 145 80 618 75 327 b 153 30 77 90 123 51 b 294 1 194 2 252 1 l 300 1 b 524 107 401 3 467 49 b 614 -7 539 49 576 21 z "},"Ǚ":{"ha":719,"x_min":0,"x_max":0,"o":"m 340 1119 l 593 1335 l 521 1407 l 341 1259 l 160 1407 l 90 1335 z m 124 1120 l 124 968 l 283 966 l 283 1118 z m 399 1118 l 399 966 l 559 964 l 559 1116 z m 527 890 b 518 774 520 848 518 822 b 522 476 518 659 522 559 b 469 153 522 342 514 203 b 325 96 432 115 397 99 b 154 298 222 96 166 155 b 149 494 151 338 149 410 b 155 883 149 619 152 771 l 47 883 b 41 528 43 776 41 645 b 46 303 41 437 43 354 b 334 -7 58 106 125 -7 b 550 81 421 -3 494 16 b 629 476 626 168 629 319 l 629 515 b 627 775 629 591 627 677 b 633 882 627 812 627 841 z "},"ǚ":{"ha":719,"x_min":0,"x_max":0,"o":"m 351 965 l 603 1181 l 531 1253 l 351 1105 l 170 1253 l 100 1181 z m 134 956 l 134 803 l 293 801 l 293 954 z m 409 954 l 409 801 l 568 799 l 568 951 z m 614 -7 l 670 73 b 608 162 643 94 610 127 l 608 692 l 501 692 l 501 233 b 397 134 475 174 429 153 b 289 106 362 113 334 108 b 217 118 261 106 227 111 b 183 170 202 129 187 146 b 170 692 182 418 185 630 l 62 674 b 77 145 80 618 75 327 b 153 30 77 90 123 51 b 294 1 194 2 252 1 l 300 1 b 524 107 401 3 467 49 b 614 -7 539 49 576 21 z "},"Ǜ":{"ha":719,"x_min":0,"x_max":0,"o":"m 496 1241 b 179 1453 399 1274 257 1380 l 96 1354 b 450 1141 171 1278 353 1173 z m 124 1120 l 124 968 l 283 966 l 283 1118 z m 399 1118 l 399 966 l 559 964 l 559 1116 z m 527 890 b 518 774 520 848 518 822 b 522 476 518 659 522 559 b 469 153 522 342 514 203 b 325 96 432 115 397 99 b 154 298 222 96 166 155 b 149 494 151 338 149 410 b 155 883 149 619 152 771 l 47 883 b 41 528 43 776 41 645 b 46 303 41 437 43 354 b 334 -7 58 106 125 -7 b 550 81 421 -3 494 16 b 629 476 626 168 629 319 l 629 515 b 627 775 629 591 627 677 b 633 882 627 812 627 841 z "},"ǜ":{"ha":719,"x_min":0,"x_max":0,"o":"m 493 1065 b 176 1278 396 1098 254 1204 l 93 1179 b 447 965 168 1103 350 997 z m 134 956 l 134 803 l 293 801 l 293 954 z m 409 954 l 409 801 l 568 799 l 568 951 z m 614 -7 l 670 73 b 608 162 643 94 610 127 l 608 692 l 501 692 l 501 233 b 397 134 475 174 429 153 b 289 106 362 113 334 108 b 217 118 261 106 227 111 b 183 170 202 129 187 146 b 170 692 182 418 185 630 l 62 674 b 77 145 80 618 75 327 b 153 30 77 90 123 51 b 294 1 194 2 252 1 l 300 1 b 524 107 401 3 467 49 b 614 -7 539 49 576 21 z "},"Ǟ":{"ha":719,"x_min":0,"x_max":0,"o":"m 494 1239 l 482 1239 l 371 1239 b 199 1240 309 1239 243 1239 l 186 1242 l 186 1137 l 198 1136 b 345 1135 244 1135 295 1135 b 482 1136 395 1135 443 1135 l 494 1136 z m 134 1090 l 134 937 l 293 935 l 293 1088 z m 409 1088 l 409 935 l 568 933 l 568 1086 z m 486 342 l 363 340 b 228 329 307 338 269 338 l 354 741 z m 294 882 l 50 108 b 28 0 41 79 29 19 l 138 0 b 155 82 138 19 148 62 l 195 203 b 515 225 270 222 420 223 l 563 83 b 576 0 568 64 576 16 l 688 0 b 667 117 686 37 674 92 l 410 882 z "},"ǟ":{"ha":719,"x_min":0,"x_max":0,"o":"m 471 1112 l 460 1112 l 349 1112 b 176 1114 286 1112 220 1112 l 163 1115 l 163 1010 l 176 1009 b 323 1008 222 1008 273 1008 b 460 1009 373 1008 420 1008 l 471 1009 z m 104 954 l 104 801 l 263 799 l 263 951 z m 379 951 l 379 799 l 538 797 l 538 949 z m 159 211 b 332 342 159 291 239 341 b 491 298 402 342 452 322 l 491 234 b 260 99 473 206 402 99 b 159 211 197 99 159 140 z m 597 216 l 597 439 b 328 697 597 592 492 697 b 50 533 206 697 115 656 l 138 477 b 329 595 193 574 235 595 b 491 405 444 595 491 533 b 326 439 454 427 412 439 b 113 357 246 439 178 423 b 53 204 73 316 53 256 b 260 -4 53 92 144 -4 b 515 106 393 -4 463 55 b 604 -7 528 37 568 20 l 660 74 b 606 117 640 90 615 105 b 597 216 597 129 597 192 z "},"Ǡ":{"ha":719,"x_min":0,"x_max":0,"o":"m 506 1300 l 494 1300 l 383 1300 b 211 1301 321 1300 255 1300 l 198 1303 l 198 1198 l 210 1197 b 357 1196 256 1196 307 1196 b 494 1197 408 1196 455 1196 l 506 1197 z m 271 1135 l 271 982 l 431 980 l 431 1133 z m 486 342 l 363 340 b 228 329 307 338 269 338 l 354 741 z m 294 882 l 50 108 b 28 0 41 79 29 19 l 138 0 b 155 82 138 19 148 62 l 195 203 b 515 225 270 222 420 223 l 563 83 b 576 0 568 64 576 16 l 688 0 b 667 117 686 37 674 92 l 410 882 z "},"ǡ":{"ha":719,"x_min":0,"x_max":0,"o":"m 471 1108 l 459 1108 l 348 1108 b 176 1109 286 1108 220 1108 l 163 1111 l 163 1006 l 175 1005 b 322 1004 221 1004 272 1004 b 459 1005 372 1004 420 1004 l 471 1005 z m 241 951 l 241 799 l 400 799 l 400 951 z m 159 211 b 332 342 159 291 239 341 b 491 298 402 342 452 322 l 491 234 b 260 99 473 206 402 99 b 159 211 197 99 159 140 z m 597 216 l 597 439 b 328 697 597 592 492 697 b 50 533 206 697 115 656 l 138 477 b 329 595 193 574 235 595 b 491 405 444 595 491 533 b 326 439 454 427 412 439 b 113 357 246 439 178 423 b 53 204 73 316 53 256 b 260 -4 53 92 144 -4 b 515 106 393 -4 463 55 b 604 -7 528 37 568 20 l 660 74 b 606 117 640 90 615 105 b 597 216 597 129 597 192 z "},"Ǣ":{"ha":719,"x_min":0,"x_max":0,"o":"m 476 1058 l 465 1058 l 353 1058 b 181 1059 291 1058 225 1058 l 168 1061 l 168 956 l 180 955 b 328 954 227 954 277 954 b 465 955 378 954 425 954 l 476 955 z m 319 332 b 187 322 234 331 187 322 l 284 742 z m 326 235 l 342 0 l 599 -2 l 603 -2 b 707 18 652 -2 675 9 l 677 119 b 597 101 677 119 635 101 l 432 100 l 404 452 l 594 452 l 594 553 l 391 553 l 373 776 l 648 776 l 648 878 b 420 878 582 878 526 878 b 237 877 354 878 279 878 l 25 108 b 3 0 17 79 4 19 l 113 0 b 130 82 113 19 125 62 l 164 218 b 326 235 164 218 217 232 z "},"ǣ":{"ha":719,"x_min":0,"x_max":0,"o":"m 507 910 l 496 910 l 385 910 b 212 912 322 910 256 910 l 199 913 l 199 808 l 212 807 b 359 806 258 806 309 806 b 496 807 409 806 456 806 l 507 807 z m 120 220 b 205 345 120 288 152 345 b 299 321 241 345 270 338 l 299 222 b 204 110 291 172 265 110 b 120 220 148 110 120 146 z m 403 417 b 497 589 403 527 410 589 b 559 422 545 589 559 494 b 403 417 503 422 463 421 z m 342 66 b 484 3 380 26 429 3 b 670 115 536 3 607 30 l 597 183 b 497 109 572 147 537 109 b 403 149 454 109 420 130 l 403 315 l 662 322 b 491 694 662 457 656 694 b 348 616 408 694 376 658 b 314 656 340 629 327 646 b 203 694 273 688 241 694 b 18 573 120 694 76 664 l 11 561 l 90 511 l 97 520 b 197 590 142 588 162 590 l 203 590 b 299 427 284 590 299 492 b 197 448 273 437 250 448 b 16 210 59 448 16 323 b 88 39 16 143 33 77 b 212 3 125 13 169 3 b 342 66 281 3 322 43 z "},"Ǧ":{"ha":719,"x_min":0,"x_max":0,"o":"m 366 899 l 618 1114 l 546 1187 l 366 1039 l 185 1187 l 115 1114 z m 584 497 b 471 498 547 497 509 498 b 267 470 403 498 332 494 l 294 372 b 450 397 355 394 402 397 b 511 397 470 397 490 397 b 560 398 526 397 543 397 b 429 106 560 179 513 125 b 373 100 412 101 393 100 b 123 418 176 100 123 243 b 216 730 123 535 141 666 b 368 780 269 776 311 780 b 565 649 473 780 530 726 l 662 696 b 375 883 611 806 520 880 l 361 883 b 138 804 283 883 206 864 b 14 426 50 718 14 587 b 366 -5 14 190 119 -5 b 469 2 395 -5 438 -5 b 673 410 589 33 673 115 l 673 502 b 584 497 644 499 615 497 z "},"ǧ":{"ha":719,"x_min":0,"x_max":0,"o":"m 348 757 l 600 972 l 528 1045 l 349 897 l 168 1045 l 97 972 z m 161 -52 b 218 47 161 -9 180 32 b 361 48 317 48 355 48 b 545 -17 444 48 545 41 b 372 -157 545 -130 450 -157 l 301 -157 b 161 -52 212 -157 161 -137 z m 323 378 b 172 481 235 378 172 402 b 334 593 172 543 241 593 b 477 479 420 593 477 566 b 323 378 477 413 410 378 z m 64 474 b 106 357 64 425 83 383 b 56 222 77 325 56 284 b 113 93 56 170 75 121 b 54 -56 76 60 54 12 b 298 -263 54 -197 155 -263 l 368 -263 b 652 -16 534 -263 652 -192 b 407 153 652 113 534 153 b 284 151 389 153 302 151 b 162 231 199 151 162 180 b 191 298 162 259 178 283 b 326 276 235 281 278 276 b 583 481 479 276 583 353 b 563 574 583 514 581 543 b 625 589 574 586 601 589 b 654 586 631 589 646 587 l 654 697 b 506 655 580 697 544 690 b 334 696 462 682 412 696 b 64 474 167 696 64 616 z "},"Ǩ":{"ha":719,"x_min":0,"x_max":0,"o":"m 350 884 l 602 1100 l 530 1173 l 351 1025 l 170 1173 l 99 1100 z m 328 492 b 660 817 369 541 536 727 l 585 888 b 355 675 570 874 485 808 b 186 477 288 606 240 552 l 186 887 l 79 887 l 79 -3 l 186 -3 l 186 292 b 263 407 206 340 263 407 b 589 -12 351 321 557 62 l 680 40 b 328 492 645 132 410 412 z "},"ǩ":{"ha":719,"x_min":0,"x_max":0,"o":"m 142 975 l 395 1190 l 323 1263 l 143 1115 l -38 1263 l -109 1190 z m 397 384 b 333 393 379 384 358 387 b 199 419 300 400 256 410 l 199 480 b 370 576 249 514 302 545 b 427 591 392 587 411 591 b 498 539 470 591 492 562 b 503 505 502 529 503 517 b 397 384 503 446 466 384 z m 199 597 l 199 877 b 180 968 199 922 186 952 l 77 938 b 92 833 85 910 92 874 l 92 0 l 199 0 b 198 87 199 22 198 54 b 199 318 198 189 199 318 b 470 161 283 309 436 260 b 595 -13 488 108 512 28 l 652 60 b 596 117 630 77 612 91 b 495 308 560 177 562 258 b 604 433 565 341 600 410 b 610 496 608 451 610 474 b 606 552 610 516 608 536 b 421 689 597 633 513 689 b 199 597 349 689 248 630 z "},"Ǫ":{"ha":719,"x_min":0,"x_max":0,"o":"m 354 897 b 127 785 248 895 172 846 b 28 386 80 721 28 620 b 121 86 28 264 60 161 b 305 -8 168 29 236 0 b 222 -168 252 -60 222 -101 b 407 -323 222 -260 279 -323 b 551 -260 460 -323 521 -292 l 498 -188 b 410 -225 477 -203 449 -225 b 328 -168 366 -225 328 -206 b 597 143 329 -41 524 -9 b 659 421 629 206 659 310 l 659 429 b 354 897 656 847 438 897 z m 193 164 b 136 389 155 214 136 318 b 216 723 136 566 169 663 b 357 793 255 774 293 793 b 504 688 417 793 465 765 b 552 436 540 618 552 514 l 552 423 b 504 195 551 351 531 238 b 346 93 473 138 425 93 b 193 164 273 93 226 120 z "},"ǫ":{"ha":719,"x_min":0,"x_max":0,"o":"m 444 146 b 328 106 410 117 380 106 b 156 318 215 106 156 186 b 339 595 156 484 198 595 b 504 372 459 595 503 496 l 504 359 b 444 146 504 259 488 187 z m 544 101 b 612 368 593 170 612 266 b 572 564 612 433 600 510 b 316 700 524 653 450 700 b 49 315 118 700 49 513 b 309 1 49 131 136 10 b 191 -166 247 -48 191 -96 b 375 -321 191 -258 248 -321 b 518 -258 429 -321 488 -290 l 465 -186 b 378 -223 445 -201 417 -223 b 296 -166 334 -223 296 -204 b 544 101 296 -92 464 -18 z "},"Ǭ":{"ha":719,"x_min":0,"x_max":0,"o":"m 508 1084 l 496 1084 l 385 1084 b 213 1086 323 1084 257 1084 l 200 1087 l 200 982 l 212 981 b 359 980 258 980 309 980 b 496 981 410 980 457 980 l 508 981 z m 354 897 b 127 785 248 895 172 846 b 28 386 80 721 28 620 b 121 86 28 264 60 161 b 305 -8 168 29 236 0 b 222 -168 252 -60 222 -101 b 407 -323 222 -260 279 -323 b 551 -260 460 -323 521 -292 l 498 -188 b 410 -225 477 -203 449 -225 b 328 -168 366 -225 328 -206 b 597 143 329 -41 524 -9 b 659 421 629 206 659 310 l 659 429 b 354 897 656 847 438 897 z m 193 164 b 136 389 155 214 136 318 b 216 723 136 566 169 663 b 357 793 255 774 293 793 b 504 688 417 793 465 765 b 552 436 540 618 552 514 l 552 423 b 504 195 551 351 531 238 b 346 93 473 138 425 93 b 193 164 273 93 226 120 z "},"ǭ":{"ha":719,"x_min":0,"x_max":0,"o":"m 486 907 l 475 907 l 363 907 b 191 908 301 907 235 907 l 178 909 l 178 804 l 191 803 b 338 802 237 802 288 802 b 475 803 388 802 435 802 l 486 803 z m 444 146 b 328 106 410 117 380 106 b 156 318 215 106 156 186 b 339 595 156 484 198 595 b 504 372 459 595 503 496 l 504 359 b 444 146 504 259 488 187 z m 544 101 b 612 368 593 170 612 266 b 572 564 612 433 600 510 b 316 700 524 653 450 700 b 49 315 118 700 49 513 b 309 1 49 131 136 10 b 191 -166 247 -48 191 -96 b 375 -321 191 -258 248 -321 b 518 -258 429 -321 488 -290 l 465 -186 b 378 -223 445 -201 417 -223 b 296 -166 334 -223 296 -204 b 544 101 296 -92 464 -18 z "},"ǰ":{"ha":719,"x_min":0,"x_max":0,"o":"m 461 739 l 713 955 l 642 1027 l 462 880 l 281 1027 l 210 955 z m 425 -77 b 326 -157 424 -101 401 -157 l 314 -157 b 147 -42 271 -157 214 -152 l 62 -109 b 328 -262 147 -248 245 -262 b 531 -80 490 -262 531 -178 l 531 691 l 452 691 b 232 663 381 691 308 680 l 251 566 b 414 586 312 581 347 586 l 425 586 z "},"Ǵ":{"ha":719,"x_min":0,"x_max":0,"o":"m 196 983 l 242 883 b 596 1097 339 915 521 1021 l 513 1196 b 196 983 435 1122 293 1016 z m 584 497 b 471 498 547 497 509 498 b 267 470 403 498 332 494 l 294 372 b 450 397 355 394 402 397 b 511 397 470 397 490 397 b 560 398 526 397 543 397 b 429 106 560 179 513 125 b 373 100 412 101 393 100 b 123 418 176 100 123 243 b 216 730 123 535 141 666 b 368 780 269 776 311 780 b 565 649 473 780 530 726 l 662 696 b 375 883 611 806 520 880 l 361 883 b 138 804 283 883 206 864 b 14 426 50 718 14 587 b 366 -5 14 190 119 -5 b 469 2 395 -5 438 -5 b 673 410 589 33 673 115 l 673 502 b 584 497 644 499 615 497 z "},"ǵ":{"ha":719,"x_min":0,"x_max":0,"o":"m 207 823 l 253 722 b 607 936 350 754 532 860 l 524 1035 b 207 823 446 962 304 855 z m 161 -52 b 218 47 161 -9 180 32 b 361 48 317 48 355 48 b 545 -17 444 48 545 41 b 372 -157 545 -130 450 -157 l 301 -157 b 161 -52 212 -157 161 -137 z m 323 378 b 172 481 235 378 172 402 b 334 593 172 543 241 593 b 477 479 420 593 477 566 b 323 378 477 413 410 378 z m 64 474 b 106 357 64 425 83 383 b 56 222 77 325 56 284 b 113 93 56 170 75 121 b 54 -56 76 60 54 12 b 298 -263 54 -197 155 -263 l 368 -263 b 652 -16 534 -263 652 -192 b 407 153 652 113 534 153 b 284 151 389 153 302 151 b 162 231 199 151 162 180 b 191 298 162 259 178 283 b 326 276 235 281 278 276 b 583 481 479 276 583 353 b 563 574 583 514 581 543 b 625 589 574 586 601 589 b 654 586 631 589 646 587 l 654 697 b 506 655 580 697 544 690 b 334 696 462 682 412 696 b 64 474 167 696 64 616 z "},"Ǹ":{"ha":719,"x_min":0,"x_max":0,"o":"m 477 966 b 161 1179 380 999 239 1105 l 77 1080 b 431 866 153 1004 334 898 z m 510 -4 l 618 -3 b 618 110 618 33 618 71 b 616 591 618 266 616 438 b 621 880 616 702 617 803 l 517 880 b 509 513 511 764 509 640 b 511 242 509 422 509 330 b 159 878 431 410 244 753 l 51 880 l 51 -2 l 159 -2 b 158 541 159 101 158 342 l 158 679 b 510 -4 295 439 399 238 z "},"ǹ":{"ha":719,"x_min":0,"x_max":0,"o":"m 535 831 b 218 1044 438 864 296 970 l 135 945 b 489 731 210 869 392 763 z m 183 629 b 163 705 178 662 170 689 l 54 680 b 76 478 71 616 76 599 l 76 -1 l 183 0 l 183 515 b 391 591 282 563 347 591 b 501 519 435 591 501 569 l 501 138 b 623 -13 501 51 564 16 l 680 63 b 608 143 642 83 608 98 l 608 540 b 406 693 608 641 487 693 b 183 629 331 693 269 673 z "},"Ǻ":{"ha":719,"x_min":0,"x_max":0,"o":"m 193 1239 l 239 1139 b 593 1352 336 1171 517 1276 l 509 1451 b 193 1239 431 1378 290 1272 z m 487 336 l 364 334 b 229 322 308 331 270 331 l 355 734 z m 291 981 b 350 1028 291 1005 315 1028 b 408 981 385 1028 408 1005 b 350 932 408 958 385 932 b 291 981 315 932 291 958 z m 203 980 b 288 861 203 926 239 882 l 50 108 b 28 0 41 79 29 19 l 138 0 b 155 82 138 19 148 62 l 195 203 b 515 225 270 222 420 223 l 563 83 b 576 0 568 64 576 16 l 688 0 b 667 117 686 37 674 92 l 417 862 b 497 980 464 884 497 928 b 351 1112 497 1055 429 1112 b 203 980 273 1112 203 1055 z "},"ǻ":{"ha":719,"x_min":0,"x_max":0,"o":"m 269 850 b 327 897 269 873 292 897 b 385 850 362 897 385 873 b 327 801 385 826 362 801 b 269 850 293 801 269 826 z m 180 848 b 328 716 180 773 250 716 b 475 848 406 716 475 773 b 328 981 475 924 406 981 b 180 848 250 981 180 924 z m 159 211 b 332 342 159 291 239 341 b 491 298 402 342 452 322 l 491 234 b 260 99 473 206 402 99 b 159 211 197 99 159 140 z m 597 216 l 597 439 b 328 697 597 592 492 697 b 50 533 206 697 115 656 l 138 477 b 329 595 193 574 235 595 b 491 405 444 595 491 533 b 326 439 454 427 412 439 b 113 357 246 439 178 423 b 53 204 73 316 53 256 b 260 -4 53 92 144 -4 b 515 106 393 -4 463 55 b 604 -7 528 37 568 20 l 660 74 b 606 117 640 90 615 105 b 597 216 597 129 597 192 z m 193 1072 l 239 971 b 593 1185 336 1003 517 1109 l 509 1284 b 193 1072 431 1211 290 1104 z "},"Ǽ":{"ha":719,"x_min":0,"x_max":0,"o":"m 239 1013 l 286 913 b 640 1126 382 945 564 1050 l 556 1225 b 239 1013 478 1152 336 1046 z m 319 332 b 187 322 234 331 187 322 l 284 742 z m 326 235 l 342 0 l 599 -2 l 603 -2 b 707 18 652 -2 675 9 l 677 119 b 597 101 677 119 635 101 l 432 100 l 404 452 l 594 452 l 594 553 l 391 553 l 373 776 l 648 776 l 648 878 b 420 878 582 878 526 878 b 237 877 354 878 279 878 l 25 108 b 3 0 17 79 4 19 l 113 0 b 130 82 113 19 125 62 l 164 218 b 326 235 164 218 217 232 z "},"ǽ":{"ha":719,"x_min":0,"x_max":0,"o":"m 161 812 l 207 711 b 561 925 304 743 486 849 l 477 1024 b 161 812 399 951 258 844 z m 120 220 b 205 345 120 288 152 345 b 299 321 241 345 270 338 l 299 222 b 204 110 291 172 265 110 b 120 220 148 110 120 146 z m 403 417 b 497 589 403 527 410 589 b 559 422 545 589 559 494 b 403 417 503 422 463 421 z m 342 66 b 484 3 380 26 429 3 b 670 115 536 3 607 30 l 597 183 b 497 109 572 147 537 109 b 403 149 454 109 420 130 l 403 315 l 662 322 b 491 694 662 457 656 694 b 348 616 408 694 376 658 b 314 656 340 629 327 646 b 203 694 273 688 241 694 b 18 573 120 694 76 664 l 11 561 l 90 511 l 97 520 b 197 590 142 588 162 590 l 203 590 b 299 427 284 590 299 492 b 197 448 273 437 250 448 b 16 210 59 448 16 323 b 88 39 16 143 33 77 b 212 3 125 13 169 3 b 342 66 281 3 322 43 z "},"Ǿ":{"ha":719,"x_min":0,"x_max":0,"o":"m 189 1008 l 235 907 b 589 1121 332 939 513 1045 l 505 1220 b 189 1008 427 1147 286 1040 z m 507 696 b 511 687 508 693 510 690 b 552 432 549 612 552 432 b 504 201 552 358 531 245 b 345 100 473 144 424 100 b 256 118 309 100 280 106 b 507 696 328 283 428 509 z m 175 200 b 136 397 149 255 136 337 b 223 723 136 549 176 661 b 365 795 262 776 300 795 b 427 781 387 795 408 791 b 175 200 352 602 243 357 z m 125 86 b 94 17 114 58 98 25 l 194 -24 b 213 21 200 -11 205 5 b 345 -5 254 3 300 -5 b 597 149 457 -5 546 49 b 659 430 629 213 659 317 l 659 437 b 556 813 658 633 612 747 b 589 894 568 842 579 869 l 488 933 b 467 880 482 917 475 899 b 361 901 427 897 388 901 b 135 787 256 899 180 849 b 28 394 87 721 28 607 b 121 91 28 269 60 167 b 125 86 123 90 124 87 z "},"ǿ":{"ha":719,"x_min":0,"x_max":0,"o":"m 164 823 l 210 723 b 564 937 307 755 489 861 l 481 1036 b 164 823 403 962 261 856 z m 163 241 b 156 318 158 264 156 290 b 339 595 156 484 198 595 b 444 557 385 595 419 581 z m 580 545 l 673 648 l 592 724 l 515 637 b 316 700 469 679 406 700 b 49 315 118 700 49 513 b 81 148 49 251 60 195 l 7 64 l 82 -6 l 144 62 b 327 1 189 22 250 1 l 328 1 b 612 368 547 1 612 175 b 580 545 612 427 602 493 z m 444 146 b 328 106 410 117 380 106 b 217 144 282 106 245 119 l 496 452 b 504 372 502 427 504 400 l 504 359 b 444 146 504 259 488 187 z "},"Ȁ":{"ha":719,"x_min":0,"x_max":0,"o":"m 545 942 b 361 1197 473 1005 399 1110 l 250 1148 b 460 881 285 1059 387 943 z m 324 925 b 140 1180 252 988 178 1093 l 29 1131 b 239 863 64 1042 166 926 z m 486 342 l 363 340 b 228 329 307 338 269 338 l 354 741 z m 294 882 l 50 108 b 28 0 41 79 29 19 l 138 0 b 155 82 138 19 148 62 l 195 203 b 515 225 270 222 420 223 l 563 83 b 576 0 568 64 576 16 l 688 0 b 667 117 686 37 674 92 l 410 882 z "},"ȁ":{"ha":719,"x_min":0,"x_max":0,"o":"m 589 806 b 405 1097 516 878 443 998 l 294 1041 b 504 735 328 940 431 806 z m 368 786 b 184 1078 295 858 222 978 l 73 1021 b 283 715 107 920 210 787 z m 159 211 b 332 342 159 291 239 341 b 491 298 402 342 452 322 l 491 234 b 260 99 473 206 402 99 b 159 211 197 99 159 140 z m 597 216 l 597 439 b 328 697 597 592 492 697 b 50 533 206 697 115 656 l 138 477 b 329 595 193 574 235 595 b 491 405 444 595 491 533 b 326 439 454 427 412 439 b 113 357 246 439 178 423 b 53 204 73 316 53 256 b 260 -4 53 92 144 -4 b 515 106 393 -4 463 55 b 604 -7 528 37 568 20 l 660 74 b 606 117 640 90 615 105 b 597 216 597 129 597 192 z "},"Ȃ":{"ha":719,"x_min":0,"x_max":0,"o":"m 342 977 b 475 882 416 977 471 935 l 588 902 b 342 1081 572 1022 454 1081 b 101 896 257 1081 134 1048 l 207 876 b 342 977 225 955 279 977 z m 486 342 l 363 340 b 228 329 307 338 269 338 l 354 741 z m 294 882 l 50 108 b 28 0 41 79 29 19 l 138 0 b 155 82 138 19 148 62 l 195 203 b 515 225 270 222 420 223 l 563 83 b 576 0 568 64 576 16 l 688 0 b 667 117 686 37 674 92 l 410 882 z "},"ȃ":{"ha":719,"x_min":0,"x_max":0,"o":"m 319 884 b 452 789 393 884 448 842 l 565 809 b 319 988 549 929 431 988 b 78 803 234 988 111 956 l 184 783 b 319 884 202 862 256 884 z m 159 211 b 332 342 159 291 239 341 b 491 298 402 342 452 322 l 491 234 b 260 99 473 206 402 99 b 159 211 197 99 159 140 z m 597 216 l 597 439 b 328 697 597 592 492 697 b 50 533 206 697 115 656 l 138 477 b 329 595 193 574 235 595 b 491 405 444 595 491 533 b 326 439 454 427 412 439 b 113 357 246 439 178 423 b 53 204 73 316 53 256 b 260 -4 53 92 144 -4 b 515 106 393 -4 463 55 b 604 -7 528 37 568 20 l 660 74 b 606 117 640 90 615 105 b 597 216 597 129 597 192 z "},"Ȅ":{"ha":719,"x_min":0,"x_max":0,"o":"m 589 955 b 406 1191 517 1013 444 1110 l 294 1145 b 505 898 329 1064 431 956 z m 368 939 b 184 1175 296 997 222 1094 l 73 1129 b 283 882 108 1048 210 940 z m 69 877 l 69 -2 l 532 -2 b 640 18 583 -2 607 9 l 610 119 b 530 101 610 119 568 101 l 174 100 b 176 431 174 152 176 294 l 176 452 l 473 452 l 473 553 l 176 553 l 176 776 l 603 776 l 603 878 l 592 878 b 349 880 542 878 450 880 l 274 880 l 208 880 b 69 877 155 880 107 880 z "},"ȅ":{"ha":719,"x_min":0,"x_max":0,"o":"m 610 787 b 427 1079 538 859 465 979 l 315 1023 b 526 717 350 922 452 788 z m 389 768 b 205 1059 317 840 243 960 l 94 1003 b 304 697 129 902 231 768 z m 160 393 b 346 589 161 498 231 589 b 518 411 438 589 507 520 b 160 393 422 400 248 394 z m 345 692 b 53 350 153 692 53 544 b 354 -7 53 138 152 -7 b 621 113 515 -7 593 83 l 537 187 b 357 97 511 151 454 97 b 160 290 218 97 160 186 b 625 312 281 291 435 299 b 626 341 626 317 626 328 b 345 692 626 435 601 692 z "},"Ȇ":{"ha":719,"x_min":0,"x_max":0,"o":"m 323 1008 b 456 913 396 1008 452 966 l 568 933 b 323 1112 552 1053 435 1112 b 81 927 237 1112 114 1080 l 187 907 b 323 1008 205 986 260 1008 z m 69 877 l 69 -2 l 532 -2 b 640 18 583 -2 607 9 l 610 119 b 530 101 610 119 568 101 l 174 100 b 176 431 174 152 176 294 l 176 452 l 473 452 l 473 553 l 176 553 l 176 776 l 603 776 l 603 878 l 592 878 b 349 880 542 878 450 880 l 274 880 l 208 880 b 69 877 155 880 107 880 z "},"ȇ":{"ha":719,"x_min":0,"x_max":0,"o":"m 343 884 b 476 789 416 884 472 842 l 589 809 b 343 988 572 929 455 988 b 102 803 258 988 134 956 l 208 783 b 343 884 226 862 280 884 z m 160 393 b 346 589 161 498 231 589 b 518 411 438 589 507 520 b 160 393 422 400 248 394 z m 345 692 b 53 350 153 692 53 544 b 354 -7 53 138 152 -7 b 621 113 515 -7 593 83 l 537 187 b 357 97 511 151 454 97 b 160 290 218 97 160 186 b 625 312 281 291 435 299 b 626 341 626 317 626 328 b 345 692 626 435 601 692 z "},"Ȉ":{"ha":719,"x_min":0,"x_max":0,"o":"m 572 962 b 389 1175 500 1014 427 1102 l 277 1133 b 488 910 312 1060 414 962 z m 351 947 b 168 1160 279 1000 205 1087 l 56 1119 b 267 896 91 1045 193 948 z m 103 880 l 107 776 b 286 781 179 780 241 780 l 286 102 l 235 102 b 105 99 197 102 163 102 l 105 -2 b 328 3 210 -2 278 3 b 433 3 368 3 401 3 b 576 -1 476 3 518 3 l 576 101 b 478 104 541 103 509 104 b 395 103 444 104 426 103 l 395 781 b 576 778 460 781 492 778 l 576 881 b 329 883 465 882 400 883 b 103 880 264 883 209 883 z "},"ȉ":{"ha":719,"x_min":0,"x_max":0,"o":"m 521 793 b 337 1085 448 865 375 985 l 226 1029 b 436 723 260 928 363 794 z m 300 774 b 116 1065 227 846 154 966 l 5 1009 b 215 703 39 908 142 774 z m 283 687 b 62 659 212 687 138 676 l 81 562 b 256 581 146 577 223 581 l 256 140 b 319 14 256 100 262 45 b 458 -12 349 -3 401 -12 b 698 56 543 -12 640 8 l 652 134 b 458 84 605 98 521 84 b 362 142 395 84 366 87 b 361 687 362 142 361 502 z "},"Ȋ":{"ha":719,"x_min":0,"x_max":0,"o":"m 331 1008 b 464 913 404 1008 460 966 l 576 933 b 331 1112 560 1053 443 1112 b 90 927 245 1112 122 1080 l 195 907 b 331 1008 214 986 268 1008 z m 103 880 l 107 776 b 286 781 179 780 241 780 l 286 102 l 235 102 b 105 99 197 102 163 102 l 105 -2 b 328 3 210 -2 278 3 b 433 3 368 3 401 3 b 576 -1 476 3 518 3 l 576 101 b 478 104 541 103 509 104 b 395 103 444 104 426 103 l 395 781 b 576 778 460 781 492 778 l 576 881 b 329 883 465 882 400 883 b 103 880 264 883 209 883 z "},"ȋ":{"ha":719,"x_min":0,"x_max":0,"o":"m 309 884 b 441 789 382 884 437 842 l 554 809 b 309 988 538 929 420 988 b 67 803 223 988 100 956 l 173 783 b 309 884 191 862 245 884 z m 283 687 b 62 659 212 687 138 676 l 81 562 b 256 581 146 577 223 581 l 256 140 b 319 14 256 100 262 45 b 458 -12 349 -3 401 -12 b 698 56 543 -12 640 8 l 652 134 b 458 84 605 98 521 84 b 362 142 395 84 366 87 b 361 687 362 142 361 502 z "},"Ȍ":{"ha":719,"x_min":0,"x_max":0,"o":"m 567 965 b 384 1173 495 1016 421 1102 l 272 1133 b 483 915 307 1061 409 966 z m 346 951 b 162 1159 274 1002 200 1088 l 51 1119 b 261 901 86 1047 188 952 z m 342 899 b 115 787 236 897 160 848 b 16 388 68 723 16 622 b 110 88 16 266 49 163 b 334 -9 165 20 251 -9 b 585 145 446 -9 534 47 b 647 423 617 208 647 312 l 647 431 b 342 899 644 849 426 899 z m 180 166 b 123 391 142 216 123 320 b 203 725 123 568 157 665 b 346 795 243 777 281 795 b 492 690 406 795 453 767 b 540 438 528 620 540 516 l 540 425 b 492 197 539 353 519 240 b 334 95 462 140 412 95 b 180 166 260 95 214 122 z "},"ȍ":{"ha":719,"x_min":0,"x_max":0,"o":"m 534 798 b 351 1089 462 869 389 989 l 239 1033 b 450 727 274 932 376 798 z m 313 778 b 130 1069 241 850 168 970 l 18 1013 b 229 707 53 912 155 779 z m 444 146 b 328 106 410 117 380 106 b 156 318 215 106 156 186 b 339 595 156 484 198 595 b 504 372 459 595 503 496 l 504 359 b 444 146 504 259 488 187 z m 327 1 l 328 1 b 612 368 547 1 612 175 b 572 564 612 433 600 510 b 316 700 524 653 450 700 b 49 315 118 700 49 513 b 327 1 49 125 142 1 z "},"Ȏ":{"ha":719,"x_min":0,"x_max":0,"o":"m 339 1008 b 472 913 413 1008 468 966 l 585 933 b 339 1112 569 1053 451 1112 b 98 927 254 1112 131 1080 l 204 907 b 339 1008 222 986 276 1008 z m 342 899 b 115 787 236 897 160 848 b 16 388 68 723 16 622 b 110 88 16 266 49 163 b 334 -9 165 20 251 -9 b 585 145 446 -9 534 47 b 647 423 617 208 647 312 l 647 431 b 342 899 644 849 426 899 z m 180 166 b 123 391 142 216 123 320 b 203 725 123 568 157 665 b 346 795 243 777 281 795 b 492 690 406 795 453 767 b 540 438 528 620 540 516 l 540 425 b 492 197 539 353 519 240 b 334 95 462 140 412 95 b 180 166 260 95 214 122 z "},"ȏ":{"ha":719,"x_min":0,"x_max":0,"o":"m 314 884 b 447 789 387 884 443 842 l 559 809 b 314 988 543 929 426 988 b 73 803 229 988 105 956 l 178 783 b 314 884 197 862 251 884 z m 444 146 b 328 106 410 117 380 106 b 156 318 215 106 156 186 b 339 595 156 484 198 595 b 504 372 459 595 503 496 l 504 359 b 444 146 504 259 488 187 z m 327 1 l 328 1 b 612 368 547 1 612 175 b 572 564 612 433 600 510 b 316 700 524 653 450 700 b 49 315 118 700 49 513 b 327 1 49 125 142 1 z "},"Ȑ":{"ha":719,"x_min":0,"x_max":0,"o":"m 538 958 b 355 1168 466 1010 393 1097 l 243 1128 b 454 907 278 1055 380 959 z m 317 944 b 134 1154 245 996 172 1082 l 22 1114 b 233 893 57 1041 159 944 z m 442 366 b 629 616 562 386 629 467 b 572 772 629 673 605 732 b 205 884 490 874 375 884 b 58 873 164 884 86 876 b 61 755 60 832 61 800 l 61 0 l 168 0 l 168 385 b 321 362 219 376 265 368 b 532 45 359 298 466 118 b 631 -15 555 17 591 -9 l 671 76 b 609 117 642 83 621 106 b 442 366 571 161 495 283 z m 524 607 b 377 462 524 497 472 474 b 344 460 366 460 355 460 b 168 488 288 460 235 475 l 166 779 b 209 780 186 780 191 780 b 485 711 361 780 439 764 b 524 607 513 678 524 644 z "},"ȑ":{"ha":719,"x_min":0,"x_max":0,"o":"m 625 804 b 441 1096 552 876 479 996 l 330 1040 b 540 734 364 939 467 805 z m 404 785 b 220 1076 331 857 258 977 l 109 1020 b 319 714 143 919 245 785 z m 251 593 b 144 709 226 650 185 676 l 73 614 b 142 518 115 576 142 557 l 142 1 l 248 0 l 248 411 b 471 587 316 562 402 587 b 528 490 533 587 525 545 l 633 490 l 633 494 b 490 695 633 618 603 695 b 251 593 385 695 314 671 z "},"Ȓ":{"ha":719,"x_min":0,"x_max":0,"o":"m 303 1019 b 436 923 376 1019 432 976 l 549 943 b 303 1122 532 1063 415 1122 b 62 937 218 1122 94 1090 l 168 917 b 303 1019 186 996 240 1019 z m 442 366 b 629 616 562 386 629 467 b 572 772 629 673 605 732 b 205 884 490 874 375 884 b 58 873 164 884 86 876 b 61 755 60 832 61 800 l 61 0 l 168 0 l 168 385 b 321 362 219 376 265 368 b 532 45 359 298 466 118 b 631 -15 555 17 591 -9 l 671 76 b 609 117 642 83 621 106 b 442 366 571 161 495 283 z m 524 607 b 377 462 524 497 472 474 b 344 460 366 460 355 460 b 168 488 288 460 235 475 l 166 779 b 209 780 186 780 191 780 b 485 711 361 780 439 764 b 524 607 513 678 524 644 z "},"ȓ":{"ha":719,"x_min":0,"x_max":0,"o":"m 351 901 b 484 806 425 901 480 859 l 597 826 b 351 1005 581 946 463 1005 b 110 820 266 1005 142 972 l 216 800 b 351 901 234 879 288 901 z m 251 593 b 144 709 226 650 185 676 l 73 614 b 142 518 115 576 142 557 l 142 1 l 248 0 l 248 411 b 471 587 316 562 402 587 b 528 490 533 587 525 545 l 633 490 l 633 494 b 490 695 633 618 603 695 b 251 593 385 695 314 671 z "},"Ȕ":{"ha":719,"x_min":0,"x_max":0,"o":"m 551 934 b 367 1147 478 987 405 1075 l 256 1106 b 466 883 290 1032 393 935 z m 330 920 b 146 1133 257 973 184 1060 l 35 1092 b 245 869 69 1018 172 921 z m 527 890 b 518 774 520 848 518 822 b 522 476 518 659 522 559 b 469 153 522 342 514 203 b 325 96 432 115 397 99 b 154 298 222 96 166 155 b 149 494 151 338 149 410 b 155 883 149 619 152 771 l 47 883 b 41 528 43 776 41 645 b 46 303 41 437 43 354 b 334 -7 58 106 125 -7 b 550 81 421 -3 494 16 b 629 476 626 168 629 319 l 629 515 b 627 775 629 591 627 677 b 633 882 627 812 627 841 z "},"ȕ":{"ha":719,"x_min":0,"x_max":0,"o":"m 590 787 b 406 1079 517 859 444 979 l 295 1023 b 505 717 330 922 432 788 z m 369 768 b 185 1059 296 840 223 960 l 74 1003 b 284 697 109 902 211 768 z m 614 -7 l 670 73 b 608 162 643 94 610 127 l 608 692 l 501 692 l 501 233 b 397 134 475 174 429 153 b 289 106 362 113 334 108 b 217 118 261 106 227 111 b 183 170 202 129 187 146 b 170 692 182 418 185 630 l 62 674 b 77 145 80 618 75 327 b 153 30 77 90 123 51 b 294 1 194 2 252 1 l 300 1 b 524 107 401 3 467 49 b 614 -7 539 49 576 21 z "},"Ȗ":{"ha":719,"x_min":0,"x_max":0,"o":"m 354 1008 b 487 913 427 1008 483 966 l 600 933 b 354 1112 583 1053 466 1112 b 113 927 269 1112 145 1080 l 218 907 b 354 1008 237 986 291 1008 z m 527 890 b 518 774 520 848 518 822 b 522 476 518 659 522 559 b 469 153 522 342 514 203 b 325 96 432 115 397 99 b 154 298 222 96 166 155 b 149 494 151 338 149 410 b 155 883 149 619 152 771 l 47 883 b 41 528 43 776 41 645 b 46 303 41 437 43 354 b 334 -7 58 106 125 -7 b 550 81 421 -3 494 16 b 629 476 626 168 629 319 l 629 515 b 627 775 629 591 627 677 b 633 882 627 812 627 841 z "},"ȗ":{"ha":719,"x_min":0,"x_max":0,"o":"m 342 865 b 475 770 415 865 471 823 l 587 790 b 342 969 571 910 454 969 b 100 784 256 969 133 937 l 206 764 b 342 865 224 843 279 865 z m 614 -7 l 670 73 b 608 162 643 94 610 127 l 608 692 l 501 692 l 501 233 b 397 134 475 174 429 153 b 289 106 362 113 334 108 b 217 118 261 106 227 111 b 183 170 202 129 187 146 b 170 692 182 418 185 630 l 62 674 b 77 145 80 618 75 327 b 153 30 77 90 123 51 b 294 1 194 2 252 1 l 300 1 b 524 107 401 3 467 49 b 614 -7 539 49 576 21 z "},"Ș":{"ha":719,"x_min":0,"x_max":0,"o":"m 282 -89 l 282 -239 l 320 -239 b 262 -340 320 -306 302 -321 l 298 -427 b 431 -235 386 -389 431 -337 l 431 -89 z m 168 481 b 441 399 258 440 363 433 b 535 258 495 376 535 330 b 345 96 535 161 484 96 b 136 280 193 96 136 172 l 29 280 b 340 -6 29 129 101 0 l 353 -6 b 644 263 516 -6 644 81 b 501 496 644 381 574 461 b 226 574 412 537 286 546 b 157 674 188 593 157 618 b 180 734 157 697 164 717 b 322 779 212 764 253 779 b 509 669 427 779 484 755 l 617 689 b 325 883 591 829 476 881 l 319 883 b 49 671 176 883 49 817 b 168 481 49 572 106 510 z "},"ș":{"ha":719,"x_min":0,"x_max":0,"o":"m 275 -96 l 275 -246 l 313 -246 b 254 -348 313 -313 295 -329 l 291 -434 b 424 -242 378 -396 424 -345 l 424 -96 z m 182 386 b 444 285 253 349 392 322 b 503 194 481 257 503 237 b 338 83 503 119 422 83 b 186 223 233 83 186 132 l 80 224 b 340 -14 80 78 167 -14 b 458 0 379 -14 420 -9 b 608 191 530 19 608 81 b 250 473 608 383 434 397 b 210 534 223 486 210 501 b 342 597 210 578 270 597 b 513 527 400 597 477 569 l 590 602 b 332 698 534 671 415 698 b 103 531 214 698 104 648 b 182 386 103 456 138 410 z "},"Ț":{"ha":719,"x_min":0,"x_max":0,"o":"m 263 -89 l 263 -239 l 301 -239 b 243 -340 301 -306 283 -321 l 279 -427 b 412 -235 367 -389 412 -337 l 412 -89 z m 273 -6 l 382 -6 l 382 776 l 541 776 b 617 768 575 776 617 768 l 640 871 b 545 881 627 873 594 881 b 26 880 417 881 109 880 l 26 775 b 273 776 78 775 139 776 z "},"ț":{"ha":719,"x_min":0,"x_max":0,"o":"m 353 -87 l 353 -237 l 391 -237 b 333 -338 391 -304 374 -319 l 370 -425 b 503 -233 457 -387 503 -335 l 503 -87 z m 243 296 b 253 589 246 364 247 451 b 334 591 284 589 302 591 l 549 591 l 549 691 l 536 691 b 334 690 536 691 432 690 l 251 690 b 252 844 252 736 252 800 l 145 845 b 144 686 145 798 144 734 l 134 686 b 65 678 112 686 81 684 l 79 579 b 134 587 96 584 115 587 l 144 587 b 136 296 140 456 138 367 l 136 267 b 162 109 136 209 138 158 b 418 -4 210 9 293 -4 b 564 25 475 -4 524 2 b 662 150 640 69 655 131 l 576 188 b 521 117 572 175 559 138 b 416 101 504 108 460 101 b 343 103 408 101 355 102 b 243 269 268 111 243 179 z "},"Ȟ":{"ha":719,"x_min":0,"x_max":0,"o":"m 338 895 l 591 1110 l 519 1183 l 339 1035 l 158 1183 l 87 1110 z m 149 879 l 41 878 l 41 0 l 150 0 b 149 405 150 123 149 172 b 424 424 229 422 325 424 l 511 424 l 511 0 l 618 0 l 618 876 l 511 876 b 511 527 511 766 511 713 l 357 527 b 149 508 275 527 211 522 z "},"ȟ":{"ha":719,"x_min":0,"x_max":0,"o":"m 138 996 l 390 1211 l 318 1284 l 138 1136 l -43 1284 l -113 1211 z m 501 391 l 501 141 b 606 -12 501 55 551 19 l 665 68 b 607 151 625 94 607 114 b 608 391 607 227 608 279 l 608 435 b 555 621 608 510 604 563 b 345 692 502 686 427 692 b 183 637 276 692 227 665 l 183 951 l 75 951 b 76 138 75 951 76 480 b 68 5 76 86 74 54 l 176 0 b 182 134 179 31 182 81 l 182 496 b 340 588 203 538 272 588 b 501 391 477 588 501 545 z "},"Ȧ":{"ha":719,"x_min":0,"x_max":0,"o":"m 271 1135 l 271 982 l 431 980 l 431 1133 z m 486 342 l 363 340 b 228 329 307 338 269 338 l 354 741 z m 294 882 l 50 108 b 28 0 41 79 29 19 l 138 0 b 155 82 138 19 148 62 l 195 203 b 515 225 270 222 420 223 l 563 83 b 576 0 568 64 576 16 l 688 0 b 667 117 686 37 674 92 l 410 882 z "},"ȧ":{"ha":719,"x_min":0,"x_max":0,"o":"m 241 951 l 241 799 l 400 799 l 400 951 z m 159 211 b 332 342 159 291 239 341 b 491 298 402 342 452 322 l 491 234 b 260 99 473 206 402 99 b 159 211 197 99 159 140 z m 597 216 l 597 439 b 328 697 597 592 492 697 b 50 533 206 697 115 656 l 138 477 b 329 595 193 574 235 595 b 491 405 444 595 491 533 b 326 439 454 427 412 439 b 113 357 246 439 178 423 b 53 204 73 316 53 256 b 260 -4 53 92 144 -4 b 515 106 393 -4 463 55 b 604 -7 528 37 568 20 l 660 74 b 606 117 640 90 615 105 b 597 216 597 129 597 192 z "},"Ȩ":{"ha":719,"x_min":0,"x_max":0,"o":"m 69 877 l 69 -2 l 251 -2 l 251 -123 b 304 -111 270 -116 271 -111 b 362 -148 336 -111 362 -128 l 362 -149 b 308 -189 360 -175 332 -189 b 224 -160 273 -189 246 -172 l 198 -232 b 330 -273 236 -256 285 -273 b 454 -159 387 -273 454 -228 b 349 -43 454 -89 415 -47 l 349 -2 l 532 -2 b 640 18 583 -2 607 9 l 610 119 b 530 101 610 119 568 101 l 174 100 b 176 431 174 152 176 294 l 176 452 l 473 452 l 473 553 l 176 553 l 176 776 l 603 776 l 603 878 l 592 878 b 349 880 542 878 450 880 l 274 880 l 208 880 b 69 877 155 880 107 880 z "},"ȩ":{"ha":719,"x_min":0,"x_max":0,"o":"m 160 393 b 346 589 161 498 231 589 b 518 414 438 589 514 520 l 494 414 b 160 393 397 411 233 401 z m 345 692 b 53 350 153 692 53 544 b 290 -3 53 157 130 20 l 290 -127 b 343 -116 309 -121 311 -116 b 401 -153 376 -116 401 -133 l 401 -154 b 347 -193 399 -180 372 -193 b 263 -165 313 -193 286 -177 l 237 -237 b 369 -278 275 -261 324 -278 b 494 -164 426 -278 494 -233 b 389 -48 494 -94 454 -52 b 389 -4 389 -47 389 -18 b 614 124 543 14 606 111 l 532 194 b 342 97 509 156 449 97 b 160 290 216 97 160 186 b 625 312 272 298 432 309 b 626 341 626 317 626 328 b 345 692 626 435 601 692 z "},"Ȫ":{"ha":719,"x_min":0,"x_max":0,"o":"m 487 1275 l 476 1275 l 365 1275 b 192 1276 302 1275 236 1275 l 179 1278 l 179 1173 l 192 1172 b 339 1171 238 1171 289 1171 b 476 1172 389 1171 436 1171 l 487 1172 z m 128 1110 l 128 958 l 287 956 l 287 1108 z m 403 1108 l 403 956 l 563 954 l 563 1106 z m 342 899 b 115 787 236 897 160 848 b 16 388 68 723 16 622 b 110 88 16 266 49 163 b 334 -9 165 20 251 -9 b 585 145 446 -9 534 47 b 647 423 617 208 647 312 l 647 431 b 342 899 644 849 426 899 z m 180 166 b 123 391 142 216 123 320 b 203 725 123 568 157 665 b 346 795 243 777 281 795 b 492 690 406 795 453 767 b 540 438 528 620 540 516 l 540 425 b 492 197 539 353 519 240 b 334 95 462 140 412 95 b 180 166 260 95 214 122 z "},"ȫ":{"ha":719,"x_min":0,"x_max":0,"o":"m 487 1090 l 475 1090 l 364 1090 b 192 1091 302 1090 236 1090 l 179 1093 l 179 987 l 191 987 b 338 985 237 985 288 985 b 475 987 389 985 436 985 l 487 987 z m 125 951 l 125 799 l 285 797 l 285 949 z m 401 949 l 401 797 l 560 795 l 560 947 z m 444 146 b 328 106 410 117 380 106 b 156 318 215 106 156 186 b 339 595 156 484 198 595 b 504 372 459 595 503 496 l 504 359 b 444 146 504 259 488 187 z m 327 1 l 328 1 b 612 368 547 1 612 175 b 572 564 612 433 600 510 b 316 700 524 653 450 700 b 49 315 118 700 49 513 b 327 1 49 125 142 1 z "},"Ȭ":{"ha":719,"x_min":0,"x_max":0,"o":"m 498 1303 l 487 1303 l 375 1303 b 203 1305 313 1303 247 1303 l 190 1306 l 190 1201 l 202 1200 b 350 1199 249 1199 299 1199 b 487 1200 400 1199 447 1199 l 498 1200 z m 249 1135 b 59 1003 175 1135 109 1114 l 152 953 b 257 1031 178 1025 217 1031 b 459 949 326 1031 365 949 b 650 1103 549 949 628 1022 l 550 1139 b 450 1053 540 1079 493 1053 b 249 1135 389 1053 350 1135 z m 342 899 b 115 787 236 897 160 848 b 16 388 68 723 16 622 b 110 88 16 266 49 163 b 334 -9 165 20 251 -9 b 585 145 446 -9 534 47 b 647 423 617 208 647 312 l 647 431 b 342 899 644 849 426 899 z m 180 166 b 123 391 142 216 123 320 b 203 725 123 568 157 665 b 346 795 243 777 281 795 b 492 690 406 795 453 767 b 540 438 528 620 540 516 l 540 425 b 492 197 539 353 519 240 b 334 95 462 140 412 95 b 180 166 260 95 214 122 z "},"ȭ":{"ha":719,"x_min":0,"x_max":0,"o":"m 502 1101 l 490 1101 l 379 1101 b 207 1102 317 1101 251 1101 l 194 1103 l 194 998 l 206 998 b 353 996 252 996 303 996 b 490 998 404 996 451 996 l 502 998 z m 236 931 b 45 800 161 931 96 911 l 139 749 b 244 827 165 821 204 827 b 446 745 313 827 351 745 b 637 900 536 745 615 819 l 536 935 b 437 849 527 876 480 849 b 236 931 376 849 336 931 z m 444 146 b 328 106 410 117 380 106 b 156 318 215 106 156 186 b 339 595 156 484 198 595 b 504 372 459 595 503 496 l 504 359 b 444 146 504 259 488 187 z m 327 1 l 328 1 b 612 368 547 1 612 175 b 572 564 612 433 600 510 b 316 700 524 653 450 700 b 49 315 118 700 49 513 b 327 1 49 125 142 1 z "},"Ȯ":{"ha":719,"x_min":0,"x_max":0,"o":"m 286 1108 l 286 956 l 446 954 l 446 1106 z m 342 899 b 115 787 236 897 160 848 b 16 388 68 723 16 622 b 110 88 16 266 49 163 b 334 -9 165 20 251 -9 b 585 145 446 -9 534 47 b 647 423 617 208 647 312 l 647 431 b 342 899 644 849 426 899 z m 180 166 b 123 391 142 216 123 320 b 203 725 123 568 157 665 b 346 795 243 777 281 795 b 492 690 406 795 453 767 b 540 438 528 620 540 516 l 540 425 b 492 197 539 353 519 240 b 334 95 462 140 412 95 b 180 166 260 95 214 122 z "},"ȯ":{"ha":719,"x_min":0,"x_max":0,"o":"m 238 951 l 238 799 l 397 799 l 397 951 z m 444 146 b 328 106 410 117 380 106 b 156 318 215 106 156 186 b 339 595 156 484 198 595 b 504 372 459 595 503 496 l 504 359 b 444 146 504 259 488 187 z m 327 1 l 328 1 b 612 368 547 1 612 175 b 572 564 612 433 600 510 b 316 700 524 653 450 700 b 49 315 118 700 49 513 b 327 1 49 125 142 1 z "},"Ȱ":{"ha":719,"x_min":0,"x_max":0,"o":"m 517 1284 l 506 1284 l 394 1284 b 222 1285 332 1284 266 1284 l 209 1286 l 209 1181 l 221 1181 b 369 1179 268 1179 318 1179 b 506 1181 419 1179 466 1179 l 517 1181 z m 286 1108 l 286 956 l 446 954 l 446 1106 z m 342 899 b 115 787 236 897 160 848 b 16 388 68 723 16 622 b 110 88 16 266 49 163 b 334 -9 165 20 251 -9 b 585 145 446 -9 534 47 b 647 423 617 208 647 312 l 647 431 b 342 899 644 849 426 899 z m 180 166 b 123 391 142 216 123 320 b 203 725 123 568 157 665 b 346 795 243 777 281 795 b 492 690 406 795 453 767 b 540 438 528 620 540 516 l 540 425 b 492 197 539 353 519 240 b 334 95 462 140 412 95 b 180 166 260 95 214 122 z "},"ȱ":{"ha":719,"x_min":0,"x_max":0,"o":"m 473 1102 l 462 1102 l 351 1102 b 178 1103 288 1102 222 1102 l 165 1105 l 165 1000 l 178 999 b 325 998 224 998 275 998 b 462 999 375 998 422 998 l 473 999 z m 238 951 l 238 799 l 397 799 l 397 951 z m 444 146 b 328 106 410 117 380 106 b 156 318 215 106 156 186 b 339 595 156 484 198 595 b 504 372 459 595 503 496 l 504 359 b 444 146 504 259 488 187 z m 327 1 l 328 1 b 612 368 547 1 612 175 b 572 564 612 433 600 510 b 316 700 524 653 450 700 b 49 315 118 700 49 513 b 327 1 49 125 142 1 z "},"Ȳ":{"ha":719,"x_min":0,"x_max":0,"o":"m 486 1118 l 475 1118 l 363 1118 b 191 1119 301 1118 235 1118 l 178 1120 l 178 1015 l 191 1015 b 338 1013 237 1013 288 1013 b 475 1015 388 1013 435 1013 l 486 1015 z m 271 -4 l 379 -4 l 379 85 b 382 299 379 113 380 210 b 384 400 382 336 384 368 b 503 582 397 418 444 493 b 656 856 574 696 624 792 l 562 909 b 334 515 536 850 400 609 b 117 901 275 608 144 848 l 22 852 b 275 408 57 781 222 483 b 271 92 275 327 271 153 z "},"ȳ":{"ha":719,"x_min":0,"x_max":0,"o":"m 492 907 l 480 907 l 369 907 b 197 908 307 907 241 907 l 184 910 l 184 805 l 196 804 b 343 803 242 803 293 803 b 480 804 393 803 441 803 l 492 804 z m 228 -151 b 144 0 174 -151 144 -120 l 38 0 b 231 -255 38 -183 112 -255 b 420 -96 332 -255 385 -188 b 623 578 510 115 578 338 b 632 692 629 612 632 651 l 525 692 b 425 195 519 538 475 342 b 125 687 348 415 238 670 b 50 692 106 690 72 692 l 50 589 b 124 568 74 589 102 588 b 362 46 218 484 298 269 b 228 -151 336 -26 300 -151 z "},"ȷ":{"ha":719,"x_min":0,"x_max":0,"o":"m 425 -77 b 326 -157 424 -101 401 -157 l 314 -157 b 147 -42 271 -157 214 -152 l 62 -109 b 328 -262 147 -248 245 -262 b 531 -80 490 -262 531 -178 l 531 691 l 452 691 b 232 663 381 691 308 680 l 251 566 b 414 586 312 581 347 586 l 425 586 z "},"˚":{"ha":719,"x_min":0,"x_max":0,"o":"m 250 759 b 309 806 250 783 273 806 b 366 759 344 806 366 783 b 309 710 366 735 343 710 b 250 759 274 710 250 735 z m 162 758 b 309 625 162 682 231 625 b 456 758 387 625 456 682 b 309 890 456 833 387 890 b 162 758 231 890 162 833 z "},"˛":{"ha":719,"x_min":0,"x_max":0,"o":"m 532 28 l 422 46 b 210 -146 389 5 210 -24 b 395 -301 210 -238 267 -301 b 538 -238 448 -301 508 -271 l 485 -166 b 397 -203 465 -181 437 -203 b 315 -146 354 -203 315 -184 b 532 28 315 -96 460 -30 z "},"̀":{"ha":719,"x_min":0,"x_max":0,"o":"m 510 968 b 193 1181 413 1001 271 1107 l 110 1082 b 464 868 185 1006 367 900 z "},"́":{"ha":719,"x_min":0,"x_max":0,"o":"m 152 968 l 198 868 b 552 1082 295 900 477 1006 l 469 1181 b 152 968 391 1107 249 1001 z "},"̂":{"ha":719,"x_min":0,"x_max":0,"o":"m 352 1153 l 102 930 l 173 858 l 350 1008 l 534 858 l 606 930 z "},"̃":{"ha":719,"x_min":0,"x_max":0,"o":"m 231 1143 b 41 1012 157 1143 91 1123 l 134 962 b 239 1040 160 1034 199 1040 b 441 958 308 1040 347 958 b 632 1112 531 958 610 1031 l 532 1147 b 432 1061 522 1088 475 1061 b 231 1143 371 1061 332 1143 z "},"̄":{"ha":719,"x_min":0,"x_max":0,"o":"m 481 1102 l 470 1102 l 359 1102 b 186 1103 296 1102 231 1102 l 174 1105 l 174 1000 l 186 999 b 333 998 232 998 283 998 b 470 999 383 998 431 998 l 481 999 z "},"̅":{"ha":719,"x_min":0,"x_max":0,"o":"m 584 1102 l 59 1104 l 59 999 l 584 999 z "},"̆":{"ha":719,"x_min":0,"x_max":0,"o":"m 346 1024 b 210 1126 283 1024 229 1046 l 104 1105 b 346 920 137 953 260 920 b 591 1099 458 920 575 979 l 479 1120 b 346 1024 475 1067 419 1024 z "},"̇":{"ha":719,"x_min":0,"x_max":0,"o":"m 227 1120 l 227 967 l 387 965 l 387 1118 z "},"̈":{"ha":719,"x_min":0,"x_max":0,"o":"m 395 1111 l 395 958 l 555 956 l 555 1109 z m 120 1113 l 120 960 l 279 958 l 279 1111 z "},"̉":{"ha":719,"x_min":0,"x_max":0,"o":"m 425 646 b 424 697 424 652 424 695 b 529 813 490 701 529 743 b 404 927 529 882 461 927 b 273 886 359 927 311 910 l 298 814 b 382 842 321 826 348 842 b 437 803 407 842 435 829 l 437 802 b 378 765 437 782 411 765 b 326 777 346 765 345 770 l 326 649 z "},"̊":{"ha":719,"x_min":0,"x_max":0,"o":"m 353 1046 b 414 999 390 1046 414 1023 b 353 951 414 975 389 951 b 292 999 316 951 292 975 b 353 1046 292 1023 315 1046 z m 198 999 b 353 872 198 925 267 872 b 509 999 444 872 509 924 b 353 1131 509 1074 437 1131 b 198 999 270 1131 198 1074 z "},"̋":{"ha":719,"x_min":0,"x_max":0,"o":"m 302 863 l 380 785 b 618 1068 460 849 574 970 l 514 1136 b 302 863 467 1040 381 928 z m 74 868 l 151 790 b 391 1074 231 854 347 976 l 286 1141 b 74 868 239 1045 153 932 z "},"̌":{"ha":719,"x_min":0,"x_max":0,"o":"m 353 826 l 606 1042 l 534 1114 l 354 966 l 173 1114 l 102 1042 z "},"̍":{"ha":719,"x_min":0,"x_max":0,"o":"m 287 1104 l 287 868 l 395 868 l 395 1104 z "},"̎":{"ha":719,"x_min":0,"x_max":0,"o":"m 398 1104 l 398 868 l 506 868 l 506 1104 z m 219 1104 l 219 868 l 327 868 l 327 1104 z "},"̏":{"ha":719,"x_min":0,"x_max":0,"o":"m 612 878 b 429 1170 540 950 467 1070 l 317 1114 b 528 808 352 1013 454 879 z m 391 859 b 208 1150 319 930 245 1050 l 96 1094 b 307 788 131 993 233 859 z "},"̐":{"ha":719,"x_min":0,"x_max":0,"o":""},"̑":{"ha":719,"x_min":0,"x_max":0,"o":"m 346 1024 b 479 928 419 1024 475 981 l 591 949 b 346 1128 575 1069 458 1128 b 104 943 260 1128 137 1095 l 210 922 b 346 1024 229 1002 283 1024 z "},"̒":{"ha":719,"x_min":0,"x_max":0,"o":"m 188 870 l 319 838 b 365 1099 334 907 353 1003 l 262 1122 b 188 870 231 1020 214 946 z "},"̓":{"ha":719,"x_min":0,"x_max":0,"o":"m 290 1083 l 290 933 l 329 933 b 271 831 329 866 311 850 l 307 745 b 439 937 394 783 439 835 l 439 1083 z "},"̔":{"ha":719,"x_min":0,"x_max":0,"o":"m 428 1083 l 279 1083 l 279 937 b 412 745 279 835 324 783 l 448 831 b 389 933 407 850 389 866 l 428 933 z "},"̦":{"ha":719,"x_min":0,"x_max":0,"o":"m 305 3 l 305 -147 l 343 -147 b 285 -249 343 -214 326 -230 l 321 -335 b 454 -143 409 -297 454 -245 l 454 3 z "},"̧":{"ha":719,"x_min":0,"x_max":0,"o":"m 425 38 l 326 35 l 326 -92 b 378 -81 345 -85 346 -81 b 437 -117 411 -81 437 -98 l 437 -119 b 382 -158 435 -144 407 -158 b 298 -130 348 -158 321 -142 l 273 -201 b 404 -243 311 -226 359 -243 b 529 -129 461 -243 529 -197 b 424 -13 529 -58 490 -16 b 425 38 424 -11 424 33 z "},"̨":{"ha":719,"x_min":0,"x_max":0,"o":"m 532 28 l 422 46 b 210 -146 389 5 210 -24 b 395 -301 210 -238 267 -301 b 538 -238 448 -301 508 -271 l 485 -166 b 397 -203 465 -181 437 -203 b 315 -146 354 -203 315 -184 b 532 28 315 -96 460 -30 z "},"΄":{"ha":719,"x_min":0,"x_max":0,"o":"m 245 889 l 338 829 b 490 1128 403 907 467 1024 l 368 1162 b 245 889 341 1058 310 968 z "},"΅":{"ha":719,"x_min":0,"x_max":0,"o":"m 250 906 l 336 851 b 476 1127 396 923 455 1030 l 363 1157 b 250 906 338 1062 310 979 z m 94 871 l 94 741 l 254 739 l 254 869 z m 370 869 l 370 739 l 529 737 l 529 868 z "},"Ά":{"ha":719,"x_min":0,"x_max":0,"o":"m 64 867 l 157 806 b 309 1106 222 885 286 1002 l 186 1139 b 64 867 160 1036 129 946 z m 313 880 l 16 0 l 125 -16 l 195 201 b 498 221 270 220 402 219 l 565 -13 l 676 7 l 389 880 z m 459 332 l 364 332 b 233 319 308 329 274 328 l 351 666 z "},"·":{"ha":719,"x_min":0,"x_max":0,"o":"m 326 445 l 326 262 l 496 262 l 496 445 z "},"Έ":{"ha":719,"x_min":0,"x_max":0,"o":"m 11 878 l 95 818 b 231 1118 153 897 211 1013 l 121 1151 b 11 878 97 1047 69 958 z m 151 877 l 151 -2 l 585 -2 b 686 18 633 -2 655 9 l 658 119 b 583 101 658 119 619 101 l 250 100 b 251 431 250 152 251 294 l 251 452 l 530 452 l 530 553 l 251 553 l 251 776 l 651 776 l 651 878 l 641 878 b 413 880 594 878 508 880 l 343 880 l 281 880 b 151 877 231 880 187 880 z "},"Ή":{"ha":719,"x_min":0,"x_max":0,"o":"m 1 897 l 86 836 b 223 1136 144 915 203 1031 l 112 1169 b 1 897 88 1065 60 976 z m 230 879 l 127 878 l 127 0 l 230 0 b 229 405 230 123 229 172 b 491 424 305 422 397 424 l 574 424 l 574 0 l 675 0 l 675 876 l 573 876 b 574 527 573 766 574 713 l 427 527 b 229 508 350 527 288 522 z "},"Ί":{"ha":719,"x_min":0,"x_max":0,"o":"m 10 856 l 94 795 b 230 1095 152 874 210 991 l 120 1128 b 10 856 96 1025 68 935 z m 163 870 l 167 766 b 345 770 233 770 304 770 l 345 92 l 298 92 b 164 89 262 92 218 92 l 164 -12 b 384 -7 262 -12 338 -7 b 482 -7 421 -7 452 -7 b 614 -11 521 -7 560 -7 l 614 91 b 523 94 581 93 552 94 b 446 93 491 94 475 93 l 446 771 b 616 768 506 771 539 768 l 616 871 b 385 873 514 872 451 873 b 163 870 325 873 261 873 z "},"Ό":{"ha":719,"x_min":0,"x_max":0,"o":"m 19 831 l 106 771 b 248 1071 166 850 227 966 l 133 1104 b 19 831 108 1000 79 911 z m 217 164 b 160 389 179 214 160 318 b 240 723 160 566 193 663 b 382 793 279 774 317 793 b 528 688 441 793 489 765 b 576 436 564 618 576 514 l 576 423 b 528 195 576 351 555 238 b 370 93 498 138 449 93 b 217 164 297 93 250 120 z m 378 897 b 152 785 273 895 197 846 b 52 386 104 721 52 620 b 146 86 52 264 85 161 b 370 -11 201 18 288 -11 b 621 143 482 -11 570 45 b 684 421 654 206 684 310 l 684 429 b 378 897 680 847 463 897 z "},"Ύ":{"ha":719,"x_min":0,"x_max":0,"o":"m 7 860 l 85 800 b 211 1099 139 878 193 995 l 109 1133 b 7 860 87 1029 61 939 z m 357 -4 l 455 -4 l 455 85 b 458 299 455 113 456 210 b 459 400 458 336 459 368 b 567 582 471 418 514 493 b 705 856 631 696 676 792 l 620 909 b 414 515 596 850 474 609 b 218 901 360 608 243 848 l 132 852 b 361 408 163 781 312 483 b 357 92 361 327 357 153 z "},"Ώ":{"ha":719,"x_min":0,"x_max":0,"o":"m 19 821 l 97 760 b 225 1060 152 839 206 956 l 122 1093 b 19 821 100 989 73 900 z m 300 1 l 317 103 b 164 423 266 125 164 280 b 235 722 164 601 191 662 b 383 793 271 774 324 793 b 553 692 439 793 517 769 b 585 494 583 629 585 564 l 585 471 l 585 458 b 416 100 585 260 462 142 l 434 0 l 602 0 l 606 0 b 702 20 651 0 672 12 l 674 121 b 601 103 674 121 636 103 l 551 102 b 684 456 608 170 684 287 l 684 463 b 380 897 684 836 528 897 b 153 785 272 897 195 846 b 64 420 109 720 64 654 b 179 102 64 300 120 182 l 74 102 l 75 1 z "},"ΐ":{"ha":719,"x_min":0,"x_max":0,"o":"m 250 971 l 336 915 b 476 1191 396 987 455 1095 l 363 1221 b 250 971 338 1126 310 1044 z m 94 935 l 94 805 l 254 803 l 254 934 z m 370 934 l 370 803 l 529 802 l 529 932 z m 283 687 b 62 659 212 687 138 676 l 81 562 b 256 581 146 577 223 581 l 256 173 b 319 14 256 133 262 45 b 458 -12 349 -3 401 -12 b 694 150 583 -12 647 48 l 617 203 b 458 84 583 125 521 84 b 365 176 395 84 365 96 b 364 687 365 176 364 502 z "},"Α":{"ha":719,"x_min":0,"x_max":0,"o":"m 313 880 l 16 0 l 125 -16 l 195 201 b 498 221 270 220 402 219 l 565 -13 l 676 7 l 389 880 z m 459 332 l 364 332 b 233 319 308 329 274 328 l 351 666 z "},"Β":{"ha":719,"x_min":0,"x_max":0,"o":"m 480 392 b 531 277 515 363 531 331 b 396 104 531 180 468 113 b 321 99 372 100 349 99 b 170 104 271 99 243 104 b 173 439 171 155 172 278 l 203 439 b 325 440 252 439 292 440 b 480 392 389 440 431 433 z m 401 673 l 401 667 b 368 579 401 627 387 590 b 174 545 307 542 273 547 b 176 690 174 595 176 644 b 173 777 176 722 175 751 b 231 780 193 779 204 780 l 242 780 b 401 673 335 780 401 749 z m 66 558 b 60 2 66 276 60 134 l 152 2 b 344 -3 225 2 286 -3 b 425 2 370 -3 398 -1 b 639 267 538 16 639 114 b 449 520 639 395 554 485 b 507 680 490 558 507 614 b 235 881 507 826 374 881 l 222 881 b 58 871 146 881 113 876 b 66 558 64 785 66 675 z "},"Γ":{"ha":719,"x_min":0,"x_max":0,"o":"m 75 882 l 75 0 l 184 0 l 184 778 l 538 778 b 620 763 578 776 590 773 l 648 862 b 539 882 616 873 590 882 z "},"Δ":{"ha":719,"x_min":0,"x_max":0,"o":"m 566 0 l 677 20 l 389 880 l 313 880 l 16 13 l 126 -3 z m 351 666 b 536 102 412 474 481 301 l 160 102 b 351 666 221 297 287 473 z "},"Ε":{"ha":719,"x_min":0,"x_max":0,"o":"m 69 877 l 69 -2 l 532 -2 b 640 18 583 -2 607 9 l 610 119 b 530 101 610 119 568 101 l 174 100 b 176 431 174 152 176 294 l 176 452 l 473 452 l 473 553 l 176 553 l 176 776 l 603 776 l 603 878 l 592 878 b 349 880 542 878 450 880 l 274 880 l 208 880 b 69 877 155 880 107 880 z "},"Ζ":{"ha":719,"x_min":0,"x_max":0,"o":"m 83 -3 l 88 -3 b 384 -2 121 -3 240 -2 l 549 -2 b 656 18 600 -2 625 7 l 629 119 b 509 102 585 104 566 102 l 178 102 l 637 779 b 650 872 640 795 648 850 b 555 883 637 874 606 883 b 60 880 427 883 141 880 l 60 777 b 512 780 138 777 367 780 l 19 56 z "},"Η":{"ha":719,"x_min":0,"x_max":0,"o":"m 149 879 l 41 878 l 41 0 l 150 0 b 149 405 150 123 149 172 b 424 424 229 422 325 424 l 511 424 l 511 0 l 618 0 l 618 876 l 511 876 b 511 527 511 766 511 713 l 357 527 b 149 508 275 527 211 522 z "},"Θ":{"ha":719,"x_min":0,"x_max":0,"o":"m 193 164 b 136 389 155 214 136 318 b 216 723 136 566 169 663 b 357 793 255 774 293 793 b 504 688 417 793 465 765 b 552 436 540 618 552 514 l 552 423 b 504 195 551 351 531 238 b 346 93 473 138 425 93 b 193 164 273 93 226 120 z m 354 897 b 127 785 248 895 172 846 b 28 386 80 721 28 620 b 121 86 28 264 60 161 b 346 -11 176 18 263 -11 b 597 143 458 -11 546 45 b 659 421 629 206 659 310 l 659 429 b 354 897 656 847 438 897 z m 201 492 l 201 388 l 481 388 l 481 492 z "},"Ι":{"ha":719,"x_min":0,"x_max":0,"o":"m 90 880 l 94 776 b 286 781 165 780 241 780 l 286 102 l 235 102 b 91 99 197 102 149 102 l 91 -2 b 328 3 196 -2 278 3 b 433 3 368 3 401 3 b 576 -1 476 3 518 3 l 576 101 b 478 104 541 103 509 104 b 395 103 444 104 426 103 l 395 781 b 578 778 460 781 495 778 l 578 881 b 329 883 468 882 400 883 b 90 880 264 883 195 883 z "},"Κ":{"ha":719,"x_min":0,"x_max":0,"o":"m 328 492 b 660 817 369 541 536 727 l 585 888 b 355 675 570 874 485 808 b 186 477 288 606 240 552 l 186 887 l 79 887 l 79 -3 l 186 -3 l 186 292 b 263 407 206 340 263 407 b 589 -12 351 321 557 62 l 680 40 b 328 492 645 132 410 412 z "},"Λ":{"ha":719,"x_min":0,"x_max":0,"o":"m 565 -13 l 676 7 l 389 880 l 313 880 l 16 0 l 125 -16 b 351 666 210 208 273 441 b 565 -13 424 441 490 216 z "},"Μ":{"ha":719,"x_min":0,"x_max":0,"o":"m 40 884 l 42 -3 l 149 -3 l 149 610 b 170 568 159 591 156 597 b 275 368 230 453 269 378 l 357 366 b 494 624 365 390 444 528 l 496 -3 l 602 -3 l 602 890 l 523 890 b 315 515 468 802 372 620 b 251 636 302 541 285 575 b 109 890 204 719 154 825 z "},"Ν":{"ha":719,"x_min":0,"x_max":0,"o":"m 510 -4 l 618 -3 b 618 110 618 33 618 71 b 616 591 618 266 616 438 b 621 880 616 702 617 803 l 517 880 b 509 513 511 764 509 640 b 511 242 509 422 509 330 b 159 878 431 410 244 753 l 51 880 l 51 -2 l 159 -2 b 158 541 159 101 158 342 l 158 679 b 510 -4 295 439 399 238 z "},"Ξ":{"ha":719,"x_min":0,"x_max":0,"o":"m 176 553 l 176 452 l 473 452 l 473 553 z m 69 877 l 71 776 l 603 776 l 603 878 l 592 878 b 349 880 542 878 450 880 l 274 880 l 208 880 b 69 877 155 880 107 880 z m 68 100 l 69 -2 l 532 -2 b 640 18 583 -2 607 9 l 610 119 b 530 101 610 119 568 101 z "},"Ο":{"ha":719,"x_min":0,"x_max":0,"o":"m 193 164 b 136 389 155 214 136 318 b 216 723 136 566 169 663 b 357 793 255 774 293 793 b 504 688 417 793 465 765 b 552 436 540 618 552 514 l 552 423 b 504 195 551 351 531 238 b 346 93 473 138 425 93 b 193 164 273 93 226 120 z m 354 897 b 127 785 248 895 172 846 b 28 386 80 721 28 620 b 121 86 28 264 60 161 b 346 -11 176 18 263 -11 b 597 143 458 -11 546 45 b 659 421 629 206 659 310 l 659 429 b 354 897 656 847 438 897 z "}}}
